<svg width="105" height="35" viewBox="0 0 105 35" fill="none" xmlns="http://www.w3.org/2000/svg">
<path fill-rule="evenodd" clip-rule="evenodd" d="M26.401 12.2278H14.3011V15.8183H22.8829C22.4588 20.8534 18.2696 23.0007 14.3157 23.0007C9.25678 23.0007 4.84232 19.0204 4.84232 13.4414C4.84232 8.00656 9.0506 3.82138 14.3266 3.82138C18.3976 3.82138 20.7964 6.41626 20.7964 6.41626L23.3099 3.81287C23.3099 3.81287 20.0835 0.220703 14.1982 0.220703C6.70443 0.220298 0.90625 6.54547 0.90625 13.3774C0.90625 20.0716 6.35971 26.5997 14.3894 26.5997C21.451 26.5993 26.6201 21.7619 26.6201 14.6084C26.6201 13.0991 26.401 12.227 26.401 12.227V12.2278Z" fill="#176BEF"/>
<path fill-rule="evenodd" clip-rule="evenodd" d="M36.3625 12.9575C38.8043 12.9575 41.1181 14.9314 41.1181 18.112C41.1181 21.2258 38.814 23.2556 36.3516 23.2556C33.6457 23.2556 31.5106 21.0889 31.5106 18.0877C31.5106 15.1506 33.6186 12.9575 36.3625 12.9575ZM36.3131 9.62744C31.3482 9.62744 27.79 13.5088 27.79 18.0363C27.79 22.6298 31.2416 26.5837 36.3715 26.5837C41.0156 26.5837 44.8208 23.0341 44.8208 18.1347C44.8208 12.5192 40.3946 9.62744 36.3131 9.62744Z" fill="#FF3E30"/>
<path fill-rule="evenodd" clip-rule="evenodd" d="M54.8983 12.9575C57.3404 12.9575 59.6542 14.9314 59.6542 18.112C59.6542 21.2258 57.3498 23.2556 54.8873 23.2556C52.1819 23.2556 50.0471 21.0889 50.0471 18.0877C50.0471 15.1506 52.1551 12.9575 54.8983 12.9575ZM54.8493 9.62744C49.8847 9.62744 46.3262 13.5088 46.3262 18.0363C46.3262 22.6298 49.7774 26.5837 54.9076 26.5837C59.5517 26.5837 63.3566 23.0341 63.3566 18.1347C63.3566 12.5192 58.9308 9.62744 54.8493 9.62744Z" fill="#F7B529"/>
<path fill-rule="evenodd" clip-rule="evenodd" d="M73.3622 12.9603C75.5966 12.9603 77.8909 14.8678 77.8909 18.1258C77.8909 21.4376 75.601 23.2629 73.3128 23.2629C70.8836 23.2629 68.6229 21.2902 68.6229 18.1574C68.6229 14.9022 70.9707 12.9603 73.3622 12.9603ZM73.0321 9.63672C68.475 9.63672 64.8926 13.6283 64.8926 18.1084C64.8926 23.211 69.0458 26.5954 72.9535 26.5954C75.3701 26.5954 76.655 25.6362 77.6041 24.5356V26.2069C77.6041 29.1324 75.8275 30.8843 73.1467 30.8843C70.5571 30.8839 69.2584 28.9586 68.8072 27.8657L65.5484 29.228C66.7045 31.6717 69.0316 34.2209 73.1738 34.2209C77.705 34.2209 81.1582 31.3667 81.1582 25.3814V10.1463H77.6041V11.5827C76.5112 10.4047 75.0161 9.63672 73.0321 9.63672Z" fill="#176BEF"/>
<path fill-rule="evenodd" clip-rule="evenodd" d="M97.1111 12.8769C98.6601 12.8769 99.7749 13.7 100.248 14.6876L92.6566 17.8609C92.3293 15.4042 94.6568 12.8769 97.1111 12.8769ZM96.9629 9.61572C92.6639 9.61572 89.0547 13.0361 89.0547 18.0829C89.0547 23.4234 93.0778 26.5906 97.3756 26.5906C100.963 26.5906 103.165 24.628 104.479 22.8696L101.547 20.9196C100.787 22.1 99.5156 23.2532 97.3939 23.2532C95.0108 23.2532 93.9147 21.9481 93.2354 20.6843L104.604 15.9668L104.014 14.5843C102.915 11.8772 100.353 9.61613 96.9633 9.61613L96.9629 9.61572Z" fill="#FF3E30"/>
<path fill-rule="evenodd" clip-rule="evenodd" d="M83.6348 26.0872H87.3691V1.09717H83.6348V26.0872Z" fill="#179C52"/>
</svg>
