<svg width="168" height="41" viewBox="0 0 168 41" fill="none" xmlns="http://www.w3.org/2000/svg">
<path d="M49.1631 29.1454H61.1151V25.5454H53.4111V11.9854H49.1631V29.1454Z" fill="#010535"/>
<path d="M68.1965 26.7465C66.4925 26.7465 65.6045 25.2585 65.6045 23.0265C65.6045 20.7945 66.4925 19.2825 68.1965 19.2825C69.9005 19.2825 70.8125 20.7945 70.8125 23.0265C70.8125 25.2585 69.9005 26.7465 68.1965 26.7465ZM68.2205 29.5305C72.1805 29.5305 74.7725 26.7225 74.7725 23.0265C74.7725 19.3305 72.1805 16.5225 68.2205 16.5225C64.2845 16.5225 61.6445 19.3305 61.6445 23.0265C61.6445 26.7225 64.2845 29.5305 68.2205 29.5305Z" fill="#010535"/>
<path d="M81.6263 33.3931C83.4503 33.3931 85.0583 32.9851 86.1383 32.0251C87.1223 31.1371 87.7703 29.7931 87.7703 27.9451V16.8571H84.0263V18.1771H83.9783C83.2583 17.1451 82.1543 16.4971 80.5223 16.4971C77.4743 16.4971 75.3623 19.0411 75.3623 22.6411C75.3623 26.4091 77.9303 28.4731 80.6903 28.4731C82.1783 28.4731 83.1143 27.8731 83.8343 27.0571H83.9303V28.2811C83.9303 29.7691 83.2343 30.6331 81.5783 30.6331C80.2823 30.6331 79.6343 30.0811 79.4183 29.4331H75.6263C76.0103 32.0011 78.2423 33.3931 81.6263 33.3931ZM81.6023 25.5691C80.1383 25.5691 79.1783 24.3691 79.1783 22.5211C79.1783 20.6491 80.1383 19.4491 81.6023 19.4491C83.2343 19.4491 84.0983 20.8411 84.0983 22.4971C84.0983 24.2251 83.3063 25.5691 81.6023 25.5691Z" fill="#010535"/>
<path d="M95.469 26.7465C93.765 26.7465 92.877 25.2585 92.877 23.0265C92.877 20.7945 93.765 19.2825 95.469 19.2825C97.173 19.2825 98.085 20.7945 98.085 23.0265C98.085 25.2585 97.173 26.7465 95.469 26.7465ZM95.493 29.5305C99.453 29.5305 102.045 26.7225 102.045 23.0265C102.045 19.3305 99.453 16.5225 95.493 16.5225C91.557 16.5225 88.917 19.3305 88.917 23.0265C88.917 26.7225 91.557 29.5305 95.493 29.5305Z" fill="#010535"/>
<path d="M103.188 29.1454H107.1V16.8574H103.188V29.1454ZM103.188 15.1534H107.1V11.9854H103.188V15.1534Z" fill="#010535"/>
<path d="M108.796 33.2011H112.708V27.8731H112.756C113.524 28.9051 114.652 29.5291 116.236 29.5291C119.452 29.5291 121.588 26.9851 121.588 23.0011C121.588 19.3051 119.596 16.4971 116.332 16.4971C114.652 16.4971 113.452 17.2411 112.612 18.3451H112.54V16.8571H108.796V33.2011ZM115.228 26.5051C113.548 26.5051 112.588 25.1371 112.588 23.1451C112.588 21.1531 113.452 19.6411 115.156 19.6411C116.836 19.6411 117.628 21.0331 117.628 23.1451C117.628 25.2331 116.716 26.5051 115.228 26.5051Z" fill="#010535"/>
<path d="M127.958 29.5291C131.174 29.5291 133.55 28.1371 133.55 25.4491C133.55 22.3051 131.006 21.7531 128.846 21.3931C127.286 21.1051 125.894 20.9851 125.894 20.1211C125.894 19.3531 126.638 18.9931 127.598 18.9931C128.678 18.9931 129.422 19.3291 129.566 20.4331H133.166C132.974 18.0091 131.102 16.4971 127.622 16.4971C124.718 16.4971 122.318 17.8411 122.318 20.4331C122.318 23.3131 124.598 23.8891 126.734 24.2491C128.366 24.5371 129.854 24.6571 129.854 25.7611C129.854 26.5531 129.11 26.9851 127.934 26.9851C126.638 26.9851 125.822 26.3851 125.678 25.1611H121.982C122.102 27.8731 124.358 29.5291 127.958 29.5291Z" fill="#010535"/>
<path d="M138.863 29.5064C140.567 29.5064 141.647 28.8344 142.535 27.6344H142.607V29.1464H146.351V16.8584H142.439V23.7224C142.439 25.1864 141.623 26.1944 140.279 26.1944C139.031 26.1944 138.431 25.4504 138.431 24.1064V16.8584H134.543V24.9224C134.543 27.6584 136.031 29.5064 138.863 29.5064Z" fill="#010535"/>
<path d="M148.054 29.1451H151.966V22.2571C151.966 20.7931 152.686 19.7611 153.91 19.7611C155.086 19.7611 155.638 20.5291 155.638 21.8491V29.1451H159.55V22.2571C159.55 20.7931 160.246 19.7611 161.494 19.7611C162.67 19.7611 163.222 20.5291 163.222 21.8491V29.1451H167.134V21.1531C167.134 18.3931 165.742 16.4971 162.958 16.4971C161.374 16.4971 160.054 17.1691 159.094 18.6571H159.046C158.422 17.3371 157.198 16.4971 155.59 16.4971C153.814 16.4971 152.638 17.3371 151.87 18.6091H151.798V16.8571H148.054V29.1451Z" fill="#010535"/>
<path fill-rule="evenodd" clip-rule="evenodd" d="M9.18652 4.24337C7.75586 5.24373 6.46216 6.42648 5.33911 7.7579C9.92841 7.33183 15.7589 8.02755 22.5281 11.4122C29.7567 15.0264 35.5775 15.1486 39.6285 14.3672C39.2609 13.2543 38.7981 12.1847 38.25 11.1679C33.6128 11.657 27.6677 11.0096 20.7393 7.54548C16.3397 5.34568 12.4615 4.43951 9.18652 4.24337ZM35.5411 7.31215C31.879 3.2205 26.5571 0.645508 20.6337 0.645508C18.8942 0.645508 17.2064 0.867615 15.5974 1.28499C17.7766 1.87959 20.0916 2.74949 22.5281 3.96777C27.6007 6.50403 31.9801 7.32066 35.5411 7.31215ZM40.4946 18.2736C35.6006 19.24 28.8425 19.0415 20.7393 14.9899C13.1637 11.2021 7.13422 11.2498 3.06769 12.1535C2.85779 12.2001 2.65283 12.2491 2.45282 12.3001C1.92041 13.458 1.49542 14.6756 1.19049 15.94C1.51618 15.853 1.85272 15.7703 2.19995 15.6931C7.13336 14.5968 14.1038 14.6444 22.5281 18.8566C30.1038 22.6444 36.1333 22.5967 40.1999 21.693C40.3392 21.6621 40.4766 21.6301 40.6115 21.5971C40.6264 21.2818 40.6337 20.9645 40.6337 20.6455C40.6337 19.843 40.5865 19.0515 40.4946 18.2736ZM39.9585 25.8178C35.112 26.6651 28.5507 26.3399 20.7393 22.4343C13.1637 18.6465 7.13422 18.6942 3.06769 19.5979C2.16504 19.7984 1.35303 20.0427 0.636719 20.3006C0.634766 20.4153 0.633789 20.5303 0.633789 20.6455C0.633789 31.6912 9.58808 40.6455 20.6337 40.6455C29.8909 40.6455 37.6791 34.3564 39.9585 25.8178Z" fill="url(#paint0_linear_335_18267)"/>
<defs>
<linearGradient id="paint0_linear_335_18267" x1="0.633789" y1="20.6455" x2="40.6337" y2="20.6455" gradientUnits="userSpaceOnUse">
<stop stop-color="#1956C1"/>
<stop offset="1" stop-color="#E2403B"/>
</linearGradient>
</defs>
</svg>
