<svg width="170" height="41" viewBox="0 0 170 41" fill="none" xmlns="http://www.w3.org/2000/svg">
<path d="M51.6641 28.6454H63.6161V25.0454H55.9121V11.4854H51.6641V28.6454Z" fill="#010535"/>
<path d="M70.6965 26.2465C68.9925 26.2465 68.1045 24.7585 68.1045 22.5265C68.1045 20.2945 68.9925 18.7825 70.6965 18.7825C72.4005 18.7825 73.3125 20.2945 73.3125 22.5265C73.3125 24.7585 72.4005 26.2465 70.6965 26.2465ZM70.7205 29.0305C74.6805 29.0305 77.2725 26.2225 77.2725 22.5265C77.2725 18.8305 74.6805 16.0225 70.7205 16.0225C66.7845 16.0225 64.1445 18.8305 64.1445 22.5265C64.1445 26.2225 66.7845 29.0305 70.7205 29.0305Z" fill="#010535"/>
<path d="M84.1273 32.8931C85.9513 32.8931 87.5593 32.4851 88.6393 31.5251C89.6233 30.6371 90.2713 29.2931 90.2713 27.4451V16.3571H86.5273V17.6771H86.4793C85.7593 16.6451 84.6553 15.9971 83.0233 15.9971C79.9753 15.9971 77.8633 18.5411 77.8633 22.1411C77.8633 25.9091 80.4313 27.9731 83.1913 27.9731C84.6793 27.9731 85.6153 27.3731 86.3353 26.5571H86.4313V27.7811C86.4313 29.2691 85.7353 30.1331 84.0793 30.1331C82.7833 30.1331 82.1353 29.5811 81.9193 28.9331H78.1273C78.5113 31.5011 80.7433 32.8931 84.1273 32.8931ZM84.1033 25.0691C82.6393 25.0691 81.6793 23.8691 81.6793 22.0211C81.6793 20.1491 82.6393 18.9491 84.1033 18.9491C85.7353 18.9491 86.5993 20.3411 86.5993 21.9971C86.5993 23.7251 85.8073 25.0691 84.1033 25.0691Z" fill="#010535"/>
<path d="M97.97 26.2465C96.266 26.2465 95.378 24.7585 95.378 22.5265C95.378 20.2945 96.266 18.7825 97.97 18.7825C99.674 18.7825 100.586 20.2945 100.586 22.5265C100.586 24.7585 99.674 26.2465 97.97 26.2465ZM97.994 29.0305C101.954 29.0305 104.546 26.2225 104.546 22.5265C104.546 18.8305 101.954 16.0225 97.994 16.0225C94.058 16.0225 91.418 18.8305 91.418 22.5265C91.418 26.2225 94.058 29.0305 97.994 29.0305Z" fill="#010535"/>
<path d="M105.688 28.6454H109.599V16.3574H105.688V28.6454ZM105.688 14.6534H109.599V11.4854H105.688V14.6534Z" fill="#010535"/>
<path d="M111.298 32.7011H115.21V27.3731H115.258C116.026 28.4051 117.154 29.0291 118.738 29.0291C121.954 29.0291 124.09 26.4851 124.09 22.5011C124.09 18.8051 122.098 15.9971 118.834 15.9971C117.154 15.9971 115.954 16.7411 115.114 17.8451H115.042V16.3571H111.298V32.7011ZM117.73 26.0051C116.05 26.0051 115.09 24.6371 115.09 22.6451C115.09 20.6531 115.954 19.1411 117.658 19.1411C119.338 19.1411 120.13 20.5331 120.13 22.6451C120.13 24.7331 119.218 26.0051 117.73 26.0051Z" fill="#010535"/>
<path d="M130.458 29.0291C133.674 29.0291 136.05 27.6371 136.05 24.9491C136.05 21.8051 133.506 21.2531 131.346 20.8931C129.786 20.6051 128.394 20.4851 128.394 19.6211C128.394 18.8531 129.138 18.4931 130.098 18.4931C131.178 18.4931 131.922 18.8291 132.066 19.9331H135.666C135.474 17.5091 133.602 15.9971 130.122 15.9971C127.218 15.9971 124.818 17.3411 124.818 19.9331C124.818 22.8131 127.098 23.3891 129.234 23.7491C130.866 24.0371 132.354 24.1571 132.354 25.2611C132.354 26.0531 131.61 26.4851 130.434 26.4851C129.138 26.4851 128.322 25.8851 128.178 24.6611H124.482C124.602 27.3731 126.858 29.0291 130.458 29.0291Z" fill="#010535"/>
<path d="M141.365 29.0064C143.069 29.0064 144.149 28.3344 145.037 27.1344H145.109V28.6464H148.853V16.3584H144.941V23.2224C144.941 24.6864 144.125 25.6944 142.781 25.6944C141.533 25.6944 140.933 24.9504 140.933 23.6064V16.3584H137.045V24.4224C137.045 27.1584 138.533 29.0064 141.365 29.0064Z" fill="#010535"/>
<path d="M150.554 28.6451H154.466V21.7571C154.466 20.2931 155.186 19.2611 156.41 19.2611C157.586 19.2611 158.138 20.0291 158.138 21.3491V28.6451H162.05V21.7571C162.05 20.2931 162.746 19.2611 163.994 19.2611C165.17 19.2611 165.722 20.0291 165.722 21.3491V28.6451H169.634V20.6531C169.634 17.8931 168.242 15.9971 165.458 15.9971C163.874 15.9971 162.554 16.6691 161.594 18.1571H161.546C160.922 16.8371 159.698 15.9971 158.09 15.9971C156.314 15.9971 155.138 16.8371 154.37 18.1091H154.298V16.3571H150.554V28.6451Z" fill="#010535"/>
<path fill-rule="evenodd" clip-rule="evenodd" d="M20.4873 40.6455C31.533 40.6455 40.4873 31.6912 40.4873 20.6455C40.4873 9.59982 31.533 0.645508 20.4873 0.645508C9.44159 0.645508 0.487305 9.59982 0.487305 20.6455C0.487305 31.6912 9.44159 40.6455 20.4873 40.6455ZM26.7266 9.96235C27.0303 8.88356 25.9834 8.24564 25.0273 8.92681L11.6804 18.4351C10.6435 19.1738 10.8066 20.6455 11.9254 20.6455H15.44V20.6183H22.2898L16.7085 22.5876L14.248 31.3287C13.9443 32.4075 14.9911 33.0454 15.9473 32.3642L29.2942 22.856C30.3311 22.1173 30.1679 20.6455 29.0492 20.6455H23.7194L26.7266 9.96235Z" fill="url(#paint0_linear_335_18256)"/>
<defs>
<linearGradient id="paint0_linear_335_18256" x1="0.487305" y1="20.6455" x2="40.4873" y2="20.6455" gradientUnits="userSpaceOnUse">
<stop stop-color="#1956C1"/>
<stop offset="1" stop-color="#E2403B"/>
</linearGradient>
</defs>
</svg>
