<svg width="168" height="41" viewBox="0 0 168 41" fill="none" xmlns="http://www.w3.org/2000/svg">
<path d="M49.5166 28.6746H61.4686V25.0746H53.7646V11.5146H49.5166V28.6746Z" fill="#010535"/>
<path d="M68.55 26.2758C66.846 26.2758 65.958 24.7878 65.958 22.5558C65.958 20.3238 66.846 18.8118 68.55 18.8118C70.254 18.8118 71.166 20.3238 71.166 22.5558C71.166 24.7878 70.254 26.2758 68.55 26.2758ZM68.574 29.0598C72.534 29.0598 75.126 26.2518 75.126 22.5558C75.126 18.8598 72.534 16.0518 68.574 16.0518C64.638 16.0518 61.998 18.8598 61.998 22.5558C61.998 26.2518 64.638 29.0598 68.574 29.0598Z" fill="#010535"/>
<path d="M81.9808 32.9224C83.8048 32.9224 85.4128 32.5144 86.4928 31.5544C87.4768 30.6664 88.1248 29.3224 88.1248 27.4744V16.3864H84.3808V17.7064H84.3328C83.6128 16.6744 82.5088 16.0264 80.8768 16.0264C77.8288 16.0264 75.7168 18.5704 75.7168 22.1704C75.7168 25.9384 78.2848 28.0024 81.0448 28.0024C82.5328 28.0024 83.4688 27.4024 84.1888 26.5864H84.2848V27.8104C84.2848 29.2984 83.5888 30.1624 81.9328 30.1624C80.6368 30.1624 79.9888 29.6104 79.7728 28.9624H75.9808C76.3648 31.5304 78.5968 32.9224 81.9808 32.9224ZM81.9568 25.0984C80.4928 25.0984 79.5328 23.8984 79.5328 22.0504C79.5328 20.1784 80.4928 18.9784 81.9568 18.9784C83.5888 18.9784 84.4528 20.3704 84.4528 22.0264C84.4528 23.7544 83.6608 25.0984 81.9568 25.0984Z" fill="#010535"/>
<path d="M95.8225 26.2758C94.1185 26.2758 93.2305 24.7878 93.2305 22.5558C93.2305 20.3238 94.1185 18.8118 95.8225 18.8118C97.5265 18.8118 98.4385 20.3238 98.4385 22.5558C98.4385 24.7878 97.5265 26.2758 95.8225 26.2758ZM95.8465 29.0598C99.8065 29.0598 102.398 26.2518 102.398 22.5558C102.398 18.8598 99.8065 16.0518 95.8465 16.0518C91.9105 16.0518 89.2705 18.8598 89.2705 22.5558C89.2705 26.2518 91.9105 29.0598 95.8465 29.0598Z" fill="#010535"/>
<path d="M103.541 28.6746H107.453V16.3866H103.541V28.6746ZM103.541 14.6826H107.453V11.5146H103.541V14.6826Z" fill="#010535"/>
<path d="M109.15 32.7304H113.062V27.4024H113.11C113.878 28.4344 115.006 29.0584 116.59 29.0584C119.806 29.0584 121.942 26.5144 121.942 22.5304C121.942 18.8344 119.95 16.0264 116.686 16.0264C115.006 16.0264 113.806 16.7704 112.966 17.8744H112.894V16.3864H109.15V32.7304ZM115.582 26.0344C113.902 26.0344 112.942 24.6664 112.942 22.6744C112.942 20.6824 113.806 19.1704 115.51 19.1704C117.19 19.1704 117.982 20.5624 117.982 22.6744C117.982 24.7624 117.07 26.0344 115.582 26.0344Z" fill="#010535"/>
<path d="M128.311 29.0584C131.527 29.0584 133.903 27.6664 133.903 24.9784C133.903 21.8344 131.359 21.2824 129.199 20.9224C127.639 20.6344 126.247 20.5144 126.247 19.6504C126.247 18.8824 126.991 18.5224 127.951 18.5224C129.031 18.5224 129.775 18.8584 129.919 19.9624H133.519C133.327 17.5384 131.455 16.0264 127.975 16.0264C125.071 16.0264 122.671 17.3704 122.671 19.9624C122.671 22.8424 124.951 23.4184 127.087 23.7784C128.719 24.0664 130.207 24.1864 130.207 25.2904C130.207 26.0824 129.463 26.5144 128.287 26.5144C126.991 26.5144 126.175 25.9144 126.031 24.6904H122.335C122.455 27.4024 124.711 29.0584 128.311 29.0584Z" fill="#010535"/>
<path d="M139.217 29.0357C140.921 29.0357 142.001 28.3637 142.889 27.1637H142.961V28.6757H146.705V16.3877H142.793V23.2517C142.793 24.7157 141.977 25.7237 140.633 25.7237C139.385 25.7237 138.785 24.9797 138.785 23.6357V16.3877H134.897V24.4517C134.897 27.1877 136.385 29.0357 139.217 29.0357Z" fill="#010535"/>
<path d="M148.407 28.6744H152.319V21.7864C152.319 20.3224 153.039 19.2904 154.263 19.2904C155.439 19.2904 155.991 20.0584 155.991 21.3784V28.6744H159.903V21.7864C159.903 20.3224 160.599 19.2904 161.847 19.2904C163.023 19.2904 163.575 20.0584 163.575 21.3784V28.6744H167.487V20.6824C167.487 17.9224 166.095 16.0264 163.311 16.0264C161.727 16.0264 160.407 16.6984 159.447 18.1864H159.399C158.775 16.8664 157.551 16.0264 155.943 16.0264C154.167 16.0264 152.991 16.8664 152.223 18.1384H152.151V16.3864H148.407V28.6744Z" fill="#010535"/>
<path d="M25.6492 1.69937L21.7162 0.645508L18.4018 13.0151L15.4095 1.84775L11.4764 2.90161L14.7094 14.9671L6.65672 6.91449L3.77753 9.79368L12.6103 18.6265L1.6105 15.6791L0.556641 19.6121L12.5753 22.8325C12.4377 22.239 12.3649 21.6206 12.3649 20.9852C12.3649 16.4876 16.0109 12.8416 20.5085 12.8416C25.0061 12.8416 28.6521 16.4876 28.6521 20.9852C28.6521 21.6165 28.5802 22.2311 28.4443 22.8211L39.367 25.7478L40.4208 21.8148L28.3544 18.5816L39.3549 15.634L38.301 11.701L26.2351 14.934L34.2877 6.88143L31.4085 4.00224L22.6983 12.7125L25.6492 1.69937Z" fill="url(#paint0_linear_335_18222)"/>
<path d="M28.4331 22.8662C28.0959 24.2918 27.384 25.5725 26.4072 26.5986L34.3202 34.5117L37.1994 31.6325L28.4331 22.8662Z" fill="url(#paint1_linear_335_18222)"/>
<path d="M26.3274 26.6826C25.3388 27.6923 24.0895 28.4458 22.6885 28.8341L25.5679 39.5801L29.5009 38.5262L26.3274 26.6826Z" fill="url(#paint2_linear_335_18222)"/>
<path d="M22.5416 28.872C21.8916 29.0391 21.2103 29.1279 20.5082 29.1279C19.756 29.1279 19.0276 29.0259 18.3361 28.835L15.4541 39.5908L19.3871 40.6446L22.5416 28.872Z" fill="url(#paint3_linear_335_18222)"/>
<path d="M18.197 28.7956C16.8174 28.388 15.5903 27.6249 14.6219 26.6123L6.68945 34.5448L9.56864 37.424L18.197 28.7956Z" fill="url(#paint4_linear_335_18222)"/>
<path d="M14.5565 26.5426C13.6047 25.5236 12.9114 24.26 12.5814 22.8564L1.62305 25.7927L2.6769 29.7257L14.5565 26.5426Z" fill="url(#paint5_linear_335_18222)"/>
<defs>
<linearGradient id="paint0_linear_335_18222" x1="0.556641" y1="13.1966" x2="40.4208" y2="13.1966" gradientUnits="userSpaceOnUse">
<stop stop-color="#1956C1"/>
<stop offset="1" stop-color="#E2403B"/>
</linearGradient>
<linearGradient id="paint1_linear_335_18222" x1="26.4072" y1="28.689" x2="37.1994" y2="28.689" gradientUnits="userSpaceOnUse">
<stop stop-color="#1956C1"/>
<stop offset="1" stop-color="#E2403B"/>
</linearGradient>
<linearGradient id="paint2_linear_335_18222" x1="22.6885" y1="33.1314" x2="29.5009" y2="33.1314" gradientUnits="userSpaceOnUse">
<stop stop-color="#1956C1"/>
<stop offset="1" stop-color="#E2403B"/>
</linearGradient>
<linearGradient id="paint3_linear_335_18222" x1="15.4541" y1="34.7398" x2="22.5416" y2="34.7398" gradientUnits="userSpaceOnUse">
<stop stop-color="#1956C1"/>
<stop offset="1" stop-color="#E2403B"/>
</linearGradient>
<linearGradient id="paint4_linear_335_18222" x1="6.68945" y1="32.0182" x2="18.197" y2="32.0182" gradientUnits="userSpaceOnUse">
<stop stop-color="#1956C1"/>
<stop offset="1" stop-color="#E2403B"/>
</linearGradient>
<linearGradient id="paint5_linear_335_18222" x1="1.62305" y1="26.2911" x2="14.5565" y2="26.2911" gradientUnits="userSpaceOnUse">
<stop stop-color="#1956C1"/>
<stop offset="1" stop-color="#E2403B"/>
</linearGradient>
</defs>
</svg>
