<svg width="202" height="41" viewBox="0 0 202 41" fill="none" xmlns="http://www.w3.org/2000/svg">
<path fill-rule="evenodd" clip-rule="evenodd" d="M25.5557 12.3308C23.9112 11.232 21.9778 10.6455 20 10.6455V0.645508C23.9556 0.645508 27.8224 1.81849 31.1114 4.01612C34.4004 6.21374 36.9638 9.33732 38.4776 12.9918C39.9913 16.6463 40.3874 20.6677 39.6157 24.5473C38.844 28.4269 36.9392 31.9906 34.1421 34.7876C31.3451 37.5847 27.7814 39.4895 23.9018 40.2612C20.0222 41.0329 16.0008 40.6368 12.3463 39.1231C8.6918 37.6093 5.56823 35.0459 3.37061 31.7569C1.17298 28.4679 0 24.6011 0 20.6455H10C10 22.6233 10.5865 24.5567 11.6853 26.2012C12.7841 27.8457 14.3459 29.1274 16.1732 29.8843C18.0004 30.6412 20.0111 30.8392 21.9509 30.4533C23.8907 30.0675 25.6725 29.1151 27.0711 27.7166C28.4696 26.318 29.422 24.5362 29.8078 22.5964C30.1937 20.6566 29.9957 18.6459 29.2388 16.8187C28.4819 14.9914 27.2002 13.4296 25.5557 12.3308Z" fill="url(#paint0_linear_335_18208)"/>
<path fill-rule="evenodd" clip-rule="evenodd" d="M9.99999 0.645513C9.99999 1.95873 9.74134 3.25909 9.23879 4.47235C8.73624 5.6856 7.99965 6.78799 7.07106 7.71658C6.14248 8.64517 5.04009 9.38176 3.82683 9.88431C2.61357 10.3869 1.31321 10.6455 4.3711e-07 10.6455L0 20.6455C2.62643 20.6455 5.22715 20.1282 7.65367 19.1231C10.0802 18.118 12.285 16.6448 14.1421 14.7876C15.9993 12.9305 17.4725 10.7257 18.4776 8.29918C19.4827 5.87266 20 3.27194 20 0.645508L9.99999 0.645513Z" fill="url(#paint1_linear_335_18208)"/>
<path d="M125.619 15.0986H120.767V30.5109H125.619V15.0986Z" fill="#010535"/>
<path d="M121.307 12.2121C121.814 12.7195 122.448 12.9732 123.209 12.9732C123.97 12.9732 124.594 12.7195 125.08 12.2121C125.567 11.6836 125.81 11.0493 125.81 10.3094C125.81 9.54828 125.567 8.914 125.08 8.40662C124.594 7.8992 123.97 7.64551 123.209 7.64551C122.448 7.64551 121.814 7.8992 121.307 8.40662C120.82 8.914 120.577 9.54828 120.577 10.3094C120.577 11.0493 120.82 11.6836 121.307 12.2121Z" fill="#010535"/>
<path d="M51.1562 30.5092V8.12012H56.1352V26.1329H66.0613V30.5092H51.1562Z" fill="#010535"/>
<path fill-rule="evenodd" clip-rule="evenodd" d="M75.0273 30.859C73.4417 30.859 72.0041 30.5102 70.7144 29.8125C69.4459 29.0937 68.4417 28.1212 67.7017 26.8949C66.9618 25.6687 66.5918 24.2945 66.5918 22.7723C66.5918 21.2501 66.9618 19.8865 67.7017 18.6814C68.4417 17.4763 69.4459 16.5249 70.7144 15.8273C71.9829 15.1084 73.4206 14.749 75.0273 14.749C76.6341 14.749 78.0717 15.0979 79.3402 15.7955C80.6087 16.4932 81.613 17.4552 82.3529 18.6814C83.0929 19.8865 83.4629 21.2501 83.4629 22.7723C83.4629 24.2945 83.0929 25.6687 82.3529 26.8949C81.613 28.1212 80.6087 29.0937 79.3402 29.8125C78.0717 30.5102 76.6341 30.859 75.0273 30.859ZM75.0273 26.451C75.725 26.451 76.3381 26.303 76.8667 26.007C77.3952 25.6899 77.7969 25.2565 78.0717 24.7068C78.3677 24.136 78.5157 23.4911 78.5157 22.7723C78.5157 22.0535 78.3677 21.4298 78.0717 20.9013C77.7757 20.3516 77.3635 19.9288 76.8349 19.6328C76.3275 19.3156 75.725 19.1571 75.0273 19.1571C74.3508 19.1571 73.7483 19.3156 73.2197 19.6328C72.6912 19.9288 72.2789 20.3516 71.9829 20.9013C71.6869 21.451 71.539 22.0852 71.539 22.804C71.539 23.5017 71.6869 24.136 71.9829 24.7068C72.2789 25.2565 72.6912 25.6899 73.2197 26.007C73.7483 26.303 74.3508 26.451 75.0273 26.451Z" fill="#010535"/>
<path fill-rule="evenodd" clip-rule="evenodd" d="M87.3056 36.5352C88.5952 37.1271 90.0857 37.4231 91.7771 37.4231C93.4261 37.4231 94.8955 37.0954 96.1851 36.44C97.4748 35.7846 98.4895 34.8756 99.2295 33.7128C99.9694 32.55 100.34 31.1758 100.34 29.5901V15.0975H95.5825V16.133C95.2287 15.8352 94.8269 15.5852 94.3775 15.3829C93.5529 14.9812 92.6121 14.7803 91.5551 14.7803C90.1386 14.7803 88.8806 15.1186 87.7813 15.7951C86.6818 16.4505 85.8151 17.3596 85.1808 18.5224C84.5465 19.6641 84.2295 20.9537 84.2295 22.3914C84.2295 23.8079 84.5465 25.0975 85.1808 26.2603C85.8151 27.4231 86.6818 28.3428 87.7813 29.0193C88.8806 29.6958 90.1386 30.0341 91.5551 30.0341C92.591 30.0341 93.5318 29.8333 94.3775 29.4316C94.7871 29.237 95.1571 29.0077 95.4874 28.7436V29.717C95.4874 30.7952 95.1386 31.6303 94.4409 32.2223C93.7644 32.8143 92.8236 33.1102 91.6185 33.1102C90.646 33.1102 89.8109 32.9411 89.1132 32.6028C88.4367 32.2646 87.8235 31.7677 87.2738 31.1123L84.2929 34.0933C85.0328 35.1504 86.0371 35.9644 87.3056 36.5352ZM94.2189 25.2772C93.7326 25.5732 93.1513 25.7212 92.4747 25.7212C91.7982 25.7212 91.2062 25.5732 90.6988 25.2772C90.2125 24.9812 89.832 24.5795 89.5572 24.0721C89.2823 23.5436 89.1449 22.9833 89.1449 22.3914C89.1449 21.7571 89.2823 21.1863 89.5572 20.6789C89.832 20.1715 90.2231 19.7698 90.7305 19.4738C91.2379 19.1778 91.8193 19.0298 92.4747 19.0298C93.1513 19.0298 93.7326 19.1778 94.2189 19.4738C94.7263 19.7698 95.1068 20.1715 95.3606 20.6789C95.6354 21.1863 95.7728 21.7571 95.7728 22.3914C95.7728 23.0256 95.6354 23.5964 95.3606 24.1038C95.1068 24.5901 94.7263 24.9812 94.2189 25.2772Z" fill="#010535"/>
<path fill-rule="evenodd" clip-rule="evenodd" d="M110.551 30.859C108.965 30.859 107.527 30.5102 106.238 29.8125C104.969 29.0937 103.965 28.1212 103.225 26.8949C102.485 25.6687 102.115 24.2945 102.115 22.7723C102.115 21.2501 102.485 19.8865 103.225 18.6814C103.965 17.4763 104.969 16.5249 106.238 15.8273C107.506 15.1084 108.944 14.749 110.551 14.749C112.157 14.749 113.595 15.0979 114.863 15.7955C116.132 16.4932 117.136 17.4552 117.876 18.6814C118.616 19.8865 118.986 21.2501 118.986 22.7723C118.986 24.2945 118.616 25.6687 117.876 26.8949C117.136 28.1212 116.132 29.0937 114.863 29.8125C113.595 30.5102 112.157 30.859 110.551 30.859ZM110.551 26.451C111.248 26.451 111.861 26.303 112.39 26.007C112.918 25.6899 113.32 25.2565 113.595 24.7068C113.891 24.136 114.039 23.4911 114.039 22.7723C114.039 22.0535 113.891 21.4298 113.595 20.9013C113.299 20.3516 112.887 19.9288 112.358 19.6328C111.851 19.3156 111.248 19.1571 110.551 19.1571C109.874 19.1571 109.271 19.3156 108.743 19.6328C108.214 19.9288 107.802 20.3516 107.506 20.9013C107.21 21.451 107.062 22.0852 107.062 22.804C107.062 23.5017 107.21 24.136 107.506 24.7068C107.802 25.2565 108.214 25.6899 108.743 26.007C109.271 26.303 109.874 26.451 110.551 26.451Z" fill="#010535"/>
<path fill-rule="evenodd" clip-rule="evenodd" d="M137.281 30.8269C136.246 30.8269 135.294 30.6261 134.427 30.2244C133.971 30.013 133.559 29.7606 133.191 29.4672V37.0109H128.402V15.0975H133.254V16.1612C133.606 15.8733 133.997 15.6244 134.427 15.4146C135.294 14.9917 136.246 14.7803 137.281 14.7803C138.74 14.7803 140.03 15.1292 141.15 15.8269C142.292 16.5245 143.18 17.4759 143.814 18.681C144.47 19.8861 144.797 21.2603 144.797 22.8036C144.797 24.347 144.47 25.7212 143.814 26.9263C143.18 28.1314 142.292 29.0827 141.15 29.7804C140.03 30.4781 138.74 30.8269 137.281 30.8269ZM136.394 26.4506C137.091 26.4506 137.694 26.292 138.201 25.9749C138.73 25.6578 139.142 25.2243 139.438 24.6747C139.734 24.125 139.882 23.5013 139.882 22.8036C139.882 22.0848 139.734 21.4506 139.438 20.9009C139.142 20.3512 138.73 19.9284 138.201 19.6324C137.694 19.3152 137.102 19.1567 136.425 19.1567C135.749 19.1567 135.146 19.3152 134.618 19.6324C134.11 19.9284 133.709 20.3512 133.413 20.9009C133.117 21.4506 132.969 22.0848 132.969 22.8036C132.969 23.5013 133.106 24.125 133.381 24.6747C133.677 25.2243 134.089 25.6578 134.618 25.9749C135.146 26.292 135.738 26.4506 136.394 26.4506Z" fill="#010535"/>
<path d="M149.546 30.5413C150.434 30.7739 151.332 30.8901 152.241 30.8901C154.165 30.8901 155.687 30.4462 156.808 29.5582C157.949 28.6703 158.52 27.4758 158.52 25.9747C158.52 25.0022 158.341 24.2199 157.981 23.628C157.622 23.0149 157.157 22.5286 156.586 22.1692C156.015 21.8098 155.412 21.5243 154.778 21.3129C154.144 21.1015 153.541 20.9218 152.971 20.7738C152.4 20.6258 151.935 20.4567 151.575 20.2664C151.216 20.0761 151.036 19.8224 151.036 19.5053C151.036 19.2093 151.174 18.9873 151.448 18.8393C151.723 18.6702 152.135 18.5857 152.685 18.5857C153.256 18.5857 153.837 18.7019 154.429 18.9345C155.042 19.167 155.592 19.5688 156.078 20.1396L158.837 17.3489C158.14 16.4609 157.231 15.7949 156.11 15.351C155.011 14.8859 153.806 14.6533 152.495 14.6533C151.248 14.6533 150.159 14.8647 149.229 15.2875C148.298 15.7104 147.579 16.2918 147.072 17.0317C146.565 17.7505 146.311 18.6068 146.311 19.6005C146.311 20.5307 146.491 21.3024 146.85 21.9155C147.209 22.5074 147.675 22.9726 148.245 23.3108C148.816 23.6491 149.419 23.9134 150.053 24.1036C150.687 24.2939 151.29 24.4736 151.861 24.6428C152.431 24.7908 152.897 24.9705 153.256 25.1819C153.637 25.3722 153.827 25.6576 153.827 26.0381C153.827 26.3341 153.668 26.5666 153.351 26.7358C153.055 26.9049 152.622 26.9895 152.051 26.9895C151.226 26.9895 150.465 26.8415 149.768 26.5455C149.07 26.2284 148.467 25.795 147.96 25.2453L145.201 28.036C145.73 28.6068 146.364 29.1143 147.104 29.5582C147.865 29.981 148.679 30.3087 149.546 30.5413Z" fill="#010535"/>
<path d="M167.368 30.8597C165.952 30.8597 164.694 30.5743 163.595 30.0035C162.516 29.4115 161.671 28.6081 161.058 27.5933C160.444 26.5574 160.138 25.3735 160.138 24.0415V15.0986H164.99V23.9781C164.99 24.5066 165.074 24.9612 165.244 25.3417C165.434 25.7223 165.709 26.0183 166.068 26.2297C166.428 26.4411 166.861 26.5468 167.368 26.5468C168.087 26.5468 168.658 26.3248 169.081 25.8808C169.504 25.4157 169.715 24.7815 169.715 23.9781V15.0986H174.567V24.0098C174.567 25.3629 174.261 26.5574 173.647 27.5933C173.034 28.6081 172.189 29.4115 171.11 30.0035C170.032 30.5743 168.785 30.8597 167.368 30.8597Z" fill="#010535"/>
<path d="M181.831 15.0975H176.979V30.5098H181.831V21.5034C181.831 20.9749 181.937 20.5309 182.148 20.1715C182.381 19.8121 182.688 19.5372 183.068 19.347C183.449 19.1355 183.882 19.0298 184.368 19.0298C185.066 19.0298 185.647 19.2518 186.112 19.6958C186.599 20.1186 186.842 20.7212 186.842 21.5034V30.5098H191.694V21.5034C191.694 20.9749 191.8 20.5309 192.011 20.1715C192.244 19.8121 192.55 19.5372 192.931 19.347C193.311 19.1355 193.745 19.0298 194.231 19.0298C194.929 19.0298 195.51 19.2518 195.975 19.6958C196.461 20.1186 196.704 20.7212 196.704 21.5034V30.5098H201.557V20.9643C201.557 19.6747 201.282 18.5753 200.732 17.6662C200.203 16.7359 199.474 16.0277 198.544 15.5415C197.635 15.034 196.588 14.7803 195.404 14.7803C194.199 14.7803 193.11 15.0446 192.138 15.5732C191.506 15.9099 190.954 16.3445 190.481 16.8769C190.04 16.32 189.504 15.8643 188.871 15.5097C188.026 15.0235 187.064 14.7803 185.986 14.7803C184.844 14.7803 183.819 15.0235 182.91 15.5097C182.514 15.712 182.155 15.9543 181.831 16.2366V15.0975Z" fill="#010535"/>
<defs>
<linearGradient id="paint0_linear_335_18208" x1="0" y1="20.6455" x2="40" y2="20.6455" gradientUnits="userSpaceOnUse">
<stop stop-color="#1956C1"/>
<stop offset="1" stop-color="#E2403B"/>
</linearGradient>
<linearGradient id="paint1_linear_335_18208" x1="0" y1="10.6455" x2="20" y2="10.6455" gradientUnits="userSpaceOnUse">
<stop stop-color="#1956C1"/>
<stop offset="1" stop-color="#E2403B"/>
</linearGradient>
</defs>
</svg>
