<svg width="50" height="50" viewBox="0 0 50 50" fill="none" xmlns="http://www.w3.org/2000/svg">
<g clip-path="url(#clip0_470_47)">
<path d="M11.5031 17.0259C11.1222 16.645 10.5031 16.645 10.1223 17.0259C9.74048 17.4077 9.74048 18.0259 10.1223 18.4067C10.5032 18.7886 11.1223 18.7886 11.5031 18.4067C11.8848 18.0259 11.8848 17.4077 11.5031 17.0259Z" fill="white"/>
<path d="M24.7265 43.7228C25.1571 43.1396 25.3898 42.4369 25.3898 41.6982C25.3898 39.8136 23.8566 38.2803 21.9719 38.2803H5.37091C4.45753 38.2803 3.59923 38.6357 2.95401 39.2812C2.3085 39.9265 1.95303 40.7848 1.95303 41.6982C1.95303 42.4549 2.20069 43.1547 2.61856 43.7216C1.06358 44.5392 0 46.17 0 48.0455V49.0221C0 49.5614 0.437306 49.9987 0.976564 49.9987H26.3663C26.9055 49.9987 27.3428 49.5614 27.3428 49.0221V48.0455C27.3428 46.1709 26.2803 44.5407 24.7265 43.7228ZM4.33497 40.662C4.61143 40.3855 4.9794 40.2332 5.37091 40.2332H21.9719C22.7796 40.2332 23.4367 40.8903 23.4367 41.698C23.4367 42.0896 23.2843 42.4574 23.0078 42.734C22.7313 43.0106 22.3633 43.1628 21.9718 43.1628H5.37091C4.56319 43.1628 3.90616 42.5057 3.90616 41.6981C3.90616 41.3065 4.05841 40.9386 4.33497 40.662ZM1.95303 48.0455C1.95303 46.4302 3.26729 45.1159 4.88263 45.1159H5.37091H21.9719H22.4602C24.0755 45.1159 25.3898 46.4302 25.3898 48.0455H1.95303Z" fill="white"/>
<path d="M49.0892 41.0277C48.7575 40.5138 48.3618 40.0593 47.9129 39.6768L43.3499 35.697C43.3143 35.6435 43.2731 35.5927 43.226 35.5456C43.1467 35.4664 43.0568 35.4046 42.9613 35.3583L40.2018 32.9515L27.4294 21.8098C27.9522 21.2632 28.2401 20.5485 28.2401 19.7884C28.2401 19.0054 27.9353 18.2696 27.3813 17.7157C27.1397 17.4744 26.8651 17.2846 26.5716 17.1456L27.7533 15.964C28.0836 16.0518 28.4229 16.0967 28.7626 16.0967C29.7627 16.0966 30.7629 15.7159 31.5242 14.9546C32.2623 14.2166 32.6687 13.2357 32.6687 12.1924C32.6687 11.1491 32.2623 10.1682 31.5243 9.43019L23.2383 1.14444C22.5003 0.406446 21.5193 0 20.4757 0C19.4327 0 18.4519 0.406446 17.714 1.14444C16.6941 2.16436 16.3583 3.61251 16.7046 4.91544L4.91505 16.7049C4.58927 16.6183 4.2503 16.5726 3.90401 16.5726C2.86026 16.5726 1.87969 16.9787 1.14229 17.716C-0.380763 19.2391 -0.380763 21.7173 1.14229 23.2405L9.42814 31.5264C10.1898 32.288 11.1901 32.6687 12.1904 32.6687C13.1907 32.6687 14.191 32.288 14.9527 31.5264C15.9726 30.5064 16.3083 29.0584 15.962 27.7554L17.1412 26.5761C17.2829 26.872 17.4752 27.1451 17.7141 27.3838C18.2674 27.9372 19.0031 28.2419 19.7859 28.2419C20.5452 28.2419 21.2596 27.9545 21.807 27.4323L35.4111 43.0626C35.4486 43.1212 35.4924 43.1769 35.5435 43.2281C35.561 43.2456 35.5796 43.2615 35.598 43.2773L39.6518 47.935C39.7526 48.0539 39.8603 48.1709 39.9722 48.2827C41.0855 49.3957 42.5561 49.9997 44.1001 49.9997C44.3723 49.9997 44.647 49.981 44.9221 49.9429C46.7608 49.6884 48.35 48.5884 49.2818 46.9245C50.3026 45.101 50.2267 42.7858 49.0892 41.0277ZM19.0952 2.52549C19.4642 2.15645 19.9546 1.95313 20.4758 1.95313C20.9977 1.95313 21.4884 2.15645 21.8574 2.52549L30.1433 10.8113C30.5124 11.1804 30.7156 11.6709 30.7156 12.1925C30.7156 12.7141 30.5124 13.2046 30.1432 13.5737C29.382 14.3351 28.1431 14.3351 27.3819 13.5737L19.0956 5.28741C19.0954 5.28722 19.0954 5.28712 19.0952 5.28692C18.3337 4.52559 18.3337 3.28682 19.0952 2.52549ZM13.5716 30.1454C12.8101 30.9069 11.5707 30.907 10.8092 30.1454L2.52335 21.8595C1.76172 21.0979 1.76172 19.8588 2.52335 19.0971C2.89171 18.7286 3.38214 18.5257 3.90401 18.5257C4.42579 18.5257 4.91593 18.7286 5.28419 19.0967L13.5715 27.384C14.333 28.1453 14.333 29.3841 13.5716 30.1454ZM17.6831 23.2723L14.9526 26.003L6.66583 17.7162L17.714 6.66788L26.0006 14.9546L23.2651 17.6903C23.2562 17.6987 23.2475 17.7069 23.2381 17.7161L17.7168 23.2375C17.7054 23.2488 17.6944 23.2605 17.6831 23.2723ZM21.1701 25.3095C21.1681 25.3115 21.1663 25.3133 21.1643 25.3153L20.4766 26.003C20.2921 26.1874 20.0469 26.2889 19.7858 26.2889C19.5247 26.2889 19.2794 26.1874 19.0951 26.0029C18.9104 25.8183 18.8087 25.5728 18.8087 25.3116C18.8087 25.0559 18.9063 24.8154 19.0833 24.6339L24.6303 19.087C25.0105 18.7172 25.6252 18.7218 26.0008 19.0971C26.1854 19.2817 26.2871 19.5272 26.2871 19.7884C26.2871 20.0495 26.1857 20.2943 26.0007 20.4788L25.317 21.1624C25.3124 21.167 25.3077 21.1717 25.3031 21.1764L21.1701 25.3095ZM23.1923 26.0493L26.0464 23.1952L38.1306 33.7357L33.7211 38.1454L23.1923 26.0493ZM35.0063 39.6221L39.6058 35.0225L41.0811 36.3094L36.2916 41.099L35.0063 39.6221ZM47.5778 45.9704C46.9476 47.0957 45.882 47.8384 44.6544 48.0083C43.4296 48.1778 42.2262 47.7744 41.3529 46.9016C41.2778 46.8266 41.2059 46.7483 41.139 46.669C41.1358 46.6653 41.1327 46.6616 41.1295 46.658L37.5767 42.5758L42.5563 37.5961L46.6335 41.1524C46.6365 41.1552 46.6396 41.1578 46.6429 41.1605C46.948 41.42 47.2188 41.7316 47.4486 42.0877C48.1871 43.2288 48.2389 44.7893 47.5778 45.9704Z" fill="white"/>
<path d="M18.4081 10.121C18.0266 9.73962 17.4085 9.73962 17.027 10.121L12.8837 14.2643C12.5023 14.6457 12.5023 15.264 12.8837 15.6453C13.0744 15.836 13.3243 15.9313 13.5742 15.9313C13.8241 15.9313 14.074 15.8359 14.2647 15.6453L18.4081 11.5019C18.7894 11.1207 18.7894 10.5024 18.4081 10.121Z" fill="white"/>
</g>
<defs>
<clipPath id="clip0_470_47">
<rect width="50" height="50" fill="white"/>
</clipPath>
</defs>
</svg>
