<svg width="21" height="21" viewBox="0 0 21 21" fill="none" xmlns="http://www.w3.org/2000/svg">
<g clip-path="url(#clip0_335_10399)">
<path d="M10.7617 20.2207C16.275 20.2207 20.7617 15.734 20.7617 10.2207C20.7617 4.70738 16.2751 0.220703 10.7617 0.220703C5.24834 0.220703 0.761719 4.70738 0.761719 10.2207C0.761719 15.734 5.2484 20.2207 10.7617 20.2207ZM10.7617 1.55401C15.5417 1.55401 19.4284 5.44067 19.4284 10.2207C19.4284 15.0007 15.5418 18.8874 10.7617 18.8874C5.98168 18.8874 2.09503 15.0007 2.09503 10.2207C2.09503 5.44067 5.98174 1.55401 10.7617 1.55401Z" fill="url(#paint0_linear_335_10399)"/>
<path d="M13.6781 13.4074C13.8014 13.5073 13.948 13.554 14.0947 13.554C14.2914 13.554 14.4847 13.4674 14.6147 13.3041C14.8447 13.0174 14.798 12.5974 14.5114 12.3674L11.428 9.90069V4.88736C11.428 4.52069 11.1281 4.2207 10.7614 4.2207C10.3947 4.2207 10.0947 4.52069 10.0947 4.88736V10.2207C10.0947 10.4241 10.1881 10.6141 10.3447 10.7407L13.6781 13.4074Z" fill="url(#paint1_linear_335_10399)"/>
</g>
<defs>
<linearGradient id="paint0_linear_335_10399" x1="0.761719" y1="10.2207" x2="20.7617" y2="10.2207" gradientUnits="userSpaceOnUse">
<stop stop-color="#1956C1"/>
<stop offset="1" stop-color="#E2403B"/>
</linearGradient>
<linearGradient id="paint1_linear_335_10399" x1="10.0947" y1="8.88738" x2="14.7608" y2="8.88738" gradientUnits="userSpaceOnUse">
<stop stop-color="#1956C1"/>
<stop offset="1" stop-color="#E2403B"/>
</linearGradient>
<clipPath id="clip0_335_10399">
<rect width="20" height="20" fill="white" transform="translate(0.761719 0.220703)"/>
</clipPath>
</defs>
</svg>
