<svg width="21" height="21" viewBox="0 0 21 21" fill="none" xmlns="http://www.w3.org/2000/svg">
<path d="M13.4448 10.2778L9.90326 13.8194L8.07861 11.9948C7.83447 11.7506 7.43896 11.7506 7.19482 11.9948C6.95068 12.2389 6.95068 12.6344 7.19482 12.8785L9.46136 15.1451C9.58344 15.2672 9.74335 15.3282 9.90326 15.3282C10.0632 15.3282 10.2231 15.2672 10.3452 15.1451L14.3286 11.1616C14.5728 10.9175 14.5728 10.522 14.3286 10.2778C14.0845 10.0337 13.689 10.0337 13.4448 10.2778Z" fill="url(#paint0_linear_335_10383)"/>
<path d="M16.3867 2.69568H15.4492V2.0957C15.4492 1.75055 15.1694 1.4707 14.8242 1.4707C14.4791 1.4707 14.1992 1.75055 14.1992 2.0957V2.69568H7.32422V2.0957C7.32422 1.75055 7.04437 1.4707 6.69922 1.4707C6.35406 1.4707 6.07422 1.75055 6.07422 2.0957V2.69568H5.13672C3.4137 2.69568 2.01172 4.09766 2.01172 5.82068V15.8457C2.01172 17.5687 3.4137 18.9707 5.13672 18.9707H16.3867C18.1097 18.9707 19.5117 17.5687 19.5117 15.8457V5.82068C19.5117 4.09766 18.1097 2.69568 16.3867 2.69568ZM3.26172 5.82068C3.26172 4.78674 4.10278 3.94568 5.13672 3.94568H6.07422V4.54535C6.07422 4.8905 6.35406 5.17035 6.69922 5.17035C7.04437 5.17035 7.32422 4.8905 7.32422 4.54535V3.94568H14.1992V4.54535C14.1992 4.8905 14.4791 5.17035 14.8242 5.17035C15.1694 5.17035 15.4492 4.8905 15.4492 4.54535V3.94568H16.3867C17.4207 3.94568 18.2617 4.78674 18.2617 5.82068V6.45178H3.26172V5.82068ZM16.3867 17.7207H5.13672C4.10278 17.7207 3.26172 16.8796 3.26172 15.8457V7.70178H18.2617V15.8457C18.2617 16.8796 17.4207 17.7207 16.3867 17.7207Z" fill="url(#paint1_linear_335_10383)"/>
<defs>
<linearGradient id="paint0_linear_335_10383" x1="7.01172" y1="12.7115" x2="14.5117" y2="12.7115" gradientUnits="userSpaceOnUse">
<stop stop-color="#1956C1"/>
<stop offset="1" stop-color="#E2403B"/>
</linearGradient>
<linearGradient id="paint1_linear_335_10383" x1="2.01172" y1="10.2207" x2="19.5117" y2="10.2207" gradientUnits="userSpaceOnUse">
<stop stop-color="#1956C1"/>
<stop offset="1" stop-color="#E2403B"/>
</linearGradient>
</defs>
</svg>
