<svg width="50" height="51" viewBox="0 0 50 51" fill="none" xmlns="http://www.w3.org/2000/svg">
<path d="M38.3335 20.5705C38.3335 13.2189 32.3519 7.2373 25.0002 7.2373C17.6486 7.2373 11.667 13.2189 11.667 20.5705C11.667 27.9222 17.6486 33.9038 25.0002 33.9038C32.3519 33.9038 38.3335 27.9222 38.3335 20.5705ZM25.0002 32.2371C18.5669 32.2371 13.3336 27.0038 13.3336 20.5705C13.3336 14.1373 18.5669 8.90396 25.0002 8.90396C31.4335 8.90396 36.6668 14.1373 36.6668 20.5705C36.6668 27.0038 31.4335 32.2371 25.0002 32.2371Z" fill="url(#paint0_linear_335_9791)"/>
<path d="M49.8047 39.8234L41.1806 29.546C41.3022 28.7943 41.4447 28.0902 41.6956 27.4852C41.9989 26.7527 42.5514 26.0119 43.1372 25.2294C44.1347 23.8927 45.2664 22.3794 45.2664 20.5702C45.2664 18.7611 44.1356 17.2469 43.1364 15.9103C42.5514 15.1269 41.9989 14.3869 41.6956 13.6545C41.3706 12.8728 41.2272 11.9261 41.0764 10.9236C40.8189 9.22198 40.5531 7.462 39.3306 6.2395C38.1081 5.01701 36.3473 4.75118 34.6448 4.49285C33.6431 4.34118 32.6965 4.19785 31.9156 3.87452C31.1831 3.57119 30.4431 3.01786 29.6598 2.43286C28.3232 1.43537 26.8098 0.303711 24.9999 0.303711C23.1899 0.303711 21.6757 1.43454 20.3399 2.4337C19.5566 3.01869 18.8174 3.57119 18.0849 3.87452C17.3032 4.19868 16.3566 4.34202 15.3549 4.49285C13.6524 4.75118 11.8916 5.01701 10.6691 6.2395C9.44663 7.462 9.1808 9.22198 8.9233 10.9236C8.77163 11.9261 8.6283 12.8728 8.30413 13.6545C8.0008 14.3869 7.44831 15.1269 6.86331 15.9094C5.86498 17.2461 4.73416 18.7603 4.73416 20.5702C4.73416 22.3802 5.86498 23.8936 6.86331 25.2302C7.44831 26.0127 8.0008 26.7527 8.30413 27.4852C8.55497 28.0902 8.69747 28.7943 8.81913 29.5452L0.195023 39.8234C-0.00497554 40.0618 -0.0558086 40.3918 0.0641906 40.6793C0.18419 40.9668 0.453355 41.1626 0.764186 41.1884L8.82163 41.8651L10.8866 49.6834C10.9658 49.9834 11.2066 50.2159 11.5108 50.2834C11.8108 50.3517 12.1308 50.245 12.3308 50.0059L21.2532 39.3726C22.3607 40.1484 23.5899 40.8368 25.0007 40.8368C26.4115 40.8368 27.6407 40.1484 28.7482 39.3718L37.6706 50.005C37.8706 50.2442 38.1906 50.3509 38.4898 50.2825C38.7939 50.215 39.0339 49.9834 39.1139 49.6825L41.1797 41.8643L49.2372 41.1876C49.5472 41.1618 49.8164 40.9651 49.9364 40.6784C50.0564 40.3901 50.0055 40.0609 49.8055 39.8226L49.8047 39.8234ZM12.0874 47.7026L10.2825 40.8709C10.1925 40.5309 9.89829 40.2834 9.54663 40.2543L2.50584 39.6634L9.17913 31.7102C9.42246 32.9018 9.80579 34.0368 10.67 34.901C11.8924 36.1235 13.6524 36.3893 15.3541 36.6476C16.3566 36.7993 17.3032 36.9426 18.0849 37.2668C18.6799 37.5135 19.2816 37.9268 19.9057 38.386L12.0874 47.7026ZM21.3382 37.3726C20.5074 36.7526 19.6491 36.1101 18.7241 35.7268C17.7541 35.3251 16.6607 35.1593 15.6041 34.9993C14.1024 34.7726 12.6841 34.5576 11.8491 33.7226C11.0141 32.8877 10.8 31.4693 10.5725 29.9668C10.4125 28.9093 10.2475 27.8177 9.84496 26.8477C9.46163 25.9227 8.81996 25.0635 8.19913 24.2327C7.27497 22.9952 6.40165 21.8261 6.40165 20.5702C6.40165 19.3144 7.27498 18.1453 8.19997 16.9069C8.8208 16.0761 9.46163 15.2178 9.84579 14.2919C10.2475 13.3228 10.4133 12.2286 10.5733 11.1728C10.8 9.67031 11.0149 8.25199 11.8499 7.417C12.6849 6.582 14.1041 6.367 15.6066 6.14034C16.6632 5.98117 17.7557 5.81534 18.7257 5.41368C19.6507 5.02951 20.5091 4.38868 21.3399 3.76785C22.5774 2.84286 23.7474 1.96953 25.0032 1.96953C26.259 1.96953 27.4282 2.84286 28.6657 3.76702C29.4965 4.38785 30.3556 5.02951 31.2815 5.41368C32.2506 5.81534 33.344 5.98117 34.3998 6.14034C35.9023 6.367 37.3214 6.582 38.1564 7.417C38.9914 8.25199 39.2056 9.67031 39.4323 11.172C39.5923 12.2295 39.7581 13.322 40.1598 14.2919C40.5431 15.2169 41.1847 16.0769 41.8064 16.9069C42.7306 18.1444 43.6039 19.3144 43.6039 20.5702C43.6039 21.8261 42.7306 22.9944 41.8064 24.2319C41.1856 25.0627 40.5431 25.9219 40.1598 26.8477C39.7581 27.8177 39.5923 28.911 39.4323 29.9668C39.2056 31.4693 38.9906 32.8877 38.1556 33.7226C37.3206 34.5576 35.9023 34.7726 34.4006 34.9993C33.3431 35.1593 32.2506 35.3251 31.2815 35.7268C30.3565 36.1101 29.4965 36.7518 28.6657 37.3735C27.4282 38.2968 26.259 39.1701 25.0032 39.1701C23.7474 39.1701 22.5782 38.2968 21.3407 37.3726H21.3382ZM40.4539 40.2543C40.1031 40.2834 39.8089 40.5309 39.7181 40.8709L37.9139 47.7026L30.0948 38.3851C30.719 37.926 31.3206 37.5126 31.9165 37.266C32.6981 36.941 33.6448 36.7976 34.6465 36.6468C36.3489 36.3885 38.1081 36.1226 39.3306 34.9001C40.1948 34.036 40.5781 32.9002 40.8214 31.7085L47.4955 39.6618L40.4539 40.2526V40.2543Z" fill="url(#paint1_linear_335_9791)"/>
<path d="M33.2927 18.6289C33.1944 18.3273 32.9336 18.1073 32.6194 18.0614L27.8711 17.3706L25.747 13.0681C25.4661 12.4981 24.5336 12.4981 24.2528 13.0681L22.1287 17.3706L17.3795 18.0614C17.0662 18.1073 16.8054 18.3264 16.707 18.6289C16.6087 18.9297 16.6904 19.2614 16.9179 19.4822L20.3537 22.8322L19.542 27.5622C19.4887 27.8747 19.617 28.1905 19.8737 28.3772C20.1312 28.5647 20.4703 28.5888 20.7512 28.4405L24.9986 26.2072L29.2461 28.4405C29.5269 28.588 29.8661 28.5647 30.1244 28.3772C30.3811 28.1905 30.5094 27.8747 30.4553 27.5622L29.6436 22.8322L33.0802 19.4822C33.3069 19.2606 33.3886 18.9297 33.2911 18.6289H33.2927ZM28.1686 21.9447C27.9728 22.1356 27.8828 22.4122 27.9295 22.6822L28.5294 26.1797L25.3886 24.5289C25.267 24.4647 25.1336 24.433 25.0011 24.433C24.8686 24.433 24.7345 24.4647 24.6136 24.5289L21.4728 26.1797L22.0728 22.6822C22.1187 22.4122 22.0295 22.1364 21.8328 21.9447L19.292 19.4681L22.8037 18.9572C23.0753 18.9181 23.3095 18.7472 23.4303 18.5014L25.0011 15.3206L26.572 18.5014C26.6936 18.7472 26.9278 18.9181 27.1995 18.9572L30.7103 19.4681L28.1695 21.9447H28.1686Z" fill="url(#paint2_linear_335_9791)"/>
<defs>
<linearGradient id="paint0_linear_335_9791" x1="11.667" y1="20.5705" x2="38.3335" y2="20.5705" gradientUnits="userSpaceOnUse">
<stop stop-color="#1956C1"/>
<stop offset="1" stop-color="#E2403B"/>
</linearGradient>
<linearGradient id="paint1_linear_335_9791" x1="0" y1="25.3037" x2="50.0005" y2="25.3037" gradientUnits="userSpaceOnUse">
<stop stop-color="#1956C1"/>
<stop offset="1" stop-color="#E2403B"/>
</linearGradient>
<linearGradient id="paint2_linear_335_9791" x1="16.666" y1="20.5888" x2="33.3316" y2="20.5888" gradientUnits="userSpaceOnUse">
<stop stop-color="#1956C1"/>
<stop offset="1" stop-color="#E2403B"/>
</linearGradient>
</defs>
</svg>
