<svg width="50" height="51" viewBox="0 0 50 51" fill="none" xmlns="http://www.w3.org/2000/svg">
<g clip-path="url(#clip0_335_9810)">
<path d="M24.9997 13.9025L30.9366 8.95514H38.7093V0.890625H19.3545V8.95514H24.9997V13.9025ZM20.9674 7.34224V2.50353H37.0964V7.34224H30.353L26.6126 10.4594V7.34224H20.9674Z" fill="url(#paint0_linear_335_9810)"/>
<path d="M22.5811 4.11621H24.194V5.72911H22.5811V4.11621Z" fill="url(#paint1_linear_335_9810)"/>
<path d="M25.8066 4.11621H32.2583V5.72911H25.8066V4.11621Z" fill="url(#paint2_linear_335_9810)"/>
<path d="M33.8711 4.11621H35.484V5.72911H33.8711V4.11621Z" fill="url(#paint3_linear_335_9810)"/>
<path d="M41.0522 49.2776L40.4002 42.7492C43.0928 42.3236 45.1613 39.992 45.1613 37.1809V26.697H41.9355V25.5826C41.9355 24.4863 41.333 23.5019 40.3643 22.9971C41.3275 22.1123 41.9355 20.8471 41.9355 19.4389V17.826C41.9355 15.1574 39.7654 12.9873 37.0968 12.9873C34.4282 12.9873 32.2581 15.1574 32.2581 17.826V19.4389C32.2581 21.5267 33.5894 23.3042 35.4461 23.9815L31.1177 28.3099H26.5952C26.505 26.9655 25.5816 25.7937 24.2735 25.4196L20.9677 24.4761V23.0357C21.9549 22.1493 22.5806 20.8679 22.5806 19.4389V17.826C22.5806 15.1574 20.4106 12.9873 17.7419 12.9873C15.0733 12.9873 12.9032 15.1574 12.9032 17.826V19.4389C12.9032 20.8671 13.5289 22.1485 14.5161 23.0357V24.4769L11.2104 25.4204C9.83296 25.813 8.87097 27.0888 8.87097 28.5221V31.5357H5.64516V36.3744H7.25807V49.2776H0V50.8905H50V49.2776H41.0522ZM33.871 36.3744V32.6761L39.5854 26.9616C39.9985 26.5485 40.2442 25.9937 40.2994 25.4149C40.3064 25.4712 40.3226 25.5243 40.3226 25.5826V35.568C40.3226 36.9017 39.2369 37.9873 37.9032 37.9873H31.4516V36.3744H33.871ZM31.4516 42.826H35.5607L36.2057 49.2776H31.4516V42.826ZM37.1814 42.826H38.7865L39.4315 49.2776H37.8264L37.1814 42.826ZM41.9355 35.568V28.3099H43.5484V37.1809C43.5484 39.4041 41.7394 41.2131 39.5161 41.2131H31.4516V39.6002H37.9032C40.1265 39.6002 41.9355 37.7912 41.9355 35.568ZM33.871 19.4389V17.826C33.871 16.0469 35.3177 14.6002 37.0968 14.6002C38.8759 14.6002 40.3226 16.0469 40.3226 17.826V19.4389C40.3226 21.218 38.8759 22.6647 37.0968 22.6647C35.3177 22.6647 33.871 21.218 33.871 19.4389ZM31.7855 29.9228L37.1661 24.5422C37.3346 24.3737 37.5677 24.2776 37.8056 24.2776C38.3041 24.2776 38.7097 24.6832 38.7097 25.1817C38.7097 25.4196 38.6136 25.6527 38.4451 25.8212L32.7306 31.5357H24.1936C23.7486 31.5357 23.3871 31.1742 23.3871 30.7292C23.3871 30.2843 23.7486 29.9228 24.1936 29.9228H31.7855ZM14.5161 17.826C14.5161 16.0469 15.9629 14.6002 17.7419 14.6002C19.521 14.6002 20.9677 16.0469 20.9677 17.826V19.4389C20.9677 21.218 19.521 22.6647 17.7419 22.6647C15.9629 22.6647 14.5161 21.218 14.5161 19.4389V17.826ZM17.7419 24.2776C18.3082 24.2776 18.8492 24.1745 19.3548 23.9953V24.8616C19.1548 25.1703 18.5992 25.8905 17.7419 25.8905C16.8847 25.8905 16.3291 25.1703 16.129 24.8616V23.9953C16.6346 24.1745 17.1757 24.2776 17.7419 24.2776ZM10.4839 28.5221C10.4839 27.8051 10.9655 27.1679 11.6534 26.9711L14.9757 26.0221C15.4435 26.6316 16.3539 27.5034 17.7419 27.5034C19.13 27.5034 20.0404 26.6316 20.5082 26.0213L23.8305 26.9703C24.4483 27.1471 24.8791 27.6842 24.9653 28.3091H24.1936C22.8598 28.3091 21.7742 29.3947 21.7742 30.7285C21.7742 31.0124 21.8321 31.2817 21.9226 31.5349H10.4839V28.5221ZM7.25807 33.1486H32.2581V34.7615H7.25807V33.1486ZM8.87097 39.6002H11.2903V37.9873H8.87097V36.3744H29.8387V37.9873H12.9032V39.6002H29.8387V49.2776H27.9179L26.305 46.0518H12.4047L10.7918 49.2776H8.87097V39.6002ZM26.1144 49.2776H12.5953L13.4017 47.6647H25.3079L26.1144 49.2776Z" fill="url(#paint4_linear_335_9810)"/>
</g>
<defs>
<linearGradient id="paint0_linear_335_9810" x1="19.3545" y1="7.39658" x2="38.7093" y2="7.39658" gradientUnits="userSpaceOnUse">
<stop stop-color="#1956C1"/>
<stop offset="1" stop-color="#E2403B"/>
</linearGradient>
<linearGradient id="paint1_linear_335_9810" x1="22.5811" y1="4.92266" x2="24.194" y2="4.92266" gradientUnits="userSpaceOnUse">
<stop stop-color="#1956C1"/>
<stop offset="1" stop-color="#E2403B"/>
</linearGradient>
<linearGradient id="paint2_linear_335_9810" x1="25.8066" y1="4.92266" x2="32.2583" y2="4.92266" gradientUnits="userSpaceOnUse">
<stop stop-color="#1956C1"/>
<stop offset="1" stop-color="#E2403B"/>
</linearGradient>
<linearGradient id="paint3_linear_335_9810" x1="33.8711" y1="4.92266" x2="35.484" y2="4.92266" gradientUnits="userSpaceOnUse">
<stop stop-color="#1956C1"/>
<stop offset="1" stop-color="#E2403B"/>
</linearGradient>
<linearGradient id="paint4_linear_335_9810" x1="0" y1="31.9389" x2="50" y2="31.9389" gradientUnits="userSpaceOnUse">
<stop stop-color="#1956C1"/>
<stop offset="1" stop-color="#E2403B"/>
</linearGradient>
<clipPath id="clip0_335_9810">
<rect width="50" height="50" fill="white" transform="translate(0 0.890625)"/>
</clipPath>
</defs>
</svg>
