<svg width="50" height="51" viewBox="0 0 50 51" fill="none" xmlns="http://www.w3.org/2000/svg">
<g clip-path="url(#clip0_335_18097)">
<path fill-rule="evenodd" clip-rule="evenodd" d="M25.0002 12.0571C32.5289 12.0571 38.6306 18.1589 38.6306 25.6875C38.6306 33.2161 32.5289 39.3179 25.0002 39.3179C17.4716 39.3179 11.3699 33.2161 11.3699 25.6875C11.3699 18.1589 17.4716 12.0571 25.0002 12.0571ZM34.3906 33.2589C36.0616 31.189 37.062 28.5553 37.062 25.6875C37.062 19.0252 31.6625 13.6257 25.0002 13.6257C18.338 13.6257 12.9385 19.0252 12.9385 25.6875C12.9385 28.5553 13.9389 31.189 15.6099 33.2589C16.4765 30.1692 18.8262 27.6993 21.8417 26.6667C20.5318 25.6952 19.6793 24.1382 19.6793 22.3909C19.6793 19.4635 22.0728 17.07 25.0002 17.07C27.9277 17.07 30.3212 19.4635 30.3212 22.3909C30.3212 24.1382 29.4687 25.6952 28.1588 26.6667C31.1743 27.6993 33.524 30.1692 34.3906 33.2589ZM16.9133 34.6373C19.0526 36.5715 21.8887 37.7493 25.0002 37.7493C28.1118 37.7493 30.9479 36.5715 33.0872 34.6373C32.481 30.7153 29.0902 27.7119 25.0002 27.7119C20.9103 27.7119 17.5195 30.7153 16.9133 34.6373ZM25.0002 26.1433C27.0647 26.1433 28.7526 24.4554 28.7526 22.3909C28.7526 20.3265 27.0647 18.6386 25.0002 18.6386C22.9358 18.6386 21.2479 20.3265 21.2479 22.3909C21.2479 24.4554 22.9358 26.1433 25.0002 26.1433ZM47.732 26.4718H43.228L43.8553 27.2161C44.1342 27.5471 44.0919 28.0423 43.7608 28.3213C43.4299 28.6003 42.9347 28.558 42.6557 28.227L40.9416 26.1929C40.6954 25.9009 40.6954 25.4741 40.9416 25.1821L42.6557 23.148C42.9347 22.817 43.4299 22.7748 43.7608 23.0537C44.0919 23.3327 44.1342 23.8279 43.8553 24.1589L43.228 24.9032H48.5297C48.9625 24.9032 49.314 25.2547 49.314 25.6875C49.314 37.4976 40.8751 47.352 29.7037 49.5456C29.279 49.6291 28.8664 49.3519 28.783 48.9272C28.6996 48.5024 28.9767 48.0899 29.4014 48.0064C39.6035 46.0032 47.3688 37.1695 47.732 26.4718ZM24.2159 7.45976V2.15809C24.2159 1.72525 24.5674 1.37378 25.0002 1.37378C36.8103 1.37378 46.6648 9.8127 48.8584 20.9841C48.9418 21.4088 48.6647 21.8213 48.24 21.9048C47.8152 21.9882 47.4026 21.711 47.3192 21.2863C45.3159 11.0843 36.4822 3.31898 25.7846 2.95574V7.45976L26.5289 6.8325C26.8599 6.55358 27.3551 6.59584 27.6341 6.92692C27.913 7.2579 27.8707 7.75309 27.5398 8.03201L25.5056 9.74613C25.2137 9.99231 24.7868 9.99231 24.4949 9.74613L22.4607 8.03201C22.1298 7.75309 22.0875 7.2579 22.3664 6.92692C22.6454 6.59584 23.1406 6.55358 23.4716 6.8325L24.2159 7.45976ZM2.26848 24.9032H6.7725L6.14525 24.1589C5.86633 23.8279 5.90858 23.3327 6.23966 23.0537C6.57064 22.7748 7.06584 22.817 7.34476 23.148L9.05888 25.1821C9.30505 25.4741 9.30505 25.9009 9.05888 26.1929L7.34476 28.227C7.06584 28.558 6.57064 28.6003 6.23966 28.3213C5.90858 28.0423 5.86633 27.5471 6.14525 27.2161L6.7725 26.4718H1.47084C1.03799 26.4718 0.686523 26.1203 0.686523 25.6875C0.686523 13.8774 9.12544 4.02299 20.2968 1.82937C20.7215 1.74594 21.1341 2.02309 21.2175 2.4478C21.3009 2.8726 21.0238 3.28515 20.599 3.36858C10.397 5.37182 2.63172 14.2055 2.26848 24.9032ZM24.2159 48.4193V43.9153L23.4716 44.5425C23.1406 44.8214 22.6454 44.7792 22.3664 44.4481C22.0875 44.1171 22.1298 43.6219 22.4607 43.343L24.4949 41.6289C24.7868 41.3827 25.2137 41.3827 25.5056 41.6289L27.5398 43.343C27.8707 43.6219 27.913 44.1171 27.6341 44.4481C27.3551 44.7792 26.8599 44.8214 26.5289 44.5425L25.7846 43.9153V49.2169C25.7846 49.6498 25.4331 50.0012 25.0002 50.0012C13.1902 50.0012 3.33574 41.5623 1.14211 30.3909C1.05868 29.9662 1.33584 29.5537 1.76054 29.4703C2.18535 29.3868 2.5979 29.664 2.68133 30.0887C4.68456 40.2907 13.5183 48.056 24.2159 48.4193Z" fill="url(#paint0_linear_335_18097)"/>
</g>
<defs>
<linearGradient id="paint0_linear_335_18097" x1="0.686523" y1="25.6875" x2="49.314" y2="25.6875" gradientUnits="userSpaceOnUse">
<stop stop-color="#1956C1"/>
<stop offset="1" stop-color="#E2403B"/>
</linearGradient>
<clipPath id="clip0_335_18097">
<rect width="50" height="50" fill="white" transform="translate(0 0.6875)"/>
</clipPath>
</defs>
</svg>
