<svg width="21" height="21" viewBox="0 0 21 21" fill="none" xmlns="http://www.w3.org/2000/svg">
<g clip-path="url(#clip0_335_10388)">
<path d="M20.7336 11.353C20.7336 11.3529 20.7336 11.3529 20.7336 11.3528L16.9575 1.87135C16.8773 1.66989 16.649 1.57155 16.4475 1.65169C16.4474 1.65174 16.4472 1.65178 16.4471 1.65188L1.12802 7.75179C1.06555 7.77878 1.01137 7.82187 0.970977 7.87664C0.843577 7.94284 0.763093 8.07387 0.761719 8.21742V18.4252C0.761719 18.642 0.937508 18.8178 1.15432 18.8178H17.6437C17.8606 18.8178 18.0364 18.642 18.0364 18.4252V12.8502L20.5145 11.8632C20.7159 11.7828 20.814 11.5544 20.7336 11.353ZM17.2511 18.0326H1.54693V8.61003H17.2511V18.0326ZM7.31234 7.82678L13.8861 5.20732C14.4728 5.824 15.2858 6.1745 16.1369 6.17784L16.7926 7.82678H7.31234ZM18.0364 12.0068V8.21742C18.0364 8.00061 17.8606 7.82482 17.6437 7.82482H17.6375L16.8055 5.73537C16.7963 5.71795 16.7856 5.70136 16.7733 5.6859C16.7312 5.49681 16.5561 5.36779 16.3631 5.3836C15.5711 5.45579 14.7963 5.12217 14.3046 4.49709C14.1823 4.34609 13.9672 4.30854 13.8009 4.40915C13.7823 4.41136 13.7638 4.41479 13.7456 4.41936L5.71993 7.61517C5.62281 7.65325 5.54512 7.72878 5.50439 7.82482H3.0671L16.3733 2.52661L19.8592 11.2797L18.0364 12.0068Z" fill="url(#paint0_linear_335_10388)"/>
<path d="M2.61235 15.3821C3.37459 15.6074 3.97106 16.2031 4.1973 16.9651C4.24691 17.1314 4.39988 17.2454 4.57341 17.2454C4.59378 17.2441 4.614 17.2411 4.63388 17.2364C4.65149 17.2414 4.6695 17.2451 4.68766 17.2474H14.1102C14.1264 17.2453 14.1424 17.242 14.1581 17.2376C14.3542 17.2853 14.5519 17.165 14.5997 16.9688C14.5998 16.9681 14.6 16.9674 14.6002 16.9667C14.8258 16.2039 15.4224 15.6074 16.1851 15.3817C16.3701 15.3252 16.485 15.1408 16.4544 14.9498C16.4597 14.9308 16.4635 14.9114 16.4658 14.8917V11.7509C16.4635 11.7312 16.4596 11.7118 16.454 11.6928C16.4848 11.5017 16.3698 11.3173 16.1847 11.2609C15.422 11.0353 14.8256 10.4385 14.6006 9.67558C14.5437 9.48934 14.3576 9.37411 14.1655 9.40626C14.1474 9.4012 14.1289 9.39752 14.1102 9.39526H4.68766C4.66789 9.39762 4.6483 9.40154 4.62916 9.40704C4.43821 9.37661 4.25398 9.4915 4.1973 9.67637C3.9715 10.439 3.37499 11.0353 2.61235 11.2609C2.42739 11.3175 2.31245 11.5018 2.34302 11.6928C2.33792 11.7119 2.33424 11.7313 2.33203 11.7509V14.8917C2.33429 14.9102 2.33797 14.9284 2.34302 14.9463C2.31083 15.1385 2.42601 15.3249 2.61235 15.3821ZM3.11724 11.9103C3.90559 11.5937 4.53042 10.9688 4.84706 10.1805H13.9504C14.2672 10.9688 14.8922 11.5937 15.6806 11.9103V14.7323C14.8925 15.0493 14.2678 15.6741 13.9508 16.4622H4.84706C4.53008 15.6741 3.90535 15.0493 3.11724 14.7323V11.9103Z" fill="url(#paint1_linear_335_10388)"/>
<path d="M9.3986 15.6768C10.6996 15.6768 11.7542 14.6222 11.7542 13.3212C11.7542 12.0202 10.6996 10.9656 9.3986 10.9656C8.0976 10.9656 7.04297 12.0202 7.04297 13.3212C7.04424 14.6217 8.09814 15.6756 9.3986 15.6768ZM9.3986 11.7508C10.2659 11.7508 10.969 12.4539 10.969 13.3212C10.969 14.1885 10.2659 14.8916 9.3986 14.8916C8.53129 14.8916 7.82818 14.1885 7.82818 13.3212C7.82818 12.4539 8.53129 11.7508 9.3986 11.7508Z" fill="url(#paint2_linear_335_10388)"/>
<path d="M5.08012 13.9102C5.40534 13.9102 5.66903 13.6466 5.66903 13.3213C5.66903 12.9961 5.40534 12.7324 5.08012 12.7324C4.75489 12.7324 4.49121 12.9961 4.49121 13.3213C4.49121 13.6466 4.75489 13.9102 5.08012 13.9102ZM5.08012 13.125C5.18853 13.125 5.27642 13.2129 5.27642 13.3213C5.27642 13.4297 5.18853 13.5176 5.08012 13.5176C4.97171 13.5176 4.88382 13.4297 4.88382 13.3213C4.88382 13.2129 4.97171 13.125 5.08012 13.125Z" fill="url(#paint3_linear_335_10388)"/>
<path d="M13.7178 13.9102C14.043 13.9102 14.3067 13.6466 14.3067 13.3213C14.3067 12.9961 14.043 12.7324 13.7178 12.7324C13.3926 12.7324 13.1289 12.9961 13.1289 13.3213C13.1289 13.6466 13.3926 13.9102 13.7178 13.9102ZM13.7178 13.125C13.8262 13.125 13.9141 13.2129 13.9141 13.3213C13.9141 13.4297 13.8262 13.5176 13.7178 13.5176C13.6094 13.5176 13.5215 13.4297 13.5215 13.3213C13.5215 13.2129 13.6094 13.125 13.7178 13.125Z" fill="url(#paint4_linear_335_10388)"/>
</g>
<defs>
<linearGradient id="paint0_linear_335_10388" x1="0.761719" y1="10.2208" x2="20.7617" y2="10.2208" gradientUnits="userSpaceOnUse">
<stop stop-color="#1956C1"/>
<stop offset="1" stop-color="#E2403B"/>
</linearGradient>
<linearGradient id="paint1_linear_335_10388" x1="2.33203" y1="13.3216" x2="16.4658" y2="13.3216" gradientUnits="userSpaceOnUse">
<stop stop-color="#1956C1"/>
<stop offset="1" stop-color="#E2403B"/>
</linearGradient>
<linearGradient id="paint2_linear_335_10388" x1="7.04297" y1="13.3212" x2="11.7542" y2="13.3212" gradientUnits="userSpaceOnUse">
<stop stop-color="#1956C1"/>
<stop offset="1" stop-color="#E2403B"/>
</linearGradient>
<linearGradient id="paint3_linear_335_10388" x1="4.49121" y1="13.3213" x2="5.66903" y2="13.3213" gradientUnits="userSpaceOnUse">
<stop stop-color="#1956C1"/>
<stop offset="1" stop-color="#E2403B"/>
</linearGradient>
<linearGradient id="paint4_linear_335_10388" x1="13.1289" y1="13.3213" x2="14.3067" y2="13.3213" gradientUnits="userSpaceOnUse">
<stop stop-color="#1956C1"/>
<stop offset="1" stop-color="#E2403B"/>
</linearGradient>
<clipPath id="clip0_335_10388">
<rect width="20" height="20" fill="white" transform="translate(0.761719 0.220703)"/>
</clipPath>
</defs>
</svg>
