<svg width="51" height="51" viewBox="0 0 51 51" fill="none" xmlns="http://www.w3.org/2000/svg">
<g clip-path="url(#clip0_335_9770)">
<path d="M32.736 16.4786C27.8734 9.32473 21.3789 5.52254 17.9778 7.85221C17.6033 8.11595 17.2779 8.44323 17.0163 8.81924C17.0163 8.84671 9.14263 24.7808 9.14263 24.7808L4.74703 27.7588C4.07224 28.2169 3.49431 28.8034 3.04626 29.4849C2.5982 30.1663 2.2888 30.9294 2.13573 31.7305C1.98265 32.5316 1.98891 33.355 2.15414 34.1536C2.31936 34.9523 2.64032 35.7106 3.09868 36.3852L3.29648 36.6764C4.22297 38.026 5.64418 38.9559 7.25186 39.2645C8.85954 39.5731 10.5241 39.2354 11.8844 38.3247L18.9448 48.7258C19.9833 50.0061 21.9778 51.2808 24.4393 49.7808C24.8754 49.498 25.2474 49.127 25.5313 48.6917C25.8152 48.2564 26.0047 47.7664 26.0877 47.2533C26.1871 46.743 26.1844 46.218 26.0798 45.7087C25.9751 45.1995 25.7705 44.716 25.4778 44.2863L19.258 35.1104C19.258 35.1104 33.9613 33.9401 34.0163 33.9181C34.4753 33.8221 34.9106 33.6353 35.2965 33.3687C37.0437 32.1819 37.6701 29.6929 37.0657 26.3577C36.5218 23.2863 34.9778 19.8083 32.736 16.4786ZM4.89538 35.594L4.69758 35.3028C4.38134 34.8372 4.16002 34.3138 4.0463 33.7626C3.93257 33.2114 3.92868 32.6432 4.03483 32.0904C4.14099 31.5377 4.35511 31.0114 4.66494 30.5415C4.97477 30.0716 5.37422 29.6675 5.84044 29.3522L9.63714 26.7698L14.6481 34.1489L10.8514 36.7313C10.3857 37.048 9.86223 37.2697 9.3108 37.384C8.75937 37.4982 8.19084 37.5026 7.6377 37.397C7.08455 37.2913 6.55765 37.0777 6.08711 36.7684C5.61657 36.459 5.21161 36.0599 4.89538 35.594ZM23.8954 45.3687C24.1957 45.8155 24.3065 46.3632 24.2035 46.8916C24.1005 47.4201 23.7921 47.886 23.3459 48.1874C22.8982 48.488 22.3497 48.5989 21.8204 48.4959C21.291 48.3929 20.8241 48.0844 20.5218 47.6379L13.4833 37.2698L16.313 35.3467L17.0602 35.2863L23.8954 45.3687ZM16.4668 33.4017L11.0053 25.3577L16.2141 14.7368C16.7196 17.7203 18.1976 21.2643 20.5602 24.7423C22.9229 28.2203 25.6701 30.9017 28.2525 32.4731L16.4668 33.4017ZM32.6756 32.1214C30.0492 31.9511 25.7745 28.9896 22.1536 23.6544C18.5327 18.3192 17.3569 13.2698 18.1646 10.7588C18.3105 10.2875 18.6015 9.8743 18.9962 9.57827C19.3909 9.28224 19.8691 9.11851 20.3624 9.11045C22.9668 9.11045 27.4009 12.0885 31.1262 17.5775C33.2251 20.6654 34.7525 23.8962 35.1701 26.7203C35.9888 32.1214 32.6756 32.1214 32.6756 32.1214Z" fill="url(#paint0_linear_335_9770)"/>
<path d="M25.8682 16.6817C25.1952 16.5495 24.5025 16.5528 23.8308 16.6915C23.1591 16.8302 22.5218 17.1014 21.9561 17.4893C21.8519 17.5615 21.7628 17.6535 21.6941 17.76C21.6254 17.8666 21.5783 17.9857 21.5556 18.1104C21.5329 18.2352 21.535 18.3632 21.5618 18.4871C21.5886 18.611 21.6395 18.7285 21.7116 18.8328C21.7838 18.937 21.8758 19.026 21.9823 19.0948C22.0889 19.1635 22.2079 19.2105 22.3327 19.2332C22.4574 19.2559 22.5854 19.2539 22.7094 19.2271C22.8333 19.2003 22.9508 19.1494 23.055 19.0773C23.4133 18.8341 23.8159 18.6639 24.2399 18.5763C24.664 18.4888 25.1011 18.4856 25.5264 18.567C25.9516 18.6483 26.3567 18.8127 26.7184 19.0506C27.0802 19.2885 27.3915 19.5954 27.6347 19.9536C27.8779 20.3119 28.0481 20.7145 28.1356 21.1386C28.2232 21.5626 28.2264 21.9997 28.145 22.425C28.0636 22.8502 27.8993 23.2553 27.6613 23.6171C27.4234 23.9788 27.1166 24.2901 26.7583 24.5333C26.5894 24.65 26.4622 24.8176 26.3955 25.0117C26.3287 25.2059 26.3258 25.4163 26.3872 25.6121C26.4486 25.808 26.5711 25.9791 26.7367 26.1004C26.9024 26.2216 27.1025 26.2867 27.3078 26.2861C27.5036 26.2897 27.6957 26.2321 27.8572 26.1212C28.7118 25.5423 29.3754 24.7227 29.7638 23.7664C30.1523 22.81 30.2481 21.7599 30.0392 20.749C29.8304 19.7382 29.3261 18.812 28.5905 18.0879C27.8548 17.3639 26.9207 16.8744 25.9067 16.6817H25.8682Z" fill="url(#paint1_linear_335_9770)"/>
<path d="M33.9228 9.79201H34.0162C34.254 9.79191 34.4833 9.70368 34.6599 9.54436C34.8365 9.38504 34.9477 9.16593 34.9722 8.92937L35.714 1.72058C35.7308 1.59311 35.722 1.46355 35.6879 1.33956C35.6538 1.21557 35.5952 1.09968 35.5156 0.998736C35.4359 0.897792 35.3369 0.813849 35.2242 0.751873C35.1115 0.689898 34.9876 0.651148 34.8597 0.637917C34.7318 0.624685 34.6025 0.637242 34.4796 0.674843C34.3566 0.712444 34.2424 0.774325 34.1438 0.856827C34.0452 0.939328 33.9641 1.04077 33.9054 1.15516C33.8466 1.26955 33.8114 1.39455 33.8019 1.52278L33.0656 8.73706C33.0395 8.9906 33.1151 9.24414 33.2758 9.44195C33.4365 9.63977 33.6692 9.76568 33.9228 9.79201Z" fill="url(#paint2_linear_335_9770)"/>
<path d="M46.3514 8.30844C46.2102 8.09562 45.9906 7.94729 45.7405 7.89582C45.4903 7.84435 45.23 7.89392 45.0162 8.03371L38.3184 12.4293C38.1445 12.5442 38.0126 12.7124 37.9426 12.9087C37.8726 13.105 37.8682 13.3187 37.9302 13.5177C37.9922 13.7167 38.1172 13.8901 38.2863 14.0119C38.4554 14.1337 38.6595 14.1973 38.8679 14.1931C39.0623 14.1975 39.2535 14.144 39.4173 14.0392L46.1151 9.6436C46.3229 9.49741 46.4644 9.27492 46.5087 9.02475C46.5529 8.77458 46.4964 8.51706 46.3514 8.30844Z" fill="url(#paint3_linear_335_9770)"/>
<path d="M48.4011 20.0452L40.6099 18.6441C40.3585 18.5989 40.0995 18.6555 39.8898 18.8013C39.6801 18.9471 39.5369 19.1702 39.4917 19.4216C39.4466 19.6729 39.5031 19.932 39.6489 20.1417C39.7947 20.3513 40.0178 20.4945 40.2692 20.5397L48.0549 21.9408H48.2253C48.4703 21.948 48.7087 21.8613 48.892 21.6985C49.0752 21.5357 49.1894 21.3091 49.2111 21.065C49.2329 20.8209 49.1606 20.5776 49.009 20.385C48.8574 20.1924 48.638 20.065 48.3956 20.0287L48.4011 20.0452Z" fill="url(#paint4_linear_335_9770)"/>
</g>
<defs>
<linearGradient id="paint0_linear_335_9770" x1="2.02539" y1="28.8136" x2="37.29" y2="28.8136" gradientUnits="userSpaceOnUse">
<stop stop-color="#1956C1"/>
<stop offset="1" stop-color="#E2403B"/>
</linearGradient>
<linearGradient id="paint1_linear_335_9770" x1="21.54" y1="21.4356" x2="30.1471" y2="21.4356" gradientUnits="userSpaceOnUse">
<stop stop-color="#1956C1"/>
<stop offset="1" stop-color="#E2403B"/>
</linearGradient>
<linearGradient id="paint2_linear_335_9770" x1="33.0605" y1="5.21241" x2="35.7223" y2="5.21241" gradientUnits="userSpaceOnUse">
<stop stop-color="#1956C1"/>
<stop offset="1" stop-color="#E2403B"/>
</linearGradient>
<linearGradient id="paint3_linear_335_9770" x1="37.8867" y1="11.0346" x2="46.5234" y2="11.0346" gradientUnits="userSpaceOnUse">
<stop stop-color="#1956C1"/>
<stop offset="1" stop-color="#E2403B"/>
</linearGradient>
<linearGradient id="paint4_linear_335_9770" x1="39.4766" y1="20.2851" x2="49.2149" y2="20.2851" gradientUnits="userSpaceOnUse">
<stop stop-color="#1956C1"/>
<stop offset="1" stop-color="#E2403B"/>
</linearGradient>
<clipPath id="clip0_335_9770">
<rect width="50" height="50" fill="white" transform="translate(0.5 0.578125)"/>
</clipPath>
</defs>
</svg>
