<svg width="50" height="51" viewBox="0 0 50 51" fill="none" xmlns="http://www.w3.org/2000/svg">
<path d="M17.0383 7.92246C17.1823 8.17168 17.4443 8.31318 17.7154 8.31318C17.8285 8.31318 17.9431 8.28857 18.0513 8.23691C19.869 7.36953 21.8216 6.85136 23.8549 6.69677C24.2623 6.66582 24.577 6.32626 24.577 5.91777V2.25019C24.577 2.03437 24.4877 1.82812 24.3303 1.68046C24.173 1.53281 23.9618 1.45664 23.7461 1.4706C20.874 1.654 18.1135 2.39326 15.5414 3.66787C15.348 3.76367 15.2029 3.93525 15.1404 4.14179C15.0779 4.34834 15.1038 4.57158 15.2116 4.75849L17.0383 7.92246ZM23.0145 3.1V5.20791C21.2888 5.40781 19.6203 5.85048 18.0377 6.52832L16.9896 4.71298C18.9048 3.86035 20.9249 3.31953 23.0145 3.1ZM5.71217 32.7C5.80777 32.8936 5.97936 33.0391 6.18609 33.1018C6.26021 33.1242 6.33658 33.1353 6.41256 33.1353C6.5484 33.1353 6.68326 33.0999 6.80318 33.0307L9.98209 31.1954C10.3351 30.9916 10.4721 30.5506 10.2966 30.1825C9.42701 28.3589 8.90631 26.408 8.74869 24.3842C8.71695 23.9774 8.3777 23.6636 7.96979 23.6636H4.30113C4.08531 23.6636 3.87896 23.7529 3.73131 23.9103C3.58365 24.0678 3.50768 24.2794 3.52154 24.4948C3.70592 27.3696 4.44303 30.1302 5.71217 32.7ZM7.26139 25.226C7.46383 26.9446 7.90865 28.6108 8.58805 30.196L6.75885 31.252C5.90992 29.3381 5.37086 27.3176 5.15113 25.226H7.26139ZM4.30123 22.5292H7.98424C8.38951 22.5292 8.7276 22.2192 8.76256 21.8154C8.93844 19.7867 9.46324 17.8377 10.3224 16.0226C10.4964 15.6549 10.3591 15.2151 10.0069 15.0117L6.80895 13.1654C6.62203 13.0575 6.39869 13.0316 6.19215 13.0942C5.98551 13.1567 5.81393 13.3019 5.71812 13.4953C4.44498 16.0665 3.70602 18.8263 3.52154 21.6978C3.50768 21.9133 3.58365 22.1249 3.73131 22.2823C3.87906 22.4398 4.08531 22.5292 4.30123 22.5292ZM6.76383 14.9436L8.61441 16.012C7.94273 17.5883 7.49586 19.2492 7.28141 20.9667H5.15123C5.37145 18.8776 5.91207 16.8581 6.76383 14.9436ZM48.6304 25.1351C48.4277 24.7173 48.013 24.4578 47.5481 24.4577H46.7786C46.8067 24.0045 46.8209 23.5492 46.8209 23.0964C46.8209 17.5506 44.7275 12.2744 40.9264 8.23984C37.1421 4.22294 32.0337 1.81875 26.5421 1.46992C26.327 1.45644 26.1152 1.53222 25.958 1.67988C25.8006 1.82753 25.7114 2.03378 25.7114 2.24951V5.91806C25.7114 6.32627 26.0255 6.66562 26.4326 6.69697C34.9363 7.35302 41.5976 14.5564 41.5976 23.0963C41.5976 23.5494 41.579 24.005 41.5418 24.4575H41.0421C40.5774 24.4575 40.1627 24.717 39.9599 25.1348C39.7572 25.5524 39.8098 26.0388 40.0973 26.4038L43.3505 30.5359C43.5801 30.8273 43.9245 30.9944 44.2955 30.9943C44.6664 30.9943 45.0106 30.8271 45.24 30.5357L48.493 26.4038C48.7804 26.039 48.8332 25.5527 48.6304 25.1351ZM44.2951 29.2102L41.7837 26.0203H42.2463C42.6406 26.0203 42.973 25.7267 43.0216 25.3354C43.1134 24.5967 43.16 23.8434 43.16 23.0965C43.16 18.5304 41.4485 14.1753 38.3406 10.8336C35.4147 7.6875 31.5077 5.70752 27.2738 5.20957V3.09931C37.424 4.1664 45.2585 12.7936 45.2585 23.0965C45.2585 23.7845 45.2233 24.4787 45.1539 25.1598C45.1315 25.3796 45.2032 25.5987 45.3513 25.7627C45.4995 25.9267 45.7101 26.0203 45.9311 26.0203H46.8067L44.2951 29.2102ZM7.3777 12.1841L10.5646 14.024C10.6874 14.0949 10.8217 14.1288 10.9546 14.1288C11.2054 14.1288 11.4507 14.008 11.6011 13.7869C12.7443 12.1065 14.1656 10.673 15.8254 9.52617C16.1601 9.29482 16.2613 8.84521 16.0578 8.49277L14.2303 5.32763C14.1223 5.14043 13.9415 5.00644 13.731 4.95732C13.5204 4.90839 13.2991 4.94863 13.1195 5.06875C10.7334 6.66435 8.71441 8.68457 7.11852 11.0734C6.9985 11.2531 6.95826 11.4744 7.00729 11.6849C7.0566 11.8954 7.19059 12.0761 7.3777 12.1841ZM13.3031 6.84628L14.3518 8.66279C12.9747 9.69843 11.7605 10.923 10.73 12.3153L8.89596 11.2564C10.1316 9.56054 11.6091 8.08203 13.3031 6.84628ZM36.034 33.316L28.5018 37.7031C28.2153 37.8699 27.9249 37.9986 27.6257 38.0899C27.7174 37.9054 27.7926 37.7058 27.85 37.492C28.2505 35.9968 27.3637 34.4364 25.8311 33.9396C25.7976 33.9288 25.7634 33.9202 25.7289 33.914C23.5734 33.5252 21.4418 32.7545 19.7289 32.1352C19.1316 31.9193 18.5674 31.7153 18.0867 31.5595C16.1161 30.9201 14.3452 31.7055 12.8727 32.5581L7.36754 35.7455L6.89537 34.9111C6.64732 34.4728 6.24225 34.157 5.75484 34.0219C5.26754 33.887 4.75768 33.9491 4.3193 34.1971L2.20592 35.3932C1.29889 35.9065 0.978574 37.0621 1.49186 37.9692L7.70504 48.9475C7.95309 49.3858 8.35816 49.7017 8.84557 49.8367C9.01412 49.8834 9.18531 49.9065 9.35533 49.9065C9.67691 49.9065 9.99439 49.8237 10.2811 49.6615L12.3945 48.4654C12.8328 48.2173 13.1486 47.8123 13.2837 47.3249C13.4188 46.8375 13.3566 46.3276 13.1086 45.8893L12.5231 44.8548L13.663 44.1966L23.265 46.7694C23.8072 46.9147 24.3467 46.987 24.8773 46.987C25.9507 46.987 26.9878 46.6915 27.9358 46.1078L41.6049 37.6909C42.9007 36.8932 43.3139 34.8861 42.4718 33.4803C42.0643 32.7996 40.3952 30.7763 36.034 33.316ZM11.7781 46.9076C11.7644 46.9569 11.7263 47.0482 11.625 47.1057L9.51158 48.3018C9.41031 48.3593 9.31227 48.3448 9.26295 48.331C9.21363 48.3174 9.12232 48.2793 9.0649 48.1779L2.85182 37.1997C2.76432 37.0451 2.82096 36.8405 2.97564 36.753L5.08912 35.5569C5.14547 35.5251 5.20064 35.5153 5.24713 35.5153C5.28424 35.5153 5.31578 35.5215 5.33775 35.5276C5.38707 35.5413 5.47838 35.5794 5.5357 35.6807L11.7489 46.6589C11.8061 46.7603 11.7918 46.8582 11.7781 46.9076ZM40.7858 36.3605L27.1168 44.7773C26.0602 45.4276 24.9004 45.5903 23.6695 45.2602L13.7548 42.6036C13.5546 42.5501 13.3415 42.5781 13.1621 42.6816L11.7535 43.4948L8.13717 37.1052L13.6555 33.9101C14.889 33.1959 16.2212 32.5967 17.6045 33.0455C18.0606 33.1935 18.5875 33.3839 19.1975 33.6045C20.9508 34.2384 23.1293 35.026 25.3941 35.441C26.1196 35.6987 26.5253 36.3985 26.3407 37.0874C26.0974 37.9948 25.3343 38.1077 24.7253 38.0384C23.6225 37.8113 22.5724 37.5116 21.4615 37.1944C20.932 37.0433 20.3845 36.8869 19.8213 36.7359C19.4046 36.6245 18.9762 36.8717 18.8645 37.2884C18.7529 37.7052 19.0003 38.1335 19.417 38.2452C19.9677 38.3928 20.509 38.5474 21.0324 38.6969C22.1841 39.0258 24.4715 39.5812 24.4767 39.582L25.4136 39.7345C26.8413 39.9627 28.1087 39.74 29.288 39.0532L36.8203 34.6661C38.9281 33.4385 40.5397 33.2951 41.1314 34.2831C41.5357 34.9579 41.3613 36.0062 40.7858 36.3605ZM5.64654 37.5789C5.7068 37.9912 5.42145 38.3744 5.00914 38.4347C4.59684 38.4949 4.21363 38.2096 4.15338 37.7972C4.09312 37.3849 4.37848 37.0017 4.79078 36.9414C5.20309 36.8812 5.58619 37.1666 5.64654 37.5789ZM31.7879 15.7757C31.7879 12.6593 29.2524 10.1238 26.136 10.1238C23.0196 10.1238 20.4841 12.6593 20.4841 15.7757C20.4841 17.6765 21.4283 19.3598 22.8713 20.3849C19.0778 21.6296 16.2275 24.9912 15.7814 29.1598C15.7578 29.3802 15.829 29.6002 15.9771 29.765C16.1253 29.9299 16.3365 30.0241 16.5582 30.0241H35.7135C35.9352 30.0241 36.1464 29.93 36.2946 29.765C36.4427 29.6002 36.5139 29.3802 36.4903 29.1597C36.0441 24.9912 33.1939 21.6297 29.4005 20.3849C30.8436 19.3599 31.7879 17.6765 31.7879 15.7757ZM34.8014 28.4616H17.4704C18.3124 24.3961 21.8945 21.4284 26.1339 21.4274C26.1346 21.4274 26.1353 21.4275 26.136 21.4275H26.1379C30.3773 21.4285 33.9594 24.3961 34.8014 28.4616ZM26.1359 19.8649C26.135 19.8649 26.1342 19.8649 26.1334 19.8649C23.8797 19.8635 22.0466 18.0297 22.0466 15.7757C22.0466 13.5208 23.8811 11.6863 26.136 11.6863C28.3909 11.6863 30.2254 13.5208 30.2254 15.7757C30.2254 18.0297 28.3922 19.8636 26.1385 19.8649C26.1377 19.865 26.1368 19.8649 26.1359 19.8649Z" fill="url(#paint0_linear_335_18101)"/>
<defs>
<linearGradient id="paint0_linear_335_18101" x1="1.24707" y1="25.6875" x2="48.7524" y2="25.6875" gradientUnits="userSpaceOnUse">
<stop stop-color="#1956C1"/>
<stop offset="1" stop-color="#E2403B"/>
</linearGradient>
</defs>
</svg>
