<svg width="55" height="55" viewBox="0 0 55 55" fill="none" xmlns="http://www.w3.org/2000/svg">
<path d="M48.9844 37.8125H47.2656V30.9375C47.2656 30.4817 47.0846 30.0445 46.7622 29.7222C46.4399 29.3998 46.0027 29.2187 45.5469 29.2187H43.8281C43.3723 29.2187 42.9351 29.3998 42.6128 29.7222C42.2905 30.0445 42.1094 30.4817 42.1094 30.9375V37.8125H41.25V25.7812C41.25 25.3254 41.0689 24.8882 40.7466 24.5659C40.4243 24.2436 39.9871 24.0625 39.5313 24.0625H37.8125C37.3567 24.0625 36.9195 24.2436 36.5972 24.5659C36.2748 24.8882 36.0938 25.3254 36.0938 25.7812V37.8125H35.2344V28.3594C35.2344 27.9035 35.0533 27.4664 34.731 27.144C34.4087 26.8217 33.9715 26.6406 33.5156 26.6406H31.7969C31.341 26.6406 30.9039 26.8217 30.5815 27.144C30.2592 27.4664 30.0781 27.9035 30.0781 28.3594V37.8125C29.8503 37.8123 29.6318 37.7217 29.4707 37.5605C29.3096 37.3994 29.219 37.181 29.2188 36.9531V23.2031C29.2188 22.9752 29.1282 22.7566 28.9671 22.5955C28.8059 22.4343 28.5873 22.3437 28.3594 22.3437C28.1315 22.3437 27.9129 22.4343 27.7517 22.5955C27.5906 22.7566 27.5 22.9752 27.5 23.2031V36.9531C27.5008 37.6367 27.7726 38.292 28.256 38.7753C28.7393 39.2586 29.3946 39.5305 30.0781 39.5312H48.9844C49.2123 39.5312 49.4309 39.4407 49.5921 39.2795C49.7532 39.1184 49.8438 38.8998 49.8438 38.6719C49.8438 38.444 49.7532 38.2254 49.5921 38.0642C49.4309 37.903 49.2123 37.8125 48.9844 37.8125ZM31.7969 37.8125L31.7956 28.3594H33.5156V37.8125H31.7969ZM37.8125 37.8125L37.8113 25.7812H39.5313V37.8125H37.8125ZM43.8281 37.8125L43.8269 30.9375H45.5469V37.8125H43.8281ZM39.5313 12.0312C39.5312 11.9184 39.5534 11.8066 39.5966 11.7023C39.6398 11.5981 39.7031 11.5033 39.7829 11.4235C39.8627 11.3437 39.9575 11.2804 40.0617 11.2372C40.166 11.1941 40.2778 11.1718 40.3906 11.1719H48.125C48.3529 11.1719 48.5715 11.2624 48.7327 11.4236C48.8938 11.5847 48.9844 11.8033 48.9844 12.0312C48.9844 12.2592 48.8938 12.4778 48.7327 12.6389C48.5715 12.8001 48.3529 12.8906 48.125 12.8906H40.3906C40.2778 12.8907 40.166 12.8684 40.0617 12.8253C39.9575 12.7821 39.8627 12.7188 39.7829 12.639C39.7031 12.5592 39.6398 12.4644 39.5966 12.3602C39.5534 12.2559 39.5312 12.1441 39.5313 12.0312ZM36.9531 12.0312C36.9531 11.8613 37.0035 11.6951 37.098 11.5538C37.1924 11.4125 37.3266 11.3023 37.4836 11.2373C37.6407 11.1722 37.8135 11.1552 37.9802 11.1884C38.1469 11.2215 38.3 11.3034 38.4202 11.4236C38.5404 11.5438 38.6222 11.6969 38.6554 11.8636C38.6885 12.0303 38.6715 12.2031 38.6065 12.3601C38.5414 12.5171 38.4313 12.6514 38.29 12.7458C38.1486 12.8402 37.9825 12.8906 37.8125 12.8906C37.5846 12.8906 37.366 12.8001 37.2048 12.6389C37.0437 12.4778 36.9531 12.2592 36.9531 12.0312ZM39.5313 15.4687C39.5312 15.3559 39.5534 15.2441 39.5966 15.1398C39.6398 15.0356 39.7031 14.9408 39.7829 14.861C39.8627 14.7812 39.9575 14.7179 40.0617 14.6747C40.166 14.6316 40.2778 14.6093 40.3906 14.6094H48.125C48.3529 14.6094 48.5715 14.6999 48.7327 14.8611C48.8938 15.0222 48.9844 15.2408 48.9844 15.4687C48.9844 15.6967 48.8938 15.9153 48.7327 16.0764C48.5715 16.2376 48.3529 16.3281 48.125 16.3281H40.3906C40.2778 16.3282 40.166 16.3059 40.0617 16.2628C39.9575 16.2196 39.8627 16.1563 39.7829 16.0765C39.7031 15.9967 39.6398 15.9019 39.5966 15.7977C39.5534 15.6934 39.5312 15.5816 39.5313 15.4687ZM39.5313 18.9062C39.5312 18.7934 39.5534 18.6816 39.5966 18.5773C39.6398 18.4731 39.7031 18.3783 39.7829 18.2985C39.8627 18.2187 39.9575 18.1554 40.0617 18.1122C40.166 18.0691 40.2778 18.0468 40.3906 18.0469H48.125C48.3529 18.0469 48.5715 18.1374 48.7327 18.2986C48.8938 18.4597 48.9844 18.6783 48.9844 18.9062C48.9844 19.1342 48.8938 19.3528 48.7327 19.5139C48.5715 19.6751 48.3529 19.7656 48.125 19.7656H40.3906C40.2778 19.7657 40.166 19.7434 40.0617 19.7003C39.9575 19.6571 39.8627 19.5938 39.7829 19.514C39.7031 19.4342 39.6398 19.3394 39.5966 19.2352C39.5534 19.1309 39.5312 19.0191 39.5313 18.9062ZM36.9531 15.4687C36.9531 15.2988 37.0035 15.1326 37.098 14.9913C37.1924 14.85 37.3266 14.7398 37.4836 14.6748C37.6407 14.6097 37.8135 14.5927 37.9802 14.6259C38.1469 14.659 38.3 14.7409 38.4202 14.8611C38.5404 14.9813 38.6222 15.1344 38.6554 15.3011C38.6885 15.4678 38.6715 15.6406 38.6065 15.7976C38.5414 15.9546 38.4313 16.0889 38.29 16.1833C38.1486 16.2777 37.9825 16.3281 37.8125 16.3281C37.5846 16.3281 37.366 16.2376 37.2048 16.0764C37.0437 15.9153 36.9531 15.6967 36.9531 15.4687ZM36.9531 18.9062C36.9531 18.7363 37.0035 18.5701 37.098 18.4288C37.1924 18.2875 37.3266 18.1773 37.4836 18.1123C37.6407 18.0472 37.8135 18.0302 37.9802 18.0634C38.1469 18.0965 38.3 18.1784 38.4202 18.2986C38.5404 18.4188 38.6222 18.5719 38.6554 18.7386C38.6885 18.9053 38.6715 19.0781 38.6065 19.2351C38.5414 19.3921 38.4313 19.5264 38.29 19.6208C38.1486 19.7152 37.9825 19.7656 37.8125 19.7656C37.5846 19.7656 37.366 19.6751 37.2048 19.5139C37.0437 19.3528 36.9531 19.1342 36.9531 18.9062ZM50.7031 6.01562H7.73439C7.05086 6.01637 6.39553 6.28823 5.9122 6.77156C5.42887 7.25489 5.15701 7.91022 5.15626 8.59375V19.8091C4.4413 19.9092 3.78661 20.2644 3.31284 20.8091C2.83907 21.3539 2.57814 22.0515 2.57814 22.7734C2.57814 23.4954 2.83907 24.193 3.31284 24.7378C3.78661 25.2825 4.4413 25.6377 5.15626 25.7378V29.7695C3.98804 30.891 3.07782 32.2533 2.48877 33.7617C1.89972 35.2702 1.64594 36.8888 1.74504 38.5051C1.84415 40.1215 2.29376 41.6969 3.06268 43.1221C3.8316 44.5473 4.90142 45.7882 6.1979 46.7585C7.49438 47.7289 8.98646 48.4055 10.5706 48.7415C12.1548 49.0775 13.7931 49.0647 15.3718 48.7042C16.9506 48.3436 18.432 47.6438 19.7132 46.6534C20.9944 45.663 22.0448 44.4057 22.7915 42.9687H50.7031C51.3867 42.968 52.042 42.6961 52.5253 42.2128C53.0087 41.7295 53.2805 41.0742 53.2813 40.3906V8.59375C53.2805 7.91022 53.0087 7.25489 52.5253 6.77156C52.042 6.28823 51.3867 6.01637 50.7031 6.01562ZM4.29689 22.7734C4.29689 22.5185 4.37249 22.2693 4.51414 22.0573C4.65578 21.8453 4.8571 21.6801 5.09265 21.5825C5.32819 21.4849 5.58738 21.4594 5.83744 21.5091C6.08749 21.5589 6.31718 21.6817 6.49746 21.8619C6.67774 22.0422 6.80051 22.2719 6.85025 22.522C6.89998 22.772 6.87446 23.0312 6.77689 23.2667C6.67932 23.5023 6.5141 23.7036 6.30212 23.8453C6.09013 23.9869 5.8409 24.0625 5.58595 24.0625C5.24419 24.0621 4.91652 23.9262 4.67486 23.6845C4.43319 23.4429 4.29726 23.1152 4.29689 22.7734ZM12.0313 28.4029V37.2988L4.19576 41.518C3.61093 40.1478 3.35849 38.6587 3.45906 37.1723C3.55964 35.686 4.01037 34.2444 4.77444 32.9655C5.53852 31.6866 6.59427 30.6066 7.85547 29.8136C9.11668 29.0207 10.5476 28.5373 12.0313 28.4029ZM13.75 28.4029C15.9489 28.6065 18.0074 29.5727 19.5689 31.1342C21.1304 32.6957 22.0966 34.7542 22.3002 36.9531H13.75V28.4029ZM12.8906 47.2656C11.3302 47.2648 9.79423 46.8775 8.41995 46.1383C7.04566 45.3991 5.87582 44.3311 5.01491 43.0296L13.1079 38.6719H22.3002C22.0838 41.0189 20.9992 43.2006 19.2589 44.7901C17.5185 46.3796 15.2476 47.2623 12.8906 47.2656ZM51.5625 40.3906C51.5623 40.6185 51.4717 40.8369 51.3106 40.998C51.1494 41.1592 50.931 41.2498 50.7031 41.25H23.5158C24.2288 39.0609 24.2469 36.7048 23.5678 34.5049C22.8886 32.3051 21.5454 30.3692 19.7225 28.963C17.8995 27.5568 15.6861 26.7491 13.3859 26.6507C11.0857 26.5524 8.81139 27.1681 6.87501 28.4135V25.4795C7.38783 25.2368 7.82142 24.8539 8.12559 24.375C8.42977 23.896 8.59209 23.3408 8.59376 22.7734C8.59122 22.3228 8.48624 21.8787 8.28676 21.4746L12.6354 17.6091C13.038 17.8513 13.4918 17.996 13.9604 18.0316C14.429 18.0672 14.8994 17.9926 15.334 17.8139L19.1211 20.804C18.9382 21.2626 18.871 21.7592 18.9256 22.25C18.9803 22.7407 19.1549 23.2104 19.4342 23.6176C19.7134 24.0248 20.0887 24.3569 20.5268 24.5847C20.9649 24.8124 21.4524 24.9287 21.9461 24.9233C22.4398 24.9179 22.9246 24.791 23.3576 24.5537C23.7907 24.3164 24.1586 23.9762 24.4288 23.5629C24.6991 23.1497 24.8634 22.6763 24.9073 22.1845C24.9512 21.6927 24.8732 21.1976 24.6803 20.7431L29.648 16.6393C30.2395 17.0497 30.9589 17.2335 31.6748 17.1572C32.3906 17.0809 33.0551 16.7495 33.5468 16.2237C34.0385 15.6979 34.3245 15.0127 34.3527 14.2933C34.3809 13.574 34.1492 12.8685 33.7001 12.3058C33.2511 11.7432 32.6145 11.3609 31.9068 11.2289C31.1991 11.0969 30.4676 11.2239 29.8458 11.5868C29.224 11.9496 28.7536 12.5241 28.5205 13.2052C28.2874 13.8863 28.3071 14.6286 28.5761 15.2963L23.5876 19.4172C23.0831 19.081 22.4888 18.905 21.8826 18.9124C21.2764 18.9197 20.6865 19.11 20.1902 19.4583L16.6907 16.6954C16.9824 16.2571 17.1539 15.7499 17.1881 15.2245C17.2222 14.6991 17.1178 14.1739 16.8853 13.7016C16.6528 13.2292 16.3003 12.8262 15.8631 12.5328C15.426 12.2394 14.9194 12.066 14.3941 12.0298C13.8689 11.9937 13.3433 12.0961 12.8701 12.3268C12.3969 12.5575 11.9925 12.9085 11.6975 13.3446C11.4024 13.7806 11.2271 14.2865 11.1889 14.8116C11.1508 15.3368 11.2512 15.8627 11.4801 16.3368L7.12836 20.205C7.04617 20.1554 6.96209 20.109 6.87501 20.0673V8.59375C6.87524 8.3659 6.96586 8.14745 7.12697 7.98633C7.28809 7.82522 7.50654 7.7346 7.73439 7.73437H50.7031C50.931 7.7346 51.1494 7.82522 51.3106 7.98633C51.4717 8.14745 51.5623 8.3659 51.5625 8.59375V40.3906ZM15.0912 15.9506C14.9109 16.1309 14.6812 16.2536 14.4312 16.3034C14.1811 16.3531 13.922 16.3276 13.6864 16.23C13.4509 16.1324 13.2495 15.9672 13.1079 15.7552C12.9663 15.5432 12.8907 15.294 12.8907 15.0391C12.8907 14.7841 12.9663 14.5349 13.1079 14.3229C13.2495 14.1109 13.4509 13.9457 13.6864 13.8481C13.922 13.7506 14.1811 13.725 14.4312 13.7748C14.6812 13.8245 14.9109 13.9473 15.0912 14.1275C15.3326 14.3695 15.4682 14.6973 15.4682 15.0391C15.4682 15.3808 15.3326 15.7086 15.0912 15.9506ZM22.8256 22.8256C22.6453 23.0059 22.4156 23.1286 22.1656 23.1784C21.9155 23.2281 21.6563 23.2026 21.4208 23.105C21.1852 23.0074 20.9839 22.8422 20.8423 22.6302C20.7006 22.4182 20.625 22.169 20.625 21.9141C20.625 21.6591 20.7006 21.4099 20.8423 21.1979C20.9839 20.9859 21.1852 20.8207 21.4208 20.7231C21.6563 20.6256 21.9155 20.6 22.1656 20.6498C22.4156 20.6995 22.6453 20.8223 22.8256 21.0025C23.067 21.2445 23.2025 21.5723 23.2025 21.9141C23.2025 22.2558 23.067 22.5836 22.8256 22.8256ZM30.4557 13.2682C30.636 13.0879 30.8657 12.9651 31.1157 12.9154C31.3658 12.8657 31.625 12.8912 31.8605 12.9888C32.096 13.0863 32.2974 13.2515 32.439 13.4635C32.5806 13.6755 32.6562 13.9247 32.6562 14.1797C32.6562 14.4346 32.5806 14.6839 32.439 14.8958C32.2974 15.1078 32.096 15.2731 31.8605 15.3706C31.625 15.4682 31.3658 15.4937 31.1157 15.444C30.8657 15.3942 30.636 15.2715 30.4557 15.0912C30.2143 14.8493 30.0787 14.5215 30.0787 14.1797C30.0787 13.8379 30.2143 13.5101 30.4557 13.2682Z" fill="white"/>
</svg>
