<svg width="50" height="51" viewBox="0 0 50 51" fill="none" xmlns="http://www.w3.org/2000/svg">
<path d="M38.3335 20.3909C38.3335 13.0392 32.3519 7.05762 25.0002 7.05762C17.6486 7.05762 11.667 13.0392 11.667 20.3909C11.667 27.7425 17.6486 33.7241 25.0002 33.7241C32.3519 33.7241 38.3335 27.7425 38.3335 20.3909ZM25.0002 32.0574C18.5669 32.0574 13.3336 26.8242 13.3336 20.3909C13.3336 13.9576 18.5669 8.72427 25.0002 8.72427C31.4335 8.72427 36.6668 13.9576 36.6668 20.3909C36.6668 26.8242 31.4335 32.0574 25.0002 32.0574Z" fill="url(#paint0_linear_335_18408)"/>
<path d="M49.8047 39.6438L41.1806 29.3663C41.3022 28.6147 41.4447 27.9105 41.6956 27.3055C41.9989 26.573 42.5514 25.8322 43.1372 25.0497C44.1347 23.713 45.2664 22.1997 45.2664 20.3906C45.2664 18.5814 44.1356 17.0672 43.1364 15.7306C42.5514 14.9473 41.9989 14.2073 41.6956 13.4748C41.3706 12.6931 41.2272 11.7464 41.0764 10.744C40.8189 9.0423 40.5531 7.28231 39.3306 6.05982C38.1081 4.83732 36.3473 4.57149 34.6448 4.31316C33.6431 4.1615 32.6965 4.01816 31.9156 3.69483C31.1831 3.3915 30.4431 2.83817 29.6598 2.25318C28.3232 1.25568 26.8098 0.124023 24.9999 0.124023C23.1899 0.124023 21.6757 1.25485 20.3399 2.25401C19.5566 2.83901 18.8174 3.3915 18.0849 3.69483C17.3032 4.019 16.3566 4.16233 15.3549 4.31316C13.6524 4.57149 11.8916 4.83732 10.6691 6.05982C9.44663 7.28231 9.1808 9.0423 8.9233 10.744C8.77163 11.7464 8.6283 12.6931 8.30413 13.4748C8.0008 14.2073 7.44831 14.9473 6.86331 15.7297C5.86498 17.0664 4.73416 18.5806 4.73416 20.3906C4.73416 22.2005 5.86498 23.7139 6.86331 25.0505C7.44831 25.833 8.0008 26.573 8.30413 27.3055C8.55497 27.9105 8.69747 28.6147 8.81913 29.3655L0.195023 39.6438C-0.00497554 39.8821 -0.0558086 40.2121 0.0641906 40.4996C0.18419 40.7871 0.453355 40.9829 0.764186 41.0087L8.82163 41.6854L10.8866 49.5037C10.9658 49.8037 11.2066 50.0362 11.5108 50.1037C11.8108 50.172 12.1308 50.0653 12.3308 49.8262L21.2532 39.1929C22.3607 39.9688 23.5899 40.6571 25.0007 40.6571C26.4115 40.6571 27.6407 39.9688 28.7482 39.1921L37.6706 49.8253C37.8706 50.0645 38.1906 50.1712 38.4898 50.1028C38.7939 50.0353 39.0339 49.8037 39.1139 49.5029L41.1797 41.6846L49.2372 41.0079C49.5472 40.9821 49.8164 40.7854 49.9364 40.4987C50.0564 40.2104 50.0055 39.8813 49.8055 39.6429L49.8047 39.6438ZM12.0874 47.5229L10.2825 40.6912C10.1925 40.3512 9.89829 40.1038 9.54663 40.0746L2.50584 39.4838L9.17913 31.5305C9.42246 32.7221 9.80579 33.8571 10.67 34.7213C11.8924 35.9438 13.6524 36.2096 15.3541 36.4679C16.3566 36.6196 17.3032 36.7629 18.0849 37.0871C18.6799 37.3338 19.2816 37.7471 19.9057 38.2063L12.0874 47.5229ZM21.3382 37.1929C20.5074 36.5729 19.6491 35.9304 18.7241 35.5471C17.7541 35.1455 16.6607 34.9796 15.6041 34.8196C14.1024 34.593 12.6841 34.378 11.8491 33.543C11.0141 32.708 10.8 31.2896 10.5725 29.7872C10.4125 28.7297 10.2475 27.638 9.84496 26.668C9.46163 25.743 8.81996 24.8839 8.19913 24.053C7.27497 22.8155 6.40165 21.6464 6.40165 20.3906C6.40165 19.1347 7.27498 17.9656 8.19997 16.7272C8.8208 15.8964 9.46163 15.0381 9.84579 14.1123C10.2475 13.1431 10.4133 12.0489 10.5733 10.9931C10.8 9.49063 11.0149 8.0723 11.8499 7.23731C12.6849 6.40231 14.1041 6.18731 15.6066 5.96065C16.6632 5.80148 17.7557 5.63565 18.7257 5.23399C19.6507 4.84982 20.5091 4.209 21.3399 3.58817C22.5774 2.66317 23.7474 1.78985 25.0032 1.78985C26.259 1.78985 27.4282 2.66317 28.6657 3.58733C29.4965 4.20816 30.3556 4.84982 31.2815 5.23399C32.2506 5.63565 33.344 5.80148 34.3998 5.96065C35.9023 6.18731 37.3214 6.40231 38.1564 7.23731C38.9914 8.0723 39.2056 9.49063 39.4323 10.9923C39.5923 12.0498 39.7581 13.1423 40.1598 14.1123C40.5431 15.0373 41.1847 15.8972 41.8064 16.7272C42.7306 17.9647 43.6039 19.1347 43.6039 20.3906C43.6039 21.6464 42.7306 22.8147 41.8064 24.0522C41.1856 24.883 40.5431 25.7422 40.1598 26.668C39.7581 27.638 39.5923 28.7313 39.4323 29.7872C39.2056 31.2896 38.9906 32.708 38.1556 33.543C37.3206 34.378 35.9023 34.593 34.4006 34.8196C33.3431 34.9796 32.2506 35.1455 31.2815 35.5471C30.3565 35.9304 29.4965 36.5721 28.6657 37.1938C27.4282 38.1171 26.259 38.9904 25.0032 38.9904C23.7474 38.9904 22.5782 38.1171 21.3407 37.1929H21.3382ZM40.4539 40.0746C40.1031 40.1038 39.8089 40.3512 39.7181 40.6912L37.9139 47.5229L30.0948 38.2054C30.719 37.7463 31.3206 37.3329 31.9165 37.0863C32.6981 36.7613 33.6448 36.6179 34.6465 36.4671C36.3489 36.2088 38.1081 35.9429 39.3306 34.7205C40.1948 33.8563 40.5781 32.7205 40.8214 31.5288L47.4955 39.4821L40.4539 40.0729V40.0746Z" fill="url(#paint1_linear_335_18408)"/>
<path d="M33.2927 18.4492C33.1944 18.1476 32.9336 17.9276 32.6194 17.8817L27.8711 17.1909L25.747 12.8884C25.4661 12.3184 24.5336 12.3184 24.2528 12.8884L22.1287 17.1909L17.3795 17.8817C17.0662 17.9276 16.8054 18.1467 16.707 18.4492C16.6087 18.7501 16.6904 19.0817 16.9179 19.3026L20.3537 22.6525L19.542 27.3825C19.4887 27.695 19.617 28.0108 19.8737 28.1975C20.1312 28.385 20.4703 28.4092 20.7512 28.2608L24.9986 26.0275L29.2461 28.2608C29.5269 28.4083 29.8661 28.385 30.1244 28.1975C30.3811 28.0108 30.5094 27.695 30.4553 27.3825L29.6436 22.6525L33.0802 19.3026C33.3069 19.0809 33.3886 18.7501 33.2911 18.4492H33.2927ZM28.1686 21.765C27.9728 21.9559 27.8828 22.2325 27.9295 22.5025L28.5294 26L25.3886 24.3492C25.267 24.285 25.1336 24.2534 25.0011 24.2534C24.8686 24.2534 24.7345 24.285 24.6136 24.3492L21.4728 26L22.0728 22.5025C22.1187 22.2325 22.0295 21.9567 21.8328 21.765L19.292 19.2884L22.8037 18.7776C23.0753 18.7384 23.3095 18.5676 23.4303 18.3217L25.0011 15.1409L26.572 18.3217C26.6936 18.5676 26.9278 18.7384 27.1995 18.7776L30.7103 19.2884L28.1695 21.765H28.1686Z" fill="url(#paint2_linear_335_18408)"/>
<defs>
<linearGradient id="paint0_linear_335_18408" x1="11.667" y1="20.3909" x2="38.3335" y2="20.3909" gradientUnits="userSpaceOnUse">
<stop stop-color="#1956C1"/>
<stop offset="1" stop-color="#E2403B"/>
</linearGradient>
<linearGradient id="paint1_linear_335_18408" x1="0" y1="25.124" x2="50.0005" y2="25.124" gradientUnits="userSpaceOnUse">
<stop stop-color="#1956C1"/>
<stop offset="1" stop-color="#E2403B"/>
</linearGradient>
<linearGradient id="paint2_linear_335_18408" x1="16.666" y1="20.4091" x2="33.3316" y2="20.4091" gradientUnits="userSpaceOnUse">
<stop stop-color="#1956C1"/>
<stop offset="1" stop-color="#E2403B"/>
</linearGradient>
</defs>
</svg>
