<svg width="50" height="51" viewBox="0 0 50 51" fill="none" xmlns="http://www.w3.org/2000/svg">
<g clip-path="url(#clip0_335_9838)">
<path d="M13.0209 36.4495L10.2209 37.0729C8.73666 37.3949 7.4081 38.2171 6.45768 39.4017C5.50726 40.5864 4.99267 42.0616 5.00008 43.5804V44.9287C5.00136 45.8421 5.30205 46.73 5.85608 47.4562C6.41012 48.1824 7.18695 48.707 8.06758 48.9495C10.7717 49.687 15.9042 50.5679 25.0001 50.5679C34.0959 50.5679 39.2284 49.687 41.9326 48.9495C42.8132 48.707 43.59 48.1824 44.1441 47.4562C44.6981 46.73 44.9988 45.8421 45.0001 44.9287V43.5804C45.0075 42.0616 44.4929 40.5864 43.5425 39.4017C42.5921 38.2171 41.2635 37.3949 39.7792 37.0729L36.9792 36.4495L33.1592 34.1587L31.6234 30.5754L32.1234 29.9995L32.4992 30.1004C32.8925 30.2044 33.2975 30.2573 33.7042 30.2579C34.933 30.2552 36.1106 29.7652 36.9785 28.8953C37.8463 28.0254 38.3336 26.8467 38.3334 25.6179V24.6179C39.0471 24.4336 39.6797 24.0179 40.132 23.4359C40.5844 22.8539 40.831 22.1383 40.8334 21.4012V18.0679C40.8307 17.331 40.5838 16.6159 40.1315 16.0342C39.6792 15.4525 39.0469 15.0371 38.3334 14.8529V13.9012C38.3334 10.365 36.9287 6.9736 34.4282 4.47311C31.9277 1.97263 28.5363 0.567871 25.0001 0.567871C21.4639 0.567871 18.0725 1.97263 15.572 4.47311C13.0715 6.9736 11.6667 10.365 11.6667 13.9012V14.8529C10.9533 15.0371 10.321 15.4525 9.86866 16.0342C9.41634 16.6159 9.16951 17.331 9.16675 18.0679V21.4012C9.16675 22.2853 9.51794 23.1331 10.1431 23.7582C10.7682 24.3833 11.616 24.7345 12.5001 24.7345H14.1667C14.4513 24.7318 14.7332 24.6799 15.0001 24.5812V24.8687C14.9996 26.0584 15.4314 27.2078 16.2151 28.1029L18.3817 30.5737L16.8451 34.157L13.0209 36.4495ZM17.2634 35.8487C18.7707 37.8348 20.8346 39.3278 23.1926 40.1379C22.389 40.9248 21.7214 41.8394 21.2167 42.8445C18.5934 41.62 16.3059 39.778 14.5501 37.4762L17.2634 35.8487ZM43.3334 43.5804V44.9287C43.3338 45.4775 43.1539 46.0111 42.8215 46.4477C42.4891 46.8843 42.0225 47.1997 41.4934 47.3454C38.8876 48.0529 33.9109 48.9012 25.0001 48.9012C16.0892 48.9012 11.1126 48.0529 8.50675 47.3412C7.97838 47.1957 7.5123 46.881 7.17995 46.4452C6.8476 46.0095 6.66732 45.4767 6.66675 44.9287V43.5804C6.66103 42.4412 7.04706 41.3346 7.76013 40.4462C8.4732 39.5577 9.46997 38.9413 10.5834 38.7004L12.9784 38.1679C13.9176 39.4287 16.7651 42.8895 20.7967 44.4712C21.1417 44.6038 21.5241 44.6006 21.8668 44.4624C22.2095 44.3241 22.487 44.061 22.6434 43.7262C23.1901 42.5695 23.9966 41.5548 25.0001 40.7612C26.0038 41.5546 26.8109 42.569 27.3584 43.7254C27.4765 43.9769 27.6637 44.1897 27.8982 44.3389C28.1326 44.4881 28.4047 44.5675 28.6826 44.5679C28.8617 44.5681 29.0393 44.5344 29.2059 44.4687C33.2367 42.8854 36.0842 39.4262 37.0234 38.1654L39.4184 38.6979C40.532 38.9393 41.5287 39.5561 42.2415 40.4451C42.9543 41.334 43.3398 42.441 43.3334 43.5804ZM28.7834 42.8445C28.2792 41.8391 27.6115 40.9245 26.8076 40.1379C29.1656 39.3278 31.2294 37.8348 32.7367 35.8487L35.4501 37.4762C33.694 39.7778 31.4066 41.6198 28.7834 42.8445ZM35.5084 27.972C34.9039 28.4323 34.145 28.6413 33.3901 28.5554L33.7851 28.1037C34.5687 27.2082 35.0005 26.0586 35.0001 24.8687V24.5812C35.267 24.6799 35.5489 24.7318 35.8334 24.7345H36.6667V25.6179C36.6684 26.073 36.5647 26.5224 36.3637 26.9308C36.1628 27.3392 35.87 27.6956 35.5084 27.972ZM33.3334 14.722C25.6776 14.492 24.1176 11.1162 24.1076 11.092C24.0457 10.9373 23.9389 10.8046 23.8009 10.7112C23.6629 10.6177 23.5001 10.5678 23.3334 10.5679C20.9088 10.5717 18.5763 11.4969 16.8084 13.1562C17.5542 9.02037 21.1234 5.56787 25.0001 5.56787C27.2095 5.5703 29.3277 6.44905 30.89 8.01133C32.4522 9.5736 33.331 11.6918 33.3334 13.9012V14.722ZM39.1667 18.0679V21.4012C39.1667 21.8432 38.9912 22.2672 38.6786 22.5797C38.366 22.8923 37.9421 23.0679 37.5001 23.0679H35.8334C35.6124 23.0679 35.4004 22.9801 35.2442 22.8238C35.0879 22.6675 35.0001 22.4556 35.0001 22.2345V17.2345C35.0001 17.0135 35.0879 16.8016 35.2442 16.6453C35.4004 16.489 35.6124 16.4012 35.8334 16.4012H37.5001C37.9421 16.4012 38.366 16.5768 38.6786 16.8894C38.9912 17.2019 39.1667 17.6258 39.1667 18.0679ZM25.0001 2.23454C28.0933 2.23785 31.0588 3.46807 33.246 5.65528C35.4332 7.84249 36.6634 10.808 36.6667 13.9012V14.7345H35.8334C35.5489 14.7373 35.267 14.7892 35.0001 14.8879V13.9012C34.9972 11.2499 33.9427 8.70805 32.068 6.8333C30.1932 4.95856 27.6514 3.90407 25.0001 3.9012C19.6726 3.9012 15.0001 8.9637 15.0001 14.7345V14.8879C14.7332 14.7892 14.4513 14.7373 14.1667 14.7345H13.3334V13.9012C13.3367 10.808 14.5669 7.84249 16.7542 5.65528C18.9414 3.46807 21.9069 2.23785 25.0001 2.23454ZM14.1667 23.0679H12.5001C12.0581 23.0679 11.6341 22.8923 11.3216 22.5797C11.009 22.2672 10.8334 21.8432 10.8334 21.4012V18.0679C10.8334 17.6258 11.009 17.2019 11.3216 16.8894C11.6341 16.5768 12.0581 16.4012 12.5001 16.4012H14.1667C14.3878 16.4012 14.5997 16.489 14.756 16.6453C14.9123 16.8016 15.0001 17.0135 15.0001 17.2345V22.2345C15.0001 22.4556 14.9123 22.6675 14.756 22.8238C14.5997 22.9801 14.3878 23.0679 14.1667 23.0679ZM16.6667 24.8687V15.8179C17.3692 14.8013 18.2891 13.9537 19.3598 13.3367C20.4304 12.7196 21.6249 12.3485 22.8567 12.2504C23.6434 13.4412 26.2334 16.1795 33.3334 16.3829V24.8687C33.3335 25.655 33.048 26.4146 32.5301 27.0062L31.5551 28.1204L29.2217 27.497L29.2467 27.3937C29.2977 27.1807 29.3062 26.9598 29.2718 26.7436C29.2373 26.5273 29.1606 26.32 29.046 26.1334C28.9314 25.9468 28.7811 25.7846 28.6038 25.6561C28.4265 25.5276 28.2256 25.4353 28.0126 25.3845L25.5817 24.8012C24.9366 24.6467 24.2565 24.7548 23.6911 25.1018C23.1257 25.4487 22.7212 26.0061 22.5667 26.6512C22.4123 27.2963 22.5204 27.9764 22.8673 28.5418C23.2143 29.1073 23.7716 29.5117 24.4167 29.6662L26.8476 30.2495C26.9759 30.2803 27.1073 30.296 27.2392 30.2962C27.5948 30.2964 27.941 30.1818 28.2263 29.9695C28.5115 29.7572 28.7207 29.4585 28.8226 29.1179L30.3301 29.5212L29.0834 30.9429C28.7287 31.3485 28.2913 31.6736 27.8006 31.8964C27.3099 32.1192 26.7773 32.2345 26.2384 32.2345H23.7617C23.2229 32.2342 22.6904 32.1188 22.1997 31.896C21.7091 31.6733 21.2717 31.3483 20.9167 30.9429L17.4717 27.0054C16.9532 26.4143 16.6671 25.655 16.6667 24.8687ZM27.6251 27.0062L27.2384 28.6262L24.8067 28.0429C24.699 28.0187 24.5972 27.9733 24.5072 27.9094C24.4171 27.8456 24.3407 27.7644 24.2823 27.6707C24.2239 27.5771 24.1846 27.4727 24.1669 27.3638C24.1492 27.2548 24.1532 27.1434 24.1789 27.036C24.2046 26.9287 24.2513 26.8275 24.3164 26.7383C24.3815 26.6492 24.4637 26.5738 24.5582 26.5167C24.6526 26.4596 24.7575 26.4218 24.8667 26.4055C24.9759 26.3893 25.0872 26.3949 25.1942 26.422L27.6251 27.0062ZM19.6601 32.0404C20.1715 32.6251 20.8021 33.0937 21.5096 33.4146C22.217 33.7356 22.9849 33.9015 23.7617 33.9012H26.2384C27.0152 33.9014 27.7831 33.7355 28.4906 33.4145C29.198 33.0936 29.8286 32.6251 30.3401 32.0404L30.4067 31.9645L31.5542 34.6437C29.9732 36.8243 27.6365 38.3377 25.0001 38.8887C22.3636 38.3377 20.027 36.8243 18.4459 34.6437L19.5942 31.9645L19.6601 32.0404Z" fill="url(#paint0_linear_335_9838)"/>
</g>
<defs>
<linearGradient id="paint0_linear_335_9838" x1="5" y1="25.5679" x2="45.0002" y2="25.5679" gradientUnits="userSpaceOnUse">
<stop stop-color="#1956C1"/>
<stop offset="1" stop-color="#E2403B"/>
</linearGradient>
<clipPath id="clip0_335_9838">
<rect width="50" height="50" fill="white" transform="translate(0 0.567871)"/>
</clipPath>
</defs>
</svg>
