<svg width="50" height="51" viewBox="0 0 50 51" fill="none" xmlns="http://www.w3.org/2000/svg">
<path d="M49.2676 39.3052C49.6722 39.3052 50 38.9773 50 38.5728V37.4503C50 35.4255 48.708 33.6394 46.7846 33.0056L42.2067 31.4993V29.9144C43.8008 28.958 44.8702 27.2132 44.8702 25.2229V22.0661C44.8702 19.0512 42.4175 16.5985 39.4026 16.5985C37.6269 16.5985 36.0467 17.4501 35.0473 18.7656C34.494 17.7274 33.5559 16.9177 32.3813 16.532L27.804 15.025V13.44C29.398 12.4836 30.4675 10.7388 30.4675 8.74847V5.59162C30.4676 2.57677 28.0148 0.124023 25 0.124023C21.9852 0.124023 19.5324 2.57677 19.5324 5.59162V8.74837C19.5324 10.7387 20.6019 12.4835 22.1959 13.4399V15.0249L17.619 16.5318C16.4442 16.9177 15.506 17.7274 14.9527 18.7656C13.9533 17.45 12.3731 16.5985 10.5974 16.5985C7.58252 16.5985 5.12979 19.0512 5.12979 22.0661V25.2229C5.12979 27.2132 6.19922 28.958 7.79326 29.9144V31.4993L3.21504 33.0057C1.29199 33.6394 0 35.4255 0 37.4503V38.5728C0 38.9773 0.327832 39.3052 0.732422 39.3052C1.13701 39.3052 1.46484 38.9773 1.46484 38.5728V37.4503C1.46484 36.0593 2.35244 34.8323 3.67314 34.397L7.96133 32.986C8.35322 34.0626 9.38682 34.8335 10.5973 34.8335C11.8076 34.8335 12.8412 34.0625 13.2331 32.986L17.5207 34.3968C18.4605 34.7066 19.1888 35.4201 19.5256 36.3243L17.6186 36.9519C15.695 37.5849 14.4026 39.3709 14.4026 41.3958V42.247H5.60811V40.4145C5.60811 40.01 5.28027 39.6821 4.87568 39.6821C4.47109 39.6821 4.14326 40.01 4.14326 40.4145V42.247H1.46484V41.9941C1.46484 41.5896 1.13701 41.2617 0.732422 41.2617C0.327832 41.2617 0 41.5896 0 41.9941V42.9795C0 43.384 0.327832 43.7119 0.732422 43.7119H14.4026V49.3916C14.4026 49.7961 14.7305 50.124 15.1351 50.124H34.8648C35.2694 50.124 35.5973 49.7961 35.5973 49.3916V48.4133C35.5973 48.0088 35.2694 47.6809 34.8648 47.6809C34.4603 47.6809 34.1324 48.0088 34.1324 48.4133V48.6594H31.4541V44.3607C31.4541 43.9562 31.1263 43.6283 30.7217 43.6283C30.3171 43.6283 29.9893 43.9562 29.9893 44.3607V48.6594H20.0107V44.3607C20.0107 43.9562 19.6829 43.6283 19.2783 43.6283C18.8737 43.6283 18.5459 43.9562 18.5459 44.3607V48.6594H15.8675V41.396C15.8675 40.005 16.7552 38.7783 18.0765 38.3435L22.3642 36.9324C22.7562 38.0088 23.7896 38.7797 25 38.7797C26.2104 38.7797 27.2438 38.0089 27.6358 36.9324L31.9235 38.3435C33.2448 38.7784 34.1325 40.005 34.1325 41.396V44.9938C34.1325 45.3983 34.4604 45.7263 34.8649 45.7263C35.2695 45.7263 35.5974 45.3983 35.5974 44.9938V43.7121H49.2676C49.6722 43.7121 50 43.3842 50 42.9797V41.9943C50 41.5898 49.6722 41.2619 49.2676 41.2619C48.863 41.2619 48.5352 41.5898 48.5352 41.9943V42.2472H45.8567V40.4147C45.8567 40.0102 45.5289 39.6823 45.1243 39.6823C44.7197 39.6823 44.3919 40.0102 44.3919 40.4147V42.2472H35.5973V41.396C35.5973 39.371 34.3049 37.5851 32.3813 36.9521L30.4743 36.3245C30.8111 35.4204 31.5393 34.7069 32.4788 34.3971L36.7668 32.9862C37.1587 34.0627 38.1923 34.8337 39.4026 34.8337C40.6131 34.8337 41.6467 34.0627 42.0386 32.9862L46.3264 34.3971C47.6476 34.8323 48.5352 36.0593 48.5352 37.4503V38.5728C48.5352 38.9773 48.863 39.3052 49.2676 39.3052ZM39.4026 18.0633C41.6098 18.0633 43.4054 19.8589 43.4054 22.066V25.2228C43.4054 27.4299 41.6097 29.2255 39.4026 29.2255C37.1956 29.2255 35.4 27.4299 35.4 25.2228V22.066C35.4 19.8589 37.1956 18.0633 39.4026 18.0633ZM20.9973 8.74837V5.59162C20.9973 3.38449 22.7929 1.58887 25 1.58887C27.2071 1.58887 29.0027 3.38449 29.0027 5.59162V8.74837C29.0027 10.9555 27.207 12.7511 25 12.7511C22.793 12.7511 20.9973 10.9555 20.9973 8.74837ZM25 14.216C25.4619 14.216 25.9104 14.1579 26.3393 14.0495V15.5355C26.3391 15.5424 26.3392 15.5493 26.3393 15.5561C26.3387 16.2941 25.7382 16.8943 25.0001 16.8943C24.262 16.8943 23.6614 16.2941 23.6609 15.5561C23.6609 15.5492 23.661 15.5423 23.6609 15.5355V14.0495C24.0896 14.1578 24.5381 14.216 25 14.216ZM18.0767 17.9233L22.3641 16.5117C22.756 17.5883 23.7896 18.3592 24.9999 18.3592C26.2103 18.3592 27.2438 17.5883 27.6357 16.5117L31.9236 17.9234C33.1479 18.3256 33.997 19.3977 34.1156 20.6723C33.9981 21.1175 33.935 21.5845 33.935 22.066V25.2228C33.935 25.4083 33.9444 25.5917 33.9626 25.7726H30.4613C30.3355 22.8685 27.9344 20.5443 24.9998 20.5443C22.0652 20.5443 19.6641 22.8685 19.5383 25.7726H16.037C16.0552 25.5917 16.0646 25.4083 16.0646 25.2228V22.066C16.0646 21.5845 16.0015 21.1176 15.884 20.6723C16.0028 19.3978 16.852 18.3257 18.0767 17.9233ZM25 33.1714C22.7929 33.1714 20.9973 31.3758 20.9973 29.1687V26.0119C20.9973 23.8048 22.793 22.0092 25 22.0092C27.207 22.0092 29.0027 23.8048 29.0027 26.0119V29.1687C29.0027 31.3758 27.2071 33.1714 25 33.1714ZM6.59453 25.2228V22.066C6.59453 19.8589 8.39023 18.0633 10.5973 18.0633C12.8043 18.0633 14.5999 19.8589 14.5999 22.066V25.2228C14.5999 27.4299 12.8043 29.2255 10.5973 29.2255C8.39023 29.2255 6.59453 27.4299 6.59453 25.2228ZM11.9364 32.0295C11.9364 32.768 11.3357 33.3687 10.5973 33.3687C9.85879 33.3687 9.25801 32.7679 9.25801 32.0295V30.5239C9.68672 30.6322 10.1353 30.6904 10.5973 30.6904C11.0592 30.6904 11.5077 30.6322 11.9364 30.5239V32.0295ZM17.9789 33.0056L13.4014 31.4993V29.9143C14.4257 29.2997 15.2322 28.3592 15.6786 27.2374H19.5324V29.1687C19.5324 31.159 20.6019 32.9038 22.1959 33.8602V35.4455L20.9167 35.8665C20.4355 34.5244 19.3661 33.4628 17.9789 33.0056ZM25 37.3148C24.2615 37.3148 23.6607 36.714 23.6607 35.9755V35.9666C23.6607 35.9652 23.6607 35.9637 23.6607 35.9623V34.4699C24.0895 34.5783 24.538 34.6364 25 34.6364C25.462 34.6364 25.9104 34.5783 26.3393 34.4699V35.9623V35.9666V35.9755C26.3393 36.714 25.7385 37.3148 25 37.3148ZM32.0208 33.0057C30.6339 33.4628 29.5645 34.5244 29.0834 35.8666L27.8041 35.4456V33.8603C29.3981 32.9039 30.4676 31.1591 30.4676 29.1688V27.2374H34.3214C34.7678 28.3593 35.5743 29.2998 36.5986 29.9143V31.4993L32.0208 33.0057ZM39.4026 33.3688C38.6642 33.3688 38.0635 32.768 38.0635 32.0296V30.5239C38.4922 30.6323 38.9407 30.6905 39.4026 30.6905C39.8646 30.6905 40.3131 30.6323 40.7419 30.5239V32.0296C40.7419 32.768 40.1411 33.3688 39.4026 33.3688Z" fill="url(#paint0_linear_335_18415)"/>
<defs>
<linearGradient id="paint0_linear_335_18415" x1="0" y1="25.124" x2="50" y2="25.124" gradientUnits="userSpaceOnUse">
<stop stop-color="#1956C1"/>
<stop offset="1" stop-color="#E2403B"/>
</linearGradient>
</defs>
</svg>
