<svg width="30" height="30" viewBox="0 0 30 30" fill="none" xmlns="http://www.w3.org/2000/svg">
<g clip-path="url(#clip0_307_158)">
<path d="M23.7091 18.583C23.0949 17.9435 22.3541 17.6016 21.569 17.6016C20.7902 17.6016 20.0431 17.9372 19.4036 18.5767L17.4027 20.5712C17.2381 20.4826 17.0735 20.4002 16.9152 20.3179C16.6873 20.204 16.472 20.0963 16.2884 19.9823C14.4142 18.792 12.711 17.2407 11.0774 15.2336C10.2859 14.2332 9.75404 13.391 9.36781 12.5363C9.88701 12.0614 10.3682 11.5675 10.8368 11.0926C11.0141 10.9153 11.1913 10.7317 11.3686 10.5544C12.6983 9.22478 12.6983 7.50256 11.3686 6.1729L9.64007 4.44435C9.44379 4.24806 9.24118 4.04545 9.05122 3.84283C8.67132 3.45027 8.27242 3.04504 7.86086 2.66514C7.24669 2.05729 6.51221 1.73438 5.73974 1.73438C4.96727 1.73438 4.22013 2.05729 3.58696 2.66514C3.58063 2.67147 3.58063 2.67147 3.5743 2.6778L1.42152 4.84957C0.61106 5.66003 0.148846 6.64778 0.0475384 7.79382C-0.104423 9.64268 0.440104 11.3649 0.857997 12.4919C1.88373 15.2589 3.41601 17.8232 5.70175 20.5712C8.47504 23.8827 11.8118 26.4977 15.6235 28.3402C17.0798 29.0304 19.0237 29.8471 21.1954 29.9864C21.3284 29.9928 21.4677 29.9991 21.5943 29.9991C23.057 29.9991 24.2853 29.4736 25.2477 28.4288C25.2541 28.4162 25.2667 28.4098 25.2731 28.3972C25.6023 27.9983 25.9822 27.6374 26.3811 27.2511C26.6534 26.9915 26.932 26.7193 27.2042 26.4344C27.8311 25.7822 28.1603 25.0224 28.1603 24.2436C28.1603 23.4585 27.8247 22.705 27.1852 22.0718L23.7091 18.583ZM25.9759 25.2503C25.9695 25.2567 25.9695 25.2503 25.9759 25.2503C25.7289 25.5163 25.4757 25.7569 25.2034 26.0228C24.7918 26.4154 24.374 26.8269 23.9814 27.2891C23.3419 27.973 22.5884 28.2959 21.6007 28.2959C21.5057 28.2959 21.4044 28.2959 21.3094 28.2895C19.4289 28.1692 17.6813 27.4348 16.3707 26.8079C12.7869 25.073 9.64007 22.61 7.02508 19.4885C4.86597 16.8861 3.42234 14.4801 2.46625 11.8968C1.8774 10.3202 1.66212 9.09182 1.7571 7.93311C1.82042 7.19231 2.10534 6.57813 2.63087 6.0526L4.78999 3.89349C5.10024 3.60223 5.42949 3.44394 5.75241 3.44394C6.1513 3.44394 6.47422 3.68454 6.67683 3.88715C6.68317 3.89349 6.6895 3.89982 6.69583 3.90615C7.08206 4.26706 7.4493 4.64063 7.83554 5.03953C8.03182 5.24214 8.23443 5.44475 8.43705 5.6537L10.1656 7.38226C10.8368 8.05342 10.8368 8.67392 10.1656 9.34509C9.98199 9.5287 9.8047 9.71232 9.62108 9.88961C9.08921 10.4341 8.58268 10.9407 8.03182 11.4345C8.01916 11.4472 8.00649 11.4535 8.00016 11.4662C7.45563 12.0107 7.55694 12.5426 7.67091 12.9035C7.67724 12.9225 7.68358 12.9415 7.68991 12.9605C8.13946 14.0495 8.77263 15.0753 9.73505 16.2973L9.74138 16.3036C11.4889 18.4564 13.3315 20.1343 15.3639 21.4196C15.6235 21.5843 15.8895 21.7172 16.1427 21.8439C16.3707 21.9578 16.586 22.0655 16.7696 22.1795C16.7949 22.1921 16.8202 22.2111 16.8456 22.2238C17.0608 22.3314 17.2634 22.3821 17.4724 22.3821C17.9979 22.3821 18.3272 22.0528 18.4348 21.9452L20.6003 19.7797C20.8155 19.5645 21.1574 19.3049 21.5563 19.3049C21.9489 19.3049 22.2718 19.5518 22.4681 19.7671C22.4744 19.7734 22.4744 19.7734 22.4808 19.7797L25.9695 23.2685C26.6217 23.9143 26.6217 24.5792 25.9759 25.2503Z" fill="white"/>
<path d="M16.2114 7.13708C17.8703 7.41568 19.3773 8.20081 20.5803 9.40383C21.7833 10.6069 22.5621 12.1138 22.847 13.7727C22.9167 14.1906 23.2776 14.4819 23.6892 14.4819C23.7398 14.4819 23.7841 14.4755 23.8348 14.4692C24.3033 14.3932 24.6136 13.95 24.5376 13.4815C24.1957 11.4743 23.2459 9.64444 21.796 8.19448C20.346 6.74452 18.5161 5.79476 16.509 5.45285C16.0405 5.37687 15.6036 5.68712 15.5213 6.14934C15.4389 6.61155 15.7429 7.0611 16.2114 7.13708Z" fill="white"/>
<path d="M29.9635 13.2336C29.3999 9.92848 27.8423 6.92092 25.4489 4.52754C23.0556 2.13415 20.048 0.576553 16.7429 0.0130316C16.2806 -0.0692806 15.8437 0.247305 15.7614 0.709519C15.6855 1.17807 15.9957 1.61495 16.4643 1.69727C19.4148 2.19747 22.1058 3.59678 24.2459 5.73056C26.386 7.87068 27.779 10.5617 28.2792 13.5122C28.3489 13.9301 28.7098 14.2214 29.1213 14.2214C29.172 14.2214 29.2163 14.215 29.267 14.2087C29.7292 14.1391 30.0458 13.6958 29.9635 13.2336Z" fill="white"/>
</g>
<defs>
<clipPath id="clip0_307_158">
<rect width="30" height="30" fill="white"/>
</clipPath>
</defs>
</svg>
