<svg width="55" height="55" viewBox="0 0 55 55" fill="none" xmlns="http://www.w3.org/2000/svg">
<g clip-path="url(#clip0_220_19917)">
<path d="M35.0865 14.2931C36.5673 14.2931 37.772 13.0883 37.772 11.6075C37.772 10.1267 36.5673 8.92188 35.0865 8.92188C33.6057 8.92188 32.4009 10.1267 32.4009 11.6075C32.4009 12.2123 32.602 12.7709 32.9407 13.2204L28.5283 19.3865C28.265 19.3 27.9841 19.2525 27.6921 19.2525C26.9864 19.2525 26.3438 19.5266 25.8641 19.9732L22.923 18.3043C22.9622 18.1221 22.9833 17.9333 22.9833 17.7396C22.9833 16.2588 21.7785 15.0541 20.2977 15.0541C18.8169 15.0541 17.6122 16.2588 17.6122 17.7396C17.6122 17.9333 17.6332 18.1221 17.6724 18.3043L14.7313 19.9732C14.2516 19.5266 13.609 19.2526 12.9033 19.2526C11.4225 19.2526 10.2178 20.4575 10.2178 21.9383C10.2178 23.4191 11.4225 24.6239 12.9033 24.6239C14.3841 24.6239 15.5889 23.4191 15.5889 21.9383C15.5889 21.7446 15.5678 21.5558 15.5286 21.3736L18.4697 19.7047C18.9495 20.1513 19.5921 20.4254 20.2977 20.4254C21.0034 20.4254 21.6459 20.1513 22.1257 19.7048L25.0668 21.3737C25.0276 21.5559 25.0065 21.7447 25.0065 21.9384C25.0065 23.4192 26.2113 24.6241 27.6921 24.6241C29.173 24.6241 30.3777 23.4192 30.3777 21.9384C30.3777 21.3335 30.1765 20.7748 29.8378 20.3254L34.2503 14.1592C34.5135 14.2456 34.7945 14.2931 35.0865 14.2931ZM35.0865 10.5332C35.6788 10.5332 36.1607 11.0151 36.1607 11.6075C36.1607 12.1999 35.6788 12.6817 35.0865 12.6817C34.4942 12.6817 34.0123 12.1999 34.0123 11.6075C34.0121 11.0151 34.494 10.5332 35.0865 10.5332ZM12.903 23.0124C12.3107 23.0124 11.8288 22.5305 11.8288 21.9381C11.8288 21.3456 12.3107 20.8638 12.903 20.8638C13.4953 20.8638 13.9772 21.3456 13.9772 21.9381C13.9772 22.5305 13.4953 23.0124 12.903 23.0124ZM20.2975 18.8138C19.7052 18.8138 19.2233 18.3319 19.2233 17.7395C19.2233 17.1472 19.7052 16.6653 20.2975 16.6653C20.8898 16.6653 21.3717 17.1472 21.3717 17.7395C21.3718 18.3319 20.8898 18.8138 20.2975 18.8138ZM27.692 23.0124C27.0997 23.0124 26.6178 22.5305 26.6178 21.9381C26.6178 21.3456 27.0997 20.8638 27.692 20.8638C28.2844 20.8638 28.7663 21.3456 28.7663 21.9381C28.7663 22.5305 28.2843 23.0124 27.692 23.0124Z" fill="white"/>
<path d="M44.9879 40.4935H39.3497H8.63973H2.27895C1.91082 40.4935 1.61133 40.1941 1.61133 39.8259V6.58755C1.61133 6.21941 1.91082 5.91992 2.27895 5.91992H6.07696C6.5219 5.91992 6.88263 5.55931 6.88263 5.11426C6.88263 4.66921 6.5219 4.30859 6.07696 4.30859H2.27895C1.02233 4.30859 0 5.33093 0 6.58755V39.8259C0 41.0825 1.02233 42.1049 2.27895 42.1049H7.83406V43.878C7.83406 44.8881 8.65584 45.7098 9.66593 45.7098H17.7305L13.9342 53.1217C13.7314 53.5178 13.8879 54.0032 14.284 54.2062C14.4015 54.2664 14.527 54.2949 14.6506 54.2949C14.9433 54.2949 15.2258 54.1348 15.3683 53.8563L19.5409 45.7098H28.4485L32.6211 53.8563C32.7638 54.1348 33.0461 54.2949 33.3388 54.2949C33.4625 54.2949 33.5879 54.2662 33.7054 54.2062C34.1015 54.0032 34.2581 53.5178 34.0552 53.1217L30.2589 45.7098H38.3235C39.3336 45.7098 40.1554 44.8882 40.1554 43.878V42.1049H44.9879C45.4328 42.1049 45.7935 41.7443 45.7935 41.2992C45.7935 40.8542 45.4328 40.4935 44.9879 40.4935ZM38.544 43.878C38.544 43.9996 38.4451 44.0985 38.3235 44.0985H9.66593C9.54433 44.0985 9.44539 43.9996 9.44539 43.878V42.1049H38.544V43.878Z" fill="white"/>
<path d="M9.2998 5.92029H20.329H27.6607H45.7106C46.0787 5.92029 46.3782 6.21979 46.3782 6.58792V14.2483C46.3782 14.6933 46.7389 15.0539 47.1838 15.0539C47.6288 15.0539 47.9895 14.6933 47.9895 14.2483V6.58792C47.9895 5.3313 46.9672 4.30897 45.7106 4.30897H28.4664V2.72535C28.4664 1.61085 27.5597 0.704102 26.4451 0.704102H21.5447C20.4302 0.704102 19.5234 1.61085 19.5234 2.72535V4.30897H9.2998C8.85486 4.30897 8.49414 4.66958 8.49414 5.11463C8.49414 5.55968 8.85486 5.92029 9.2998 5.92029ZM21.1347 2.72535C21.1347 2.49934 21.3186 2.31543 21.5447 2.31543H26.4451C26.6711 2.31543 26.8551 2.49934 26.8551 2.72535V4.30897H21.1348V2.72535H21.1347Z" fill="white"/>
<path d="M11.2686 28.7432C10.8236 28.7432 10.4629 29.1038 10.4629 29.5488V36.6679C10.4629 37.1129 10.8236 37.4736 11.2686 37.4736H14.5371C14.982 37.4736 15.3427 37.1129 15.3427 36.6679V29.5488C15.3427 29.1038 14.982 28.7432 14.5371 28.7432H11.2686ZM13.7314 35.8623H12.0742V30.3546H13.7314V35.8623Z" fill="white"/>
<path d="M18.6631 24.626C18.2181 24.626 17.8574 24.9866 17.8574 25.4316V36.6681C17.8574 37.1131 18.2181 37.4737 18.6631 37.4737H21.9316C22.3766 37.4737 22.7373 37.1131 22.7373 36.6681V25.4316C22.7373 24.9866 22.3766 24.626 21.9316 24.626H18.6631ZM21.1261 35.8624H19.4689V26.2373H21.1261V35.8624Z" fill="white"/>
<path d="M26.0576 28.7432C25.6127 28.7432 25.252 29.1038 25.252 29.5488V36.6679C25.252 37.1129 25.6127 37.4736 26.0576 37.4736H29.3261C29.7711 37.4736 30.1318 37.1129 30.1318 36.6679V29.5488C30.1318 29.1038 29.7711 28.7432 29.3261 28.7432H26.0576ZM28.5205 35.8623H26.8633V30.3546H28.5205V35.8623Z" fill="white"/>
<path d="M33.4521 33.4971C33.0072 33.4971 32.6465 33.8577 32.6465 34.3027V36.6678C32.6465 37.1129 33.0072 37.4735 33.4521 37.4735H36.7207C37.1656 37.4735 37.5263 37.1129 37.5263 36.6678C37.5263 36.2228 37.1656 35.8622 36.7207 35.8622H34.2578V34.3027C34.2578 33.8577 33.8971 33.4971 33.4521 33.4971Z" fill="white"/>
<path d="M54.589 41.2519L49.9669 33.2462C51.138 31.998 51.9907 30.473 52.4461 28.7731C53.1741 26.0563 52.8005 23.2185 51.3942 20.7826C48.491 15.7539 42.038 14.0252 37.0096 16.9282C31.9811 19.8313 30.2521 26.2843 33.1553 31.3128C34.5617 33.7487 36.8325 35.4911 39.5493 36.2192C40.4566 36.4623 41.3771 36.5825 42.2918 36.5825C43.0912 36.5825 43.886 36.4905 44.6633 36.3085L49.2844 44.3145C49.8508 45.296 50.8823 45.8452 51.9417 45.8451C52.4609 45.8451 52.9868 45.7131 53.4679 45.4355C54.4128 44.8902 54.9999 43.8732 54.9999 42.7816C54.9999 42.2467 54.8579 41.7179 54.589 41.2519ZM39.9663 34.6627C37.6652 34.0461 35.7418 32.5703 34.5506 30.5071C32.0917 26.2481 33.5562 20.7826 37.8152 18.3236C39.2163 17.5148 40.7474 17.1306 42.2596 17.1306C45.3443 17.1306 48.3486 18.7305 49.9986 21.5883C51.1897 23.6515 51.5062 26.0549 50.8896 28.3561C50.273 30.6573 48.7971 32.5805 46.734 33.7717C44.6709 34.9629 42.2675 35.2791 39.9663 34.6627ZM52.6626 44.0399C51.9694 44.4402 51.0799 44.2019 50.68 43.509L46.234 35.8065C46.6796 35.6246 47.116 35.4119 47.5399 35.1672C47.9641 34.9223 48.3658 34.6496 48.7462 34.3544L53.1935 42.0573C53.3211 42.2787 53.3885 42.5292 53.3885 42.7817C53.3885 43.2992 53.1103 43.7815 52.6626 44.0399Z" fill="white"/>
<path d="M49.5797 28.317C50.1485 26.4848 50.013 24.5233 49.1982 22.7938C49.0085 22.3912 48.5286 22.2187 48.1261 22.4083C47.7235 22.598 47.5509 23.078 47.7406 23.4805C48.3833 24.8447 48.49 26.3926 48.0409 27.8391C47.5893 29.2936 46.6137 30.5142 45.2938 31.2763C43.8971 32.0828 42.2698 32.2968 40.712 31.8795C39.1542 31.462 37.852 30.4629 37.0457 29.0662C35.381 26.1829 36.3725 22.4828 39.2558 20.8181C41.364 19.6011 43.9802 19.7638 45.9215 21.2324C46.2764 21.501 46.7816 21.4311 47.05 21.0761C47.3185 20.7213 47.2485 20.216 46.8936 19.9476C44.4346 18.0869 41.1202 17.881 38.45 19.4226C36.6806 20.4442 35.4148 22.0938 34.886 24.0673C34.3572 26.0409 34.6286 28.1023 35.6502 29.8717C36.6718 31.6413 38.3214 32.9069 40.2949 33.4359C40.9539 33.6125 41.6228 33.6998 42.2872 33.6998C43.6125 33.6998 44.9208 33.3522 46.0993 32.6717C47.7716 31.7064 49.0076 30.16 49.5797 28.317Z" fill="white"/>
</g>
<defs>
<clipPath id="clip0_220_19917">
<rect width="55" height="55" fill="white"/>
</clipPath>
</defs>
</svg>
