<svg width="31" height="31" viewBox="0 0 31 31" fill="none" xmlns="http://www.w3.org/2000/svg">
<g clip-path="url(#clip0_220_9804)">
<path d="M15.4277 0.757812C9.09521 0.757812 3.94336 5.90967 3.94336 12.2422C3.94336 15.3184 5.80705 19.2687 9.48264 23.9831C11.1666 26.1374 12.9902 28.1788 14.9418 30.0941C15.0726 30.2192 15.2467 30.289 15.4277 30.289C15.6088 30.289 15.7829 30.2192 15.9137 30.0941C17.8652 28.1788 19.6889 26.1374 21.3728 23.9831C25.0484 19.2687 26.9121 15.3184 26.9121 12.2422C26.9121 5.90967 21.7603 0.757812 15.4277 0.757812ZM15.4277 28.5963C13.3524 26.5044 5.34961 18.0587 5.34961 12.2422C5.34961 6.6851 9.87064 2.16406 15.4277 2.16406C20.9848 2.16406 25.5059 6.6851 25.5059 12.2422C25.5059 18.0587 17.5031 26.5044 15.4277 28.5963Z" fill="white"/>
<path d="M21.0569 11.2532L15.9007 6.56566C15.7713 6.44801 15.6026 6.38281 15.4277 6.38281C15.2528 6.38281 15.0842 6.44801 14.9547 6.56566L9.79849 11.2532C9.69349 11.3486 9.61983 11.4736 9.5872 11.6117C9.55457 11.7498 9.56449 11.8946 9.61566 12.027C9.66684 12.1593 9.75687 12.2731 9.87391 12.3534C9.99096 12.4336 10.1296 12.4765 10.2715 12.4765H10.9746V15.9922C10.9746 16.1786 11.0487 16.3575 11.1805 16.4894C11.3124 16.6212 11.4912 16.6953 11.6777 16.6953H14.2558C14.4423 16.6953 14.6212 16.6212 14.753 16.4894C14.8849 16.3575 14.959 16.1786 14.959 15.9922V13.8828H15.8965V15.9922C15.8965 16.1786 15.9705 16.3575 16.1024 16.4894C16.2343 16.6212 16.4131 16.6953 16.5996 16.6953H19.1777C19.3642 16.6953 19.543 16.6212 19.6749 16.4894C19.8068 16.3575 19.8808 16.1786 19.8808 15.9922V12.4765H20.584C20.7259 12.4765 20.8645 12.4336 20.9815 12.3534C21.0986 12.2731 21.1886 12.1593 21.2398 12.027C21.2909 11.8946 21.3009 11.7498 21.2682 11.6117C21.2356 11.4736 21.1619 11.3486 21.0569 11.2532ZM18.4746 11.7734V15.289H17.3027V13.1797C17.3027 12.9932 17.2286 12.8143 17.0968 12.6825C16.9649 12.5506 16.7861 12.4765 16.5996 12.4765H14.2558C14.0694 12.4765 13.8905 12.5506 13.7587 12.6825C13.6268 12.8143 13.5527 12.9932 13.5527 13.1797V15.289H12.3808V11.7734C12.3809 11.6448 12.3456 11.5187 12.279 11.4087C12.2123 11.2988 12.1168 11.2092 12.0027 11.1497L15.4277 8.03613L18.8527 11.1497C18.7387 11.2092 18.6431 11.2988 18.5765 11.4087C18.5098 11.5187 18.4746 11.6448 18.4746 11.7734Z" fill="white"/>
</g>
<defs>
<clipPath id="clip0_220_9804">
<rect width="30" height="30" fill="white" transform="translate(0.427734 0.523438)"/>
</clipPath>
</defs>
</svg>
