<svg width="50" height="50" viewBox="0 0 50 50" fill="none" xmlns="http://www.w3.org/2000/svg">
<path d="M38.3342 20.2673C38.3342 12.9157 32.3526 6.93408 25.0011 6.93408C17.6495 6.93408 11.668 12.9157 11.668 20.2673C11.668 27.6189 17.6495 33.6006 25.0011 33.6006C32.3526 33.6006 38.3342 27.6189 38.3342 20.2673ZM25.0011 31.9339C18.5678 31.9339 13.3346 26.7006 13.3346 20.2673C13.3346 13.834 18.5678 8.60074 25.0011 8.60074C31.4343 8.60074 36.6675 13.834 36.6675 20.2673C36.6675 26.7006 31.4343 31.9339 25.0011 31.9339Z" fill="white"/>
<path d="M49.8041 39.5197L41.1801 29.2423C41.3018 28.4906 41.4443 27.7865 41.6951 27.1815C41.9985 26.449 42.5509 25.7082 43.1368 24.9257C44.1342 23.589 45.2659 22.0757 45.2659 20.2665C45.2659 18.4574 44.1351 16.9432 43.1359 15.6066C42.5509 14.8232 41.9985 14.0832 41.6951 13.3507C41.3701 12.5691 41.2268 11.6224 41.076 10.6199C40.8185 8.91827 40.5526 7.15828 39.3302 5.93579C38.1077 4.7133 36.3469 4.44747 34.6444 4.18914C33.6428 4.03747 32.6961 3.89414 31.9153 3.57081C31.1828 3.26748 30.4428 2.71415 29.6595 2.12915C28.3229 1.13166 26.8096 0 24.9996 0C23.1896 0 21.6755 1.13083 20.3397 2.12999C19.5563 2.71498 18.8172 3.26748 18.0847 3.57081C17.3031 3.89497 16.3564 4.03831 15.3548 4.18914C13.6523 4.44747 11.8915 4.7133 10.669 5.93579C9.44653 7.15828 9.1807 8.91827 8.9232 10.6199C8.77154 11.6224 8.62821 12.5691 8.30405 13.3507C8.00072 14.0832 7.44823 14.8232 6.86324 15.6057C5.86492 16.9424 4.73411 18.4565 4.73411 20.2665C4.73411 22.0765 5.86492 23.5898 6.86324 24.9265C7.44823 25.709 8.00072 26.449 8.30405 27.1815C8.55487 27.7865 8.69737 28.4906 8.81904 29.2415L0.195021 39.5197C-0.00497548 39.7581 -0.055808 40.0881 0.0641899 40.3756C0.184188 40.6631 0.45335 40.8589 0.764178 40.8847L8.82154 41.5614L10.8865 49.3797C10.9657 49.6797 11.2065 49.9122 11.5107 49.9797C11.8106 50.048 12.1306 49.9413 12.3306 49.7022L21.253 39.0689C22.3605 39.8447 23.5896 40.5331 25.0004 40.5331C26.4112 40.5331 27.6404 39.8447 28.7479 39.0681L37.6702 49.7013C37.8702 49.9405 38.1902 50.0472 38.4893 49.9788C38.7935 49.9113 39.0335 49.6797 39.1135 49.3788L41.1793 41.5606L49.2367 40.8839C49.5467 40.8581 49.8158 40.6614 49.9358 40.3747C50.0558 40.0864 50.005 39.7572 49.805 39.5189L49.8041 39.5197ZM12.0873 47.3988L10.2823 40.5672C10.1923 40.2272 9.89818 39.9797 9.54652 39.9506L2.50581 39.3597L9.17903 31.4065C9.42236 32.5981 9.80569 33.7331 10.6698 34.5973C11.8923 35.8198 13.6523 36.0856 15.3539 36.3439C16.3564 36.4956 17.3031 36.6389 18.0847 36.9631C18.6797 37.2097 19.2814 37.6231 19.9055 38.0822L12.0873 47.3988ZM21.338 37.0689C20.5072 36.4489 19.6488 35.8064 18.7239 35.4231C17.7539 35.0214 16.6606 34.8556 15.6039 34.6956C14.1023 34.4689 12.684 34.2539 11.849 33.4189C11.014 32.5839 10.7998 31.1656 10.5723 29.6631C10.4123 28.6056 10.2473 27.514 9.84485 26.544C9.46152 25.619 8.81987 24.7598 8.19905 23.929C7.2749 22.6915 6.40158 21.5224 6.40158 20.2665C6.40158 19.0107 7.2749 17.8415 8.19988 16.6032C8.8207 15.7724 9.46152 14.9141 9.84568 13.9882C10.2473 13.0191 10.4132 11.9249 10.5732 10.8691C10.7998 9.3666 11.0148 7.94828 11.8498 7.11329C12.6848 6.27829 14.1039 6.06329 15.6064 5.83663C16.6631 5.67746 17.7555 5.51163 18.7255 5.10997C19.6505 4.7258 20.5088 4.08497 21.3396 3.46414C22.5771 2.53915 23.7471 1.66582 25.0029 1.66582C26.2587 1.66582 27.4279 2.53915 28.6654 3.46331C29.4962 4.08414 30.3553 4.7258 31.2811 5.10997C32.2503 5.51163 33.3436 5.67746 34.3994 5.83663C35.9019 6.06329 37.321 6.27829 38.156 7.11329C38.991 7.94828 39.2052 9.3666 39.4318 10.8683C39.5918 11.9258 39.7577 13.0182 40.1593 13.9882C40.5426 14.9132 41.1843 15.7732 41.806 16.6032C42.7301 17.8407 43.6034 19.0107 43.6034 20.2665C43.6034 21.5224 42.7301 22.6907 41.806 23.9282C41.1851 24.759 40.5426 25.6182 40.1593 26.544C39.7577 27.514 39.5918 28.6073 39.4318 29.6631C39.2052 31.1656 38.9902 32.5839 38.1552 33.4189C37.3202 34.2539 35.9019 34.4689 34.4003 34.6956C33.3428 34.8556 32.2503 35.0214 31.2811 35.4231C30.3562 35.8064 29.4962 36.4481 28.6654 37.0697C27.4279 37.9931 26.2587 38.8664 25.0029 38.8664C23.7471 38.8664 22.578 37.9931 21.3405 37.0689H21.338ZM40.4535 39.9506C40.1027 39.9797 39.8085 40.2272 39.7177 40.5672L37.9135 47.3988L30.0945 38.0814C30.7186 37.6222 31.3203 37.2089 31.9161 36.9622C32.6978 36.6372 33.6444 36.4939 34.6461 36.3431C36.3486 36.0848 38.1077 35.8189 39.3302 34.5964C40.1943 33.7323 40.5776 32.5964 40.821 31.4048L47.495 39.3581L40.4535 39.9489V39.9506Z" fill="white"/>
<path d="M33.2906 18.3252C33.1923 18.0235 32.9315 17.8035 32.6173 17.7577L27.869 17.0669L25.7449 12.7644C25.4641 12.1944 24.5316 12.1944 24.2508 12.7644L22.1266 17.0669L17.3776 17.7577C17.0642 17.8035 16.8034 18.0227 16.7051 18.3252C16.6067 18.626 16.6884 18.9577 16.9159 19.1785L20.3517 22.5285L19.54 27.2585C19.4867 27.571 19.615 27.8868 19.8717 28.0735C20.1292 28.261 20.4683 28.2851 20.7492 28.1368L24.9966 25.9035L29.244 28.1368C29.5249 28.2843 29.864 28.261 30.1223 28.0735C30.379 27.8868 30.5073 27.571 30.4532 27.2585L29.6415 22.5285L33.0781 19.1785C33.3048 18.9569 33.3864 18.626 33.289 18.3252H33.2906ZM28.1665 21.641C27.9707 21.8318 27.8807 22.1085 27.9274 22.3785L28.5274 25.876L25.3866 24.2252C25.2649 24.161 25.1316 24.1293 24.9991 24.1293C24.8666 24.1293 24.7324 24.161 24.6116 24.2252L21.4708 25.876L22.0708 22.3785C22.1166 22.1085 22.0275 21.8327 21.8308 21.641L19.29 19.1644L22.8016 18.6535C23.0733 18.6144 23.3075 18.4435 23.4283 18.1977L24.9991 15.0169L26.5699 18.1977C26.6916 18.4435 26.9257 18.6144 27.1974 18.6535L30.7082 19.1644L28.1674 21.641H28.1665Z" fill="white"/>
</svg>
