<svg width="50" height="51" viewBox="0 0 50 51" fill="none" xmlns="http://www.w3.org/2000/svg">
<g clip-path="url(#clip0_335_18080)">
<path fill-rule="evenodd" clip-rule="evenodd" d="M26.5291 25.4968C22.4867 25.4968 22.8863 25.8803 22.8863 23.7047C22.1225 23.4474 21.4124 23.0508 20.7971 22.5369C18.8457 23.6229 19.405 23.7949 17.3682 20.3929C16.9525 19.6986 17.9987 19.3503 18.676 18.9732C18.5299 18.2165 18.5296 17.4334 18.6758 16.6775C16.7108 15.5847 16.8649 16.0998 18.8964 12.706C19.284 12.0585 20.0577 12.7028 20.7974 13.1141C21.4124 12.6011 22.1222 12.2041 22.886 11.9466C22.886 9.77073 22.4864 10.1542 26.5288 10.1542C27.2976 10.1542 27.1147 11.1518 27.1147 11.9466C27.8785 12.2041 28.5884 12.6008 29.2033 13.1144C31.1545 12.0278 30.5952 11.8552 32.6325 15.2581C33.0483 15.9524 32.0003 16.3016 31.3247 16.6778C31.4712 17.436 31.4709 18.2153 31.3247 18.9738C33.29 20.0677 33.1353 19.5527 31.1038 22.9456C30.7162 23.5933 29.9434 22.9494 29.2042 22.5381C28.589 23.0516 27.8791 23.4483 27.1147 23.7058C27.1147 24.5013 27.2976 25.4965 26.5291 25.4965V25.4968ZM24.0579 24.3249H25.9432C25.9432 23.5816 25.7946 22.8545 26.3814 22.7012C28.5582 22.1332 28.6666 20.8968 29.4099 21.3102L30.3904 21.856L31.3165 20.3097C29.3861 19.2363 30.2627 19.7505 30.2627 17.8259C30.2627 15.9005 29.3864 16.415 31.3165 15.3415L30.3904 13.7953C29.7125 14.1729 29.145 14.6616 28.7188 14.2526C27.1106 12.7086 25.9429 13.2585 25.9429 12.3834V11.3264L24.0576 11.3261C24.0576 12.0705 24.2061 12.7974 23.6193 12.9503C21.444 13.5175 21.3342 14.7556 20.5912 14.3413L19.6094 13.795L18.6834 15.3413C20.6137 16.415 19.7372 15.9005 19.7372 17.8256C19.7372 19.7496 20.6135 19.236 18.6834 20.3097L19.6094 21.856C20.2912 21.4766 20.8546 20.99 21.2814 21.399C22.8963 22.9465 24.0573 22.3927 24.0573 23.2681V24.3252H24.0576L24.0579 24.3249Z" fill="url(#paint0_linear_335_18080)"/>
<path fill-rule="evenodd" clip-rule="evenodd" d="M25.0003 20.7583C23.3345 20.7583 21.9795 19.4429 21.9795 17.8254C21.9795 16.2082 23.3345 14.8925 25.0003 14.8925C26.6655 14.8925 28.0205 16.2079 28.0205 17.8254C28.0211 19.4426 26.6658 20.7583 25.0003 20.7583ZM25.0003 16.0643C22.5637 16.0643 22.5643 19.5864 25.0003 19.5864C27.4355 19.5864 27.4361 16.0643 25.0003 16.0643Z" fill="url(#paint1_linear_335_18080)"/>
<path fill-rule="evenodd" clip-rule="evenodd" d="M32.1431 43.1037H17.8567C17.5332 43.1037 17.2707 42.8409 17.2707 42.5177C17.2707 27.8745 11.0967 30.5889 11.0967 21.3711C11.0967 13.7053 17.3337 7.46826 24.9996 7.46826C32.6657 7.46826 38.9025 13.7053 38.9025 21.3711C38.9025 30.5859 32.7252 27.8842 32.7287 42.5177C32.729 42.8409 32.4665 43.1037 32.1431 43.1037ZM18.4394 41.9312H31.5603C31.7203 27.5771 37.7306 29.918 37.7306 21.3706C37.7306 14.3507 32.0197 8.63956 24.9999 8.63956C17.98 8.63956 12.2689 14.3507 12.2689 21.3706C12.2689 29.9168 18.2806 27.578 18.4394 41.9312Z" fill="url(#paint2_linear_335_18080)"/>
<path fill-rule="evenodd" clip-rule="evenodd" d="M32.1428 46.5991H17.8564C17.533 46.5991 17.2705 46.3363 17.2705 46.0132V42.5178C17.2705 41.7464 18.4424 41.7467 18.4424 42.5178V45.4272H31.5563V42.5178C31.5563 41.7464 32.7282 41.7467 32.7282 42.5178V46.0132C32.7288 46.3363 32.4663 46.5991 32.1428 46.5991Z" fill="url(#paint3_linear_335_18080)"/>
<path fill-rule="evenodd" clip-rule="evenodd" d="M32.2949 39.497H17.7153C16.9439 39.497 16.9439 38.3251 17.7153 38.3251H32.2949C33.0663 38.3251 33.0663 39.497 32.2949 39.497Z" fill="url(#paint4_linear_335_18080)"/>
<path fill-rule="evenodd" clip-rule="evenodd" d="M25.0003 50.6872C20.8454 50.6872 19.3223 45.4269 20.9122 45.4269C21.2356 45.4269 21.4981 45.6897 21.4981 46.0128C21.4981 47.9441 23.0693 49.515 25.0003 49.515C26.9313 49.515 28.5025 47.9438 28.5025 46.0128C28.5025 45.2414 29.6744 45.2417 29.6744 46.0128C29.6746 48.5901 27.5776 50.6872 25.0003 50.6872Z" fill="url(#paint5_linear_335_18080)"/>
<path fill-rule="evenodd" clip-rule="evenodd" d="M27.3272 39.497C27.0037 39.497 26.7412 39.2342 26.7412 38.911V29.2445C26.7412 29.035 26.8531 28.8417 27.0348 28.7371L30.3781 26.8073C31.0455 26.4217 31.6323 27.4357 30.9641 27.8218L27.914 29.5826V38.911C27.9131 39.2345 27.6506 39.497 27.3272 39.497Z" fill="url(#paint6_linear_335_18080)"/>
<path fill-rule="evenodd" clip-rule="evenodd" d="M22.6732 39.4969C22.3497 39.4969 22.0872 39.2341 22.0872 38.911V29.5825L19.0371 27.8218C18.3689 27.4362 18.9542 26.4199 19.6231 26.8072L22.9659 28.737C23.1472 28.8416 23.2588 29.035 23.2588 29.2444V38.911C23.2591 39.2344 22.9969 39.4969 22.6732 39.4969Z" fill="url(#paint7_linear_335_18080)"/>
<path fill-rule="evenodd" clip-rule="evenodd" d="M25.001 7.01067C24.6775 7.01067 24.415 6.74817 24.415 6.42473V1.27373C24.415 0.502343 25.5869 0.502343 25.5869 1.27373V6.42473C25.5869 6.74875 25.3244 7.01067 25.001 7.01067Z" fill="url(#paint8_linear_335_18080)"/>
<path fill-rule="evenodd" clip-rule="evenodd" d="M35.142 9.72828C34.6975 9.72828 34.4075 9.24371 34.6351 8.84937L37.2103 4.38861C37.5956 3.72093 38.611 4.306 38.2249 4.97455L35.6497 9.43531C35.541 9.6234 35.3441 9.72828 35.142 9.72828Z" fill="url(#paint9_linear_335_18080)"/>
<path fill-rule="evenodd" clip-rule="evenodd" d="M42.5669 17.153C41.9722 17.153 41.7554 16.3585 42.2734 16.0594L46.7347 13.4839C47.4021 13.098 47.9886 14.1126 47.3207 14.4984C46.7142 14.8485 42.9135 17.153 42.5669 17.153Z" fill="url(#paint10_linear_335_18080)"/>
<path fill-rule="evenodd" clip-rule="evenodd" d="M14.8582 9.72821C14.6555 9.72821 14.4586 9.62303 14.3499 9.43524L11.7744 4.97448C11.3886 4.30563 12.4043 3.72116 12.789 4.38854L15.3648 8.8493C15.5918 9.24305 15.303 9.72821 14.8582 9.72821Z" fill="url(#paint11_linear_335_18080)"/>
<path fill-rule="evenodd" clip-rule="evenodd" d="M7.4324 17.1529C7.08435 17.1529 3.28658 14.8493 2.67925 14.4986C2.01187 14.1134 2.59664 13.0982 3.26519 13.4841L7.72595 16.0596C8.24305 16.3581 8.0283 17.1529 7.4324 17.1529Z" fill="url(#paint12_linear_335_18080)"/>
</g>
<defs>
<linearGradient id="paint0_linear_335_18080" x1="17.2734" y1="17.8255" x2="32.7272" y2="17.8255" gradientUnits="userSpaceOnUse">
<stop stop-color="#1956C1"/>
<stop offset="1" stop-color="#E2403B"/>
</linearGradient>
<linearGradient id="paint1_linear_335_18080" x1="21.9795" y1="17.8254" x2="28.0205" y2="17.8254" gradientUnits="userSpaceOnUse">
<stop stop-color="#1956C1"/>
<stop offset="1" stop-color="#E2403B"/>
</linearGradient>
<linearGradient id="paint2_linear_335_18080" x1="11.0967" y1="25.286" x2="38.9025" y2="25.286" gradientUnits="userSpaceOnUse">
<stop stop-color="#1956C1"/>
<stop offset="1" stop-color="#E2403B"/>
</linearGradient>
<linearGradient id="paint3_linear_335_18080" x1="17.2705" y1="44.2692" x2="32.7282" y2="44.2692" gradientUnits="userSpaceOnUse">
<stop stop-color="#1956C1"/>
<stop offset="1" stop-color="#E2403B"/>
</linearGradient>
<linearGradient id="paint4_linear_335_18080" x1="17.1367" y1="38.911" x2="32.8734" y2="38.911" gradientUnits="userSpaceOnUse">
<stop stop-color="#1956C1"/>
<stop offset="1" stop-color="#E2403B"/>
</linearGradient>
<linearGradient id="paint5_linear_335_18080" x1="20.2949" y1="48.057" x2="29.6744" y2="48.057" gradientUnits="userSpaceOnUse">
<stop stop-color="#1956C1"/>
<stop offset="1" stop-color="#E2403B"/>
</linearGradient>
<linearGradient id="paint6_linear_335_18080" x1="26.7412" y1="33.1091" x2="31.2587" y2="33.1091" gradientUnits="userSpaceOnUse">
<stop stop-color="#1956C1"/>
<stop offset="1" stop-color="#E2403B"/>
</linearGradient>
<linearGradient id="paint7_linear_335_18080" x1="18.7422" y1="33.1088" x2="23.2588" y2="33.1088" gradientUnits="userSpaceOnUse">
<stop stop-color="#1956C1"/>
<stop offset="1" stop-color="#E2403B"/>
</linearGradient>
<linearGradient id="paint8_linear_335_18080" x1="24.415" y1="3.85293" x2="25.5869" y2="3.85293" gradientUnits="userSpaceOnUse">
<stop stop-color="#1956C1"/>
<stop offset="1" stop-color="#E2403B"/>
</linearGradient>
<linearGradient id="paint9_linear_335_18080" x1="34.5557" y1="6.91114" x2="38.311" y2="6.91114" gradientUnits="userSpaceOnUse">
<stop stop-color="#1956C1"/>
<stop offset="1" stop-color="#E2403B"/>
</linearGradient>
<linearGradient id="paint10_linear_335_18080" x1="41.9814" y1="15.2754" x2="47.6152" y2="15.2754" gradientUnits="userSpaceOnUse">
<stop stop-color="#1956C1"/>
<stop offset="1" stop-color="#E2403B"/>
</linearGradient>
<linearGradient id="paint11_linear_335_18080" x1="11.6885" y1="6.9111" x2="15.4441" y2="6.9111" gradientUnits="userSpaceOnUse">
<stop stop-color="#1956C1"/>
<stop offset="1" stop-color="#E2403B"/>
</linearGradient>
<linearGradient id="paint12_linear_335_18080" x1="2.38477" y1="15.2755" x2="8.01782" y2="15.2755" gradientUnits="userSpaceOnUse">
<stop stop-color="#1956C1"/>
<stop offset="1" stop-color="#E2403B"/>
</linearGradient>
<clipPath id="clip0_335_18080">
<rect width="50" height="50" fill="white" transform="translate(0 0.6875)"/>
</clipPath>
</defs>
</svg>
