<svg width="20" height="21" viewBox="0 0 20 21" fill="none" xmlns="http://www.w3.org/2000/svg">
<g clip-path="url(#clip0_98_757)">
<path d="M11.6667 8.0752L19.0083 9.53353C19.6 9.65853 20 10.1585 20 10.7502V19.2502C20 19.9419 19.4417 20.5002 18.75 20.5002H11.25C11.4833 20.5002 11.6667 20.3169 11.6667 20.0835V19.6669H18.75C18.975 19.6669 19.1667 19.4835 19.1667 19.2502V10.7502C19.1667 10.5585 19.0333 10.3835 18.8417 10.3419L11.6667 8.92519V8.0752Z" fill="white"/>
<path d="M16.2503 12.167C16.4837 12.167 16.667 12.3503 16.667 12.5837C16.667 12.817 16.4837 13.0003 16.2503 13.0003H14.5837C14.3503 13.0003 14.167 12.817 14.167 12.5837C14.167 12.3503 14.3503 12.167 14.5837 12.167H16.2503Z" fill="white"/>
<path d="M16.2503 14.667C16.4837 14.667 16.667 14.8503 16.667 15.0837C16.667 15.317 16.4837 15.5003 16.2503 15.5003H14.5837C14.3503 15.5003 14.167 15.317 14.167 15.0837C14.167 14.8503 14.3503 14.667 14.5837 14.667H16.2503Z" fill="white"/>
<path d="M16.2503 17.167C16.4837 17.167 16.667 17.3503 16.667 17.5837C16.667 17.817 16.4837 18.0003 16.2503 18.0003H14.5837C14.3503 18.0003 14.167 17.817 14.167 17.5837C14.167 17.3503 14.3503 17.167 14.5837 17.167H16.2503Z" fill="white"/>
<path d="M11.6663 20.0832C11.6663 20.3165 11.483 20.4999 11.2497 20.4999C11.0163 20.4999 10.833 20.3165 10.833 20.0832V19.6665V8.41654C10.833 8.29154 10.8913 8.17487 10.983 8.09154C11.083 8.01654 11.208 7.98321 11.333 8.00821L11.6663 8.07487V8.92487V19.6665V20.0832Z" fill="white"/>
<path d="M10.8337 19.667V20.0837C10.8337 20.317 11.017 20.5003 11.2503 20.5003H7.91699C8.15033 20.5003 8.33366 20.317 8.33366 20.0837V19.667H10.8337Z" fill="white"/>
<path d="M8.75033 4.66699C8.98366 4.66699 9.16699 4.85033 9.16699 5.08366C9.16699 5.31699 8.98366 5.50033 8.75033 5.50033H7.08366C6.85033 5.50033 6.66699 5.31699 6.66699 5.08366C6.66699 4.85033 6.85033 4.66699 7.08366 4.66699H8.75033Z" fill="white"/>
<path d="M9.16699 7.58366C9.16699 7.81699 8.98366 8.00033 8.75033 8.00033H7.08366C6.85033 8.00033 6.66699 7.81699 6.66699 7.58366C6.66699 7.35033 6.85033 7.16699 7.08366 7.16699H8.75033C8.98366 7.16699 9.16699 7.35033 9.16699 7.58366Z" fill="white"/>
<path d="M8.75033 9.66699C8.98366 9.66699 9.16699 9.85033 9.16699 10.0837C9.16699 10.317 8.98366 10.5003 8.75033 10.5003H7.08366C6.85033 10.5003 6.66699 10.317 6.66699 10.0837C6.66699 9.85033 6.85033 9.66699 7.08366 9.66699H8.75033Z" fill="white"/>
<path d="M8.75033 12.167C8.98366 12.167 9.16699 12.3503 9.16699 12.5837C9.16699 12.817 8.98366 13.0003 8.75033 13.0003H7.08366C6.85033 13.0003 6.66699 12.817 6.66699 12.5837C6.66699 12.3503 6.85033 12.167 7.08366 12.167H8.75033Z" fill="white"/>
<path d="M5 12.5837C5 12.817 4.81667 13.0003 4.58333 13.0003H2.91667C2.68333 13.0003 2.5 12.817 2.5 12.5837C2.5 12.3503 2.68333 12.167 2.91667 12.167H4.58333C4.81667 12.167 5 12.3503 5 12.5837Z" fill="white"/>
<path d="M4.58333 4.66699C4.81667 4.66699 5 4.85033 5 5.08366C5 5.31699 4.81667 5.50033 4.58333 5.50033H2.91667C2.68333 5.50033 2.5 5.31699 2.5 5.08366C2.5 4.85033 2.68333 4.66699 2.91667 4.66699H4.58333Z" fill="white"/>
<path d="M4.58333 7.16699C4.81667 7.16699 5 7.35033 5 7.58366C5 7.81699 4.81667 8.00033 4.58333 8.00033H2.91667C2.68333 8.00033 2.5 7.81699 2.5 7.58366C2.5 7.35033 2.68333 7.16699 2.91667 7.16699H4.58333Z" fill="white"/>
<path d="M4.58333 9.66699C4.81667 9.66699 5 9.85033 5 10.0837C5 10.317 4.81667 10.5003 4.58333 10.5003H2.91667C2.68333 10.5003 2.5 10.317 2.5 10.0837C2.5 9.85033 2.68333 9.66699 2.91667 9.66699H4.58333Z" fill="white"/>
<path d="M7.49967 15.917C7.49967 15.6837 7.30801 15.5003 7.08301 15.5003H4.58301C4.34967 15.5003 4.16634 15.6837 4.16634 15.917V19.667H3.33301V15.917C3.33301 15.2253 3.89134 14.667 4.58301 14.667H7.08301C7.77467 14.667 8.33301 15.2253 8.33301 15.917V19.667H7.49967V15.917Z" fill="white"/>
<path d="M4.16634 19.667H7.49967H8.33301V20.0837C8.33301 20.317 8.14967 20.5003 7.91634 20.5003H3.74967C3.51634 20.5003 3.33301 20.317 3.33301 20.0837V19.667H4.16634Z" fill="white"/>
<path d="M1.45833 0.666615L10.6167 2.05828C11.225 2.15828 11.6667 2.67495 11.6667 3.29161V8.07495L11.3333 8.00828C11.2083 7.98328 11.0833 8.01661 10.9833 8.09161C10.8917 8.17495 10.8333 8.29161 10.8333 8.41661V3.29161C10.8333 3.08328 10.6833 2.90828 10.4833 2.87495L1.325 1.49161C1.3 1.48328 1.275 1.48328 1.25 1.48328C1.15 1.48328 1.05833 1.51661 0.983333 1.58328C0.883333 1.66661 0.833333 1.77495 0.833333 1.89995V19.2499C0.833333 19.4833 1.025 19.6666 1.25 19.6666H3.33333V20.0833C3.33333 20.3166 3.51667 20.4999 3.75 20.4999H1.25C0.558333 20.4999 0 19.9416 0 19.2499V1.89995C0 1.53328 0.158333 1.18328 0.441667 0.949948C0.725 0.708281 1.09167 0.608281 1.45833 0.666615Z" fill="white"/>
</g>
<defs>
<clipPath id="clip0_98_757">
<rect width="20" height="20" fill="white" transform="translate(0 0.5)"/>
</clipPath>
</defs>
</svg>
