<svg width="51" height="51" viewBox="0 0 51 51" fill="none" xmlns="http://www.w3.org/2000/svg">
<g clip-path="url(#clip0_470_17)">
<path d="M32.375 50.335H19.4062C18.9375 50.335 18.625 49.9443 18.625 49.5537V45.96C18.625 45.4912 19.0156 45.1787 19.4062 45.1787C19.7969 45.1787 20.1875 45.5693 20.1875 45.96V48.7725H31.5156V45.96C31.5156 45.4912 31.9062 45.1787 32.2969 45.1787C32.6875 45.1787 33.0781 45.5693 33.0781 45.96V49.5537C33.1563 50.0225 32.7656 50.335 32.375 50.335Z" fill="white"/>
<path d="M35.9687 50.335H15.8125C15.3437 50.335 15.0312 49.9443 15.0312 49.5537C15.0312 49.1631 15.4219 48.7725 15.8125 48.7725H35.9687C36.4375 48.7725 36.75 49.1631 36.75 49.5537C36.75 49.9443 36.3594 50.335 35.9687 50.335Z" fill="white"/>
<path d="M49.7188 35.0225H2.0625C1.59375 35.0225 1.28125 34.6318 1.28125 34.2412V18.46C1.28125 17.9912 1.67188 17.6787 2.0625 17.6787C2.45312 17.6787 2.84375 18.0693 2.84375 18.46V33.3818H48.9375V10.5693C48.9375 9.24121 47.8438 8.14746 46.5156 8.14746H20.9688C20.5 8.14746 20.1875 7.75684 20.1875 7.36621C20.1875 6.97559 20.5781 6.58496 20.9688 6.58496H46.5156C48.7031 6.58496 50.5 8.38184 50.5 10.5693V34.2412C50.5 34.6318 50.1094 35.0225 49.7188 35.0225Z" fill="white"/>
<path d="M46.5156 43.5381H5.1875C3 43.5381 1.28125 41.7412 1.28125 39.5537V34.1631C1.28125 33.6943 1.67188 33.3818 2.0625 33.3818H49.7188C50.1875 33.3818 50.5 33.7725 50.5 34.1631V39.5537C50.5 41.7412 48.7031 43.5381 46.5156 43.5381ZM2.84375 35.0225V39.5537C2.84375 40.8818 3.9375 41.9756 5.26562 41.9756H46.5938C47.9219 41.9756 49.0156 40.8818 49.0156 39.5537V35.0225H2.84375Z" fill="white"/>
<path d="M25.8906 40.8818C24.5625 40.8818 23.5469 39.7881 23.5469 38.5381C23.5469 37.21 24.6406 36.1943 25.8906 36.1943C27.2188 36.1943 28.2344 37.2881 28.2344 38.5381C28.2344 39.7881 27.2188 40.8818 25.8906 40.8818ZM25.8906 37.6787C25.4219 37.6787 25.1094 38.0693 25.1094 38.46C25.1094 38.9287 25.5 39.2412 25.8906 39.2412C26.3594 39.2412 26.6719 38.8506 26.6719 38.46C26.6719 38.0693 26.2812 37.6787 25.8906 37.6787Z" fill="white"/>
<path d="M26.3594 31.4287H25.3437C24.4844 31.4287 23.7031 30.8037 23.5469 29.9443L23.3125 28.3818C23.3125 28.3037 23.2344 28.2256 23.1562 28.2256C22.9219 28.1475 22.6875 28.0693 22.4531 27.9131C22.375 27.9131 22.2969 27.835 22.2187 27.9131L20.9688 28.8506C20.2656 29.3975 19.25 29.3193 18.625 28.6943L17.9219 27.9131C17.2969 27.2881 17.2188 26.3506 17.7656 25.6475L18.7031 24.3975C18.7812 24.3193 18.7812 24.2412 18.7031 24.1631C18.625 23.9287 18.4687 23.6943 18.3906 23.46C18.3906 23.46 18.3125 23.3818 18.2344 23.3037L16.6719 23.0693C15.9688 22.9912 15.3438 22.21 15.3438 21.3506V20.2568C15.3438 19.3975 15.9687 18.6162 16.8281 18.46L18.3906 18.2256C18.4687 18.2256 18.5469 18.1475 18.5469 18.0693C18.625 17.835 18.7031 17.6006 18.8594 17.3662C18.8594 17.2881 18.8594 17.21 18.8594 17.21L17.8438 15.96C17.2969 15.2568 17.375 14.3193 18 13.6943L18.7031 12.9131C19.3281 12.2881 20.3437 12.21 21.0469 12.7568L22.2969 13.6943C22.375 13.7725 22.4531 13.6943 22.5313 13.6943C22.7656 13.6162 23 13.46 23.2344 13.3818C23.3125 13.3818 23.3906 13.3037 23.3906 13.2256L23.625 11.6631C23.7813 10.8037 24.4844 10.1787 25.4219 10.1787H26.4375C27.2969 10.1787 28.0781 10.8037 28.2344 11.6631L28.4687 13.2256C28.4687 13.3037 28.5469 13.3818 28.625 13.3818C28.8594 13.46 29.0938 13.5381 29.3281 13.6943H29.5625L30.8125 12.7568C31.5156 12.2881 32.5312 12.2881 33.1562 12.9131L33.8594 13.6943C34.4844 14.3193 34.5625 15.2568 34.0156 15.96L33.0781 17.21C33 17.2881 33 17.3662 33.0781 17.4443C33.1563 17.6787 33.3125 17.9131 33.3906 18.1475C33.3906 18.2256 33.4687 18.3037 33.5469 18.3037L35.1094 18.5381C35.9687 18.6943 36.5938 19.3975 36.5938 20.335V21.4287C36.5938 22.2881 35.9687 23.0693 35.1094 23.2256L33.5469 23.46C33.4687 23.46 33.3906 23.5381 33.3906 23.6162C33.3125 23.8506 33.2344 24.085 33.0781 24.3193V24.4756L34.0156 25.7256C34.5625 26.4287 34.4844 27.3662 33.8594 27.9912L33.1562 28.7725C32.5312 29.3975 31.5156 29.4756 30.8125 28.9287L29.4062 27.9131C29.3281 27.835 29.25 27.835 29.1719 27.9131C28.9375 27.9912 28.7031 28.1475 28.4687 28.2256C28.3906 28.2256 28.3906 28.3037 28.3906 28.3818L28.1563 29.9443C28 30.8037 27.2969 31.4287 26.3594 31.4287ZM22.4531 26.3506C22.6875 26.3506 23 26.4287 23.2344 26.5068C23.3906 26.585 23.625 26.6631 23.7812 26.7412C24.4062 26.9756 24.7969 27.5225 24.9531 28.1475L25.1875 29.71C25.1875 29.7881 25.2656 29.8662 25.3437 29.8662H26.3594C26.4375 29.8662 26.5156 29.7881 26.5156 29.71L26.75 28.1475C26.8281 27.5225 27.2969 26.9756 27.9219 26.7412C28.1562 26.6631 28.3125 26.585 28.4687 26.5068C29.0156 26.2725 29.7969 26.2725 30.2656 26.6631L31.5156 27.6006C31.5938 27.6787 31.6719 27.6787 31.75 27.6006L32.4531 26.8193C32.5313 26.7412 32.5313 26.6631 32.4531 26.585L31.6719 25.335C31.2813 24.7881 31.2031 24.1631 31.5156 23.5381C31.5938 23.3818 31.6719 23.1475 31.75 22.9912C31.9844 22.3662 32.5312 21.8975 33.1562 21.8193L34.6406 21.585C34.7188 21.585 34.7969 21.5068 34.7969 21.4287V20.335C34.7969 20.2568 34.7188 20.1787 34.6406 20.1787L33.0781 19.9443C32.4531 19.8662 31.9063 19.3975 31.6719 18.7725C31.5938 18.5381 31.5156 18.3818 31.4375 18.2256C31.125 17.6006 31.2031 16.8975 31.5937 16.4287L32.5312 15.1787C32.6094 15.1006 32.6094 15.0225 32.5312 14.9443L31.8281 14.2412C31.75 14.1631 31.6719 14.1631 31.5937 14.2412L30.3438 15.1787C29.875 15.5693 29.0938 15.6475 28.5469 15.335C28.3906 15.2568 28.1563 15.1787 28 15.1006C27.375 14.8662 26.9844 14.3193 26.8281 13.6943L26.5938 12.1318C26.5938 12.0537 26.5156 11.9756 26.4375 11.9756H25.4219C25.3437 11.9756 25.2656 12.0537 25.2656 12.1318L25.0312 13.6943C24.9531 14.3193 24.4844 14.8662 23.8594 15.1006C23.7031 15.1787 23.4688 15.2568 23.3125 15.335C22.7656 15.5693 21.9844 15.5693 21.5156 15.1787L20.2656 14.2412C20.1875 14.1631 20.1094 14.1631 20.0312 14.2412L19.3281 15.0225C19.25 15.1006 19.25 15.1787 19.3281 15.2568L20.2656 16.5068C20.6562 17.0537 20.7344 17.6787 20.4219 18.3037C20.3437 18.46 20.2656 18.6943 20.1875 18.8506C19.9531 19.4756 19.4062 19.9443 18.7812 20.0225L17.2969 20.2568C17.2187 20.2568 17.1406 20.335 17.1406 20.4131V21.5068C17.1406 21.585 17.2187 21.6631 17.2969 21.6631L18.8594 21.8975C19.4844 21.9756 20.0312 22.4443 20.2656 23.0693C20.3437 23.3037 20.4219 23.46 20.5 23.6162C20.8125 24.2412 20.7344 24.9443 20.3437 25.4131L19.4063 26.6631C19.3281 26.7412 19.3281 26.8193 19.4063 26.8975L20.1094 27.6006C20.1875 27.6787 20.2656 27.6787 20.3437 27.6006L21.5938 26.6631C21.6719 26.4287 22.0625 26.3506 22.4531 26.3506Z" fill="white"/>
<path d="M25.8906 25.2568C23.3906 25.2568 21.4375 23.2256 21.4375 20.8037C21.4375 18.3818 23.4688 16.3506 25.8906 16.3506C28.3906 16.3506 30.3438 18.3818 30.3438 20.8037C30.3438 23.2256 28.3125 25.2568 25.8906 25.2568ZM25.8906 17.9131C24.3281 17.9131 23 19.2412 23 20.8037C23 22.3662 24.3281 23.6943 25.8906 23.6943C27.4531 23.6943 28.7813 22.3662 28.7813 20.8037C28.7813 19.2412 27.4531 17.9131 25.8906 17.9131Z" fill="white"/>
<path d="M10.1875 19.0068H9.32813C8.54688 19.0068 7.84375 18.3818 7.6875 17.6006L7.45312 16.2725C7.21875 16.1162 6.98438 16.0381 6.75 15.96L5.65625 16.7412C4.95312 17.21 4.01562 17.1318 3.46875 16.585L2.92187 15.96C2.375 15.4131 2.29688 14.4756 2.76563 13.8506L3.54688 12.7568C3.46875 12.5225 3.39062 12.2881 3.3125 12.0537L1.90625 11.8193C1.125 11.6631 0.5 10.96 0.5 10.1787V9.24121C0.5 8.45996 1.125 7.75684 1.90625 7.60059L3.23438 7.36621L3.3125 7.28809C3.39062 7.05371 3.46875 6.89746 3.54688 6.66309L2.76563 5.49121C2.29688 4.78809 2.375 3.92871 2.92187 3.38184L3.54688 2.75684C4.09375 2.20996 5.03125 2.13184 5.73437 2.60059L6.82813 3.38184C7.0625 3.30371 7.29687 3.22559 7.53125 3.14746L7.76563 1.74121C7.92188 0.959961 8.625 0.334961 9.40625 0.334961H10.2656C11.0469 0.334961 11.75 0.959961 11.9063 1.74121L12.1406 3.06934L12.2188 3.14746C12.4531 3.22559 12.6094 3.30371 12.8438 3.38184L14.0156 2.60059C14.6406 2.13184 15.6563 2.20996 16.2031 2.75684L16.8281 3.38184C17.375 3.92871 17.4531 4.86621 16.9844 5.49121L16.2031 6.58496C16.2813 6.81934 16.3594 7.05371 16.4375 7.28809L17.8438 7.52246C18.625 7.67871 19.25 8.38184 19.25 9.16309V10.1006C19.25 10.96 18.625 11.585 17.8438 11.7412L16.5156 11.9756C16.3594 12.21 16.2813 12.4443 16.2031 12.6787L16.9844 13.8506C17.4531 14.4756 17.375 15.4131 16.8281 15.96L16.2031 16.585C15.6563 17.1318 14.6406 17.21 14.0156 16.7412L12.9219 15.96C12.6875 16.0381 12.4531 16.1162 12.2188 16.1943L11.9844 17.6006C11.75 18.46 11.0469 19.0068 10.1875 19.0068ZM6.82813 14.3975C7.0625 14.3975 7.29687 14.4756 7.53125 14.5537C7.6875 14.6318 7.84375 14.71 8 14.7881C8.54688 15.0225 8.9375 15.4912 9.09375 16.1162L9.32813 17.4443L10.2656 17.5225C10.2656 17.5225 10.3438 17.5225 10.3438 17.4443L10.5781 16.1162C10.6562 15.4912 11.0469 15.0225 11.6719 14.7881C11.8281 14.71 11.9844 14.6318 12.1406 14.6318C12.6875 14.3193 13.3906 14.3975 13.8594 14.7881L14.9531 15.5693H15.0313L15.6562 14.9443V14.8662L14.875 13.7725C14.4844 13.3037 14.4844 12.6787 14.7188 12.0537C14.7969 11.8975 14.875 11.7412 14.9531 11.585C15.1875 11.0381 15.6563 10.5693 16.2813 10.4912L17.5312 10.2568L17.6094 10.1787V9.24121L17.5312 9.16309L16.0469 8.92871C15.4219 8.85059 14.9531 8.45996 14.7188 7.83496C14.7188 7.67871 14.6406 7.52246 14.5625 7.36621C14.3281 6.81934 14.3281 6.11621 14.7188 5.64746L15.5 4.55371V4.47559L14.875 3.85059H14.7969L13.7031 4.63184C13.2344 5.02246 12.5312 5.02246 11.9844 4.78809C11.8281 4.70996 11.6719 4.63184 11.5156 4.55371C10.9688 4.31934 10.5781 3.85059 10.4219 3.22559L10.1875 1.89746H9.32813C9.32813 1.89746 9.25 1.89746 9.25 1.97559L9.01562 3.30371C8.9375 3.92871 8.54688 4.39746 7.92188 4.63184C7.84375 4.70996 7.6875 4.70996 7.53125 4.78809C6.98438 5.10059 6.28125 5.02246 5.8125 4.63184L4.71875 3.85059H4.64063L4.01562 4.47559V4.55371L4.79688 5.64746C5.1875 6.19434 5.26562 6.81934 4.95312 7.36621C4.875 7.52246 4.79688 7.67871 4.79688 7.83496C4.5625 8.38184 4.09375 8.85059 3.46875 8.92871L2.14062 9.16309L2.0625 9.24121V10.1787L2.14062 10.2568L3.46875 10.4912C4.09375 10.5693 4.5625 10.96 4.79688 11.585L5.03125 12.0537C5.26563 12.6006 5.26562 13.3037 4.875 13.7725L4.09375 14.8662V14.9443L4.71875 15.5693L5.1875 16.1162L4.71875 15.4912L5.8125 14.71C6.125 14.4756 6.4375 14.3975 6.82813 14.3975Z" fill="white"/>
<path d="M9.79687 13.6162C7.53125 13.6162 5.8125 11.8975 5.8125 9.70996C5.8125 7.52246 7.53125 5.72559 9.79687 5.72559C12.0625 5.72559 13.7812 7.44434 13.7812 9.70996C13.7812 11.9756 11.9844 13.6162 9.79687 13.6162ZM9.79687 7.28809C8.46875 7.28809 7.375 8.38184 7.375 9.70996C7.375 11.0381 8.46875 12.1318 9.79687 12.1318C11.125 12.1318 12.2187 11.0381 12.2187 9.70996C12.1406 8.38184 11.0469 7.28809 9.79687 7.28809Z" fill="white"/>
</g>
<defs>
<clipPath id="clip0_470_17">
<rect width="50" height="50" fill="white" transform="translate(0.5 0.334961)"/>
</clipPath>
</defs>
</svg>
