<svg width="50" height="51" viewBox="0 0 50 51" fill="none" xmlns="http://www.w3.org/2000/svg">
<path d="M25 18.0781C23.7639 18.0781 22.5555 18.4447 21.5277 19.1314C20.4999 19.8182 19.6988 20.7943 19.2258 21.9364C18.7527 23.0784 18.6289 24.3351 18.8701 25.5474C19.1113 26.7598 19.7065 27.8735 20.5806 28.7475C21.4547 29.6216 22.5683 30.2169 23.7807 30.458C24.9931 30.6992 26.2497 30.5754 27.3918 30.1024C28.5338 29.6293 29.5099 28.8282 30.1967 27.8004C30.8834 26.7726 31.25 25.5643 31.25 24.3281C31.25 22.6705 30.5915 21.0808 29.4194 19.9087C28.2473 18.7366 26.6576 18.0781 25 18.0781ZM25 29.0156C24.0729 29.0156 23.1666 28.7407 22.3958 28.2256C21.6249 27.7106 21.0241 26.9785 20.6693 26.122C20.3145 25.2654 20.2217 24.3229 20.4026 23.4136C20.5834 22.5044 21.0299 21.6691 21.6854 21.0136C22.341 20.358 23.1762 19.9116 24.0855 19.7307C24.9948 19.5498 25.9373 19.6427 26.7938 19.9974C27.6504 20.3522 28.3824 20.953 28.8975 21.7239C29.4126 22.4947 29.6875 23.401 29.6875 24.3281C29.6875 25.5713 29.1936 26.7636 28.3146 27.6427C27.4355 28.5218 26.2432 29.0156 25 29.0156Z" fill="url(#paint0_linear_335_9781)"/>
<path d="M14.3986 36.9218C15.2112 37.9264 15.6453 39.1845 15.6252 40.4765V49.3281H17.1877V40.4765C17.2229 38.8163 16.6693 37.1973 15.6252 35.9062L6.78143 25.5937C6.4367 25.1743 6.24825 24.6483 6.24825 24.1054C6.24825 23.5625 6.4367 23.0365 6.78143 22.6171C6.91957 22.4445 7.09416 22.3046 7.2927 22.2074C7.49124 22.1101 7.70882 22.058 7.92986 22.0546C8.15013 22.0621 8.36633 22.1161 8.56426 22.213C8.76219 22.3099 8.93737 22.4477 9.0783 22.6171L16.0314 30.4843C17.1216 31.7971 18.4876 32.8537 20.0323 33.5788C21.577 34.304 23.2625 34.6799 24.9689 34.6799C26.6754 34.6799 28.3609 34.304 29.9056 33.5788C31.4503 32.8537 32.8163 31.7971 33.9064 30.4843L40.9377 22.5468C41.0769 22.3768 41.2521 22.2398 41.4507 22.1457C41.6494 22.0517 41.8664 22.0029 42.0861 22.0029C42.3059 22.0029 42.5229 22.0517 42.7215 22.1457C42.9201 22.2398 43.0953 22.3768 43.2346 22.5468C43.5793 22.9662 43.7677 23.4922 43.7677 24.0351C43.7677 24.578 43.5793 25.104 43.2346 25.5234L34.3752 35.9062C33.3057 37.1875 32.727 38.8075 32.7424 40.4765V49.3281H34.3049V40.4765C34.2895 39.1799 34.7353 37.9201 35.5627 36.9218L44.3986 26.5468C44.9914 25.8426 45.3165 24.9517 45.3165 24.0312C45.3165 23.1107 44.9914 22.2198 44.3986 21.5156C44.1157 21.1733 43.7606 20.8978 43.3588 20.7086C42.9571 20.5195 42.5185 20.4214 42.0744 20.4214C41.6303 20.4214 41.1917 20.5195 40.79 20.7086C40.3882 20.8978 40.0331 21.1733 39.7502 21.5156L32.7189 29.4452C31.769 30.5728 30.5886 31.4838 29.2572 32.1172C27.9259 32.7505 26.4743 33.0915 25.0002 33.1171C23.5103 33.1043 22.0407 32.7696 20.6922 32.1358C19.3438 31.502 18.1483 30.5842 17.1877 29.4452L10.2424 21.6327C9.95588 21.2891 9.59758 21.0123 9.19266 20.822C8.78773 20.6317 8.34603 20.5324 7.89861 20.5312C7.45093 20.5308 7.0087 20.6294 6.60353 20.8198C6.19837 21.0102 5.84028 21.2878 5.55486 21.6327C4.96616 22.3358 4.64355 23.2236 4.64355 24.1406C4.64355 25.0575 4.96616 25.9453 5.55486 26.6484L14.3986 36.9218Z" fill="url(#paint1_linear_335_9781)"/>
<path d="M21.0389 11.4764L20.367 15.6092C20.3496 15.7516 20.3717 15.8961 20.431 16.0267C20.4903 16.1574 20.5844 16.2692 20.703 16.3499C20.8217 16.4306 20.9602 16.4771 21.1035 16.4842C21.2468 16.4914 21.3893 16.4589 21.5154 16.3904L24.9998 14.492L28.4842 16.4217C28.5993 16.4839 28.7283 16.5161 28.8592 16.5154C29.0211 16.5167 29.1795 16.4675 29.3123 16.3748C29.4349 16.289 29.5303 16.1697 29.5871 16.0312C29.6439 15.8927 29.6597 15.7408 29.6326 15.5936L28.9607 11.4608L31.8123 8.53888C31.91 8.43704 31.9783 8.31062 32.01 8.17306C32.0416 8.0355 32.0354 7.89194 31.992 7.75763C31.9461 7.6213 31.8635 7.50029 31.7532 7.40793C31.6429 7.31557 31.5093 7.25545 31.367 7.23419L27.4607 6.64044L25.7107 2.90607C25.6486 2.76967 25.5485 2.65403 25.4225 2.57294C25.2964 2.49185 25.1497 2.44873 24.9998 2.44873C24.8499 2.44873 24.7032 2.49185 24.5771 2.57294C24.4511 2.65403 24.351 2.76967 24.2889 2.90607L22.5389 6.64044L18.6326 7.23419C18.4903 7.25545 18.3567 7.31557 18.2464 7.40793C18.1361 7.50029 18.0535 7.6213 18.0076 7.75763C17.9642 7.89194 17.958 8.0355 17.9896 8.17306C18.0212 8.31062 18.0896 8.43704 18.1873 8.53888L21.0389 11.4764ZM23.1873 8.12482C23.314 8.10444 23.4338 8.05315 23.536 7.97548C23.6382 7.89781 23.7197 7.79615 23.7732 7.6795L24.9998 5.07013L26.2264 7.6795C26.2799 7.79615 26.3614 7.89781 26.4636 7.97548C26.5658 8.05315 26.6856 8.10444 26.8123 8.12482L29.6248 8.55451L27.5623 10.6639C27.477 10.7515 27.4135 10.858 27.3768 10.9747C27.3402 11.0914 27.3315 11.2151 27.3514 11.3358L27.8357 14.2733L25.3748 12.9139C25.256 12.8453 25.1213 12.8092 24.9842 12.8092C24.847 12.8092 24.7123 12.8453 24.5935 12.9139L22.1326 14.2733L22.656 11.3358C22.6759 11.2151 22.6672 11.0914 22.6306 10.9747C22.5939 10.858 22.5304 10.7515 22.4451 10.6639L20.3826 8.55451L23.1873 8.12482Z" fill="url(#paint2_linear_335_9781)"/>
<path d="M9.75797 15.8595H11.6017L12.7111 17.422C12.783 17.523 12.8779 17.6054 12.9879 17.6625C13.0979 17.7195 13.22 17.7496 13.3439 17.7502H13.4767C13.6213 17.725 13.7559 17.6596 13.8651 17.5615C13.9742 17.4634 14.0535 17.3366 14.0939 17.1955L14.5861 15.4923L16.2892 14.9533C16.4298 14.9127 16.5561 14.8335 16.6538 14.7246C16.7516 14.6157 16.8168 14.4816 16.842 14.3375C16.8672 14.1934 16.8515 14.0451 16.7966 13.9095C16.7417 13.7739 16.6498 13.6564 16.5314 13.5705L14.9689 12.4611V10.6173C14.9664 10.4742 14.9247 10.3346 14.8482 10.2136C14.7718 10.0926 14.6636 9.9949 14.5354 9.93121C14.4072 9.86753 14.264 9.84027 14.1214 9.85243C13.9788 9.86459 13.8423 9.9157 13.7267 10.0002L12.3048 11.047L10.5548 10.4142C10.4153 10.3639 10.2643 10.3543 10.1196 10.3866C9.97479 10.4189 9.84221 10.4918 9.73732 10.5967C9.63243 10.7016 9.55957 10.8342 9.52726 10.9789C9.49494 11.1237 9.50451 11.2747 9.55485 11.4142L10.1564 13.1955L9.14079 14.6173C9.05632 14.7329 9.00522 14.8694 8.99306 15.012C8.9809 15.1546 9.00815 15.2979 9.07184 15.426C9.13552 15.5542 9.23319 15.6624 9.35419 15.7389C9.47519 15.8153 9.61487 15.8571 9.75797 15.8595ZM11.797 13.0548L11.5939 12.4845L12.1642 12.6877C12.2825 12.7349 12.4106 12.7524 12.5372 12.7388C12.6638 12.7252 12.7852 12.6808 12.8908 12.6095L13.422 12.2111V12.9298C13.4229 13.0518 13.4524 13.1718 13.508 13.2804C13.5636 13.3889 13.6439 13.4829 13.7423 13.5548L14.297 13.9533L13.7267 14.1173C13.5983 14.1537 13.4813 14.2223 13.387 14.3167C13.2926 14.411 13.224 14.528 13.1877 14.6564L13.0236 15.2267L12.6252 14.672C12.5532 14.5736 12.4592 14.4933 12.3507 14.4377C12.2422 14.3821 12.1221 14.3526 12.0002 14.3517H11.2814L11.7189 13.7814C11.7902 13.6758 11.8345 13.5545 11.8482 13.4278C11.8618 13.3012 11.8442 13.1731 11.797 13.0548Z" fill="url(#paint3_linear_335_9781)"/>
<path d="M33.7111 14.9533L35.4143 15.4455L35.9377 17.1798C35.9781 17.3209 36.0574 17.4478 36.1666 17.5459C36.2757 17.644 36.4103 17.7094 36.5549 17.7345H36.6877C36.8116 17.734 36.9337 17.7039 37.0437 17.6469C37.1537 17.5898 37.2486 17.5074 37.3205 17.4064L38.4299 15.8439H40.2736C40.4167 15.8414 40.5564 15.7997 40.6774 15.7232C40.7984 15.6468 40.8961 15.5386 40.9598 15.4104C41.0235 15.2822 41.0507 15.139 41.0385 14.9964C41.0264 14.8538 40.9753 14.7173 40.8908 14.6017L39.8439 13.1955L40.4768 11.4455C40.5271 11.3059 40.5367 11.155 40.5044 11.0102C40.472 10.8654 40.3992 10.7328 40.2943 10.6279C40.1894 10.5231 40.0568 10.4502 39.912 10.4179C39.7673 10.3856 39.6163 10.3951 39.4768 10.4455L37.6955 11.047L36.2736 10.0314C36.1581 9.94695 36.0216 9.89584 35.8789 9.88368C35.7363 9.87152 35.5931 9.89878 35.465 9.96246C35.3368 10.0261 35.2286 10.1238 35.1521 10.2448C35.0757 10.3658 35.0339 10.5055 35.0314 10.6486V12.4923L33.4689 13.6017C33.3592 13.6896 33.2751 13.8054 33.2257 13.937C33.1762 14.0686 33.1632 14.2112 33.188 14.3495C33.2128 14.4879 33.2745 14.6171 33.3666 14.7233C33.4586 14.8296 33.5777 14.909 33.7111 14.9533ZM36.2424 13.5002C36.3409 13.4282 36.4211 13.3342 36.4767 13.2257C36.5323 13.1172 36.5618 12.9971 36.5627 12.8752V12.1564L37.0939 12.5548C37.1975 12.63 37.3179 12.6785 37.4446 12.6962C37.5712 12.7139 37.7003 12.7003 37.8205 12.6564L38.3908 12.4533L38.1877 13.0236C38.1439 13.1438 38.1302 13.2729 38.1479 13.3995C38.1656 13.5262 38.2141 13.6466 38.2893 13.7502L38.6877 14.2814H37.9689C37.847 14.2823 37.727 14.3118 37.6184 14.3674C37.5099 14.423 37.4159 14.5033 37.3439 14.6017L36.9455 15.1564L36.7814 14.5861C36.7451 14.4577 36.6765 14.3407 36.5821 14.2464C36.4878 14.152 36.3708 14.0834 36.2424 14.047L35.6721 13.883L36.2424 13.5002Z" fill="url(#paint4_linear_335_9781)"/>
<defs>
<linearGradient id="paint0_linear_335_9781" x1="18.75" y1="24.3281" x2="31.25" y2="24.3281" gradientUnits="userSpaceOnUse">
<stop stop-color="#1956C1"/>
<stop offset="1" stop-color="#E2403B"/>
</linearGradient>
<linearGradient id="paint1_linear_335_9781" x1="4.64355" y1="34.8747" x2="45.3165" y2="34.8747" gradientUnits="userSpaceOnUse">
<stop stop-color="#1956C1"/>
<stop offset="1" stop-color="#E2403B"/>
</linearGradient>
<linearGradient id="paint2_linear_335_9781" x1="17.9697" y1="9.4821" x2="32.0299" y2="9.4821" gradientUnits="userSpaceOnUse">
<stop stop-color="#1956C1"/>
<stop offset="1" stop-color="#E2403B"/>
</linearGradient>
<linearGradient id="paint3_linear_335_9781" x1="8.99023" y1="13.7999" x2="16.8537" y2="13.7999" gradientUnits="userSpaceOnUse">
<stop stop-color="#1956C1"/>
<stop offset="1" stop-color="#E2403B"/>
</linearGradient>
<linearGradient id="paint4_linear_335_9781" x1="33.1758" y1="13.8077" x2="41.0414" y2="13.8077" gradientUnits="userSpaceOnUse">
<stop stop-color="#1956C1"/>
<stop offset="1" stop-color="#E2403B"/>
</linearGradient>
</defs>
</svg>
