<svg width="50" height="51" viewBox="0 0 50 51" fill="none" xmlns="http://www.w3.org/2000/svg">
<path d="M25.7812 5.14375V3.23438C25.7812 2.80313 25.4312 2.45312 25 2.45312C24.5688 2.45312 24.2188 2.80313 24.2188 3.23438V5.14375C24.2188 5.575 24.5688 5.925 25 5.925C25.4312 5.925 25.7812 5.575 25.7812 5.14375Z" fill="url(#paint0_linear_335_9756)"/>
<path d="M24.2188 46.6377V48.5471C24.2188 48.9783 24.5688 49.3283 25 49.3283C25.4312 49.3283 25.7812 48.9783 25.7812 48.5471V46.6377C25.7812 46.2064 25.4312 45.8564 25 45.8564C24.5688 45.8564 24.2188 46.2064 24.2188 46.6377Z" fill="url(#paint1_linear_335_9756)"/>
<path d="M45.7471 25.1094C45.3158 25.1094 44.9658 25.4594 44.9658 25.8906C44.9658 26.3219 45.3158 26.6719 45.7471 26.6719H47.6564C48.0877 26.6719 48.4377 26.3219 48.4377 25.8906C48.4377 25.4594 48.0877 25.1094 47.6564 25.1094H45.7471Z" fill="url(#paint2_linear_335_9756)"/>
<path d="M2.34375 26.6719H4.25312C4.68437 26.6719 5.03437 26.3219 5.03437 25.8906C5.03437 25.4594 4.68437 25.1094 4.25312 25.1094H2.34375C1.9125 25.1094 1.5625 25.4594 1.5625 25.8906C1.5625 26.3219 1.9125 26.6719 2.34375 26.6719Z" fill="url(#paint3_linear_335_9756)"/>
<path d="M41.5725 9.31797C41.267 9.0125 40.7732 9.0125 40.4678 9.31797L39.1178 10.668C38.8123 10.9734 38.8123 11.4672 39.1178 11.7727C39.2701 11.925 39.4701 12.0016 39.6701 12.0016C39.8701 12.0016 40.0701 11.925 40.2225 11.7727L41.5725 10.4227C41.8779 10.1172 41.8779 9.62344 41.5725 9.31797Z" fill="url(#paint4_linear_335_9756)"/>
<path d="M8.42734 42.4631C8.57969 42.6154 8.77969 42.692 8.97969 42.692C9.17969 42.692 9.37969 42.6154 9.53203 42.4631L10.882 41.1131C11.1875 40.8076 11.1875 40.3139 10.882 40.0084C10.5766 39.7029 10.0828 39.7029 9.77734 40.0084L8.42734 41.3584C8.12187 41.6639 8.12187 42.1576 8.42734 42.4631Z" fill="url(#paint5_linear_335_9756)"/>
<path d="M40.4678 42.4631C40.6201 42.6154 40.8201 42.692 41.0201 42.692C41.2201 42.692 41.4201 42.6154 41.5725 42.4631C41.8779 42.1576 41.8779 41.6639 41.5725 41.3584L40.2225 40.0084C39.917 39.7029 39.4232 39.7029 39.1178 40.0084C38.8123 40.3139 38.8123 40.8076 39.1178 41.1131L40.4678 42.4631Z" fill="url(#paint6_linear_335_9756)"/>
<path d="M9.77734 11.7727C9.92969 11.925 10.1297 12.0016 10.3297 12.0016C10.5297 12.0016 10.7297 11.925 10.882 11.7727C11.1875 11.4672 11.1875 10.9734 10.882 10.668L9.53203 9.31797C9.22656 9.0125 8.73281 9.0125 8.42734 9.31797C8.12187 9.62344 8.12187 10.1172 8.42734 10.4227L9.77734 11.7727Z" fill="url(#paint7_linear_335_9756)"/>
<path d="M31.6591 20.8154C32.1307 21.287 32.1307 22.0514 31.6591 22.5228L23.56 30.6221C23.0884 31.0935 22.3242 31.0935 21.8526 30.6221L17.9971 26.7664C17.5255 26.295 17.5255 25.5306 17.9971 25.0592C18.4685 24.5876 19.2329 24.5876 19.7043 25.0592L22.7062 28.0611L29.9517 20.8154C30.4233 20.344 31.1878 20.344 31.6591 20.8154ZM40.2813 25.7188C40.2813 34.2605 33.3687 41.1719 24.8281 41.1719C16.2864 41.1719 9.375 34.2593 9.375 25.7188C9.375 17.177 16.2876 10.2656 24.8281 10.2656C33.3698 10.2656 40.2813 17.1782 40.2813 25.7188ZM37.8667 25.7188C37.8667 18.5116 32.0343 12.6802 24.8281 12.6802C17.621 12.6802 11.7896 18.5126 11.7896 25.7188C11.7896 32.9259 17.622 38.7573 24.8281 38.7573C32.0352 38.7573 37.8667 32.9249 37.8667 25.7188Z" fill="url(#paint8_linear_335_9756)"/>
<defs>
<linearGradient id="paint0_linear_335_9756" x1="24.2188" y1="4.18906" x2="25.7812" y2="4.18906" gradientUnits="userSpaceOnUse">
<stop stop-color="#1956C1"/>
<stop offset="1" stop-color="#E2403B"/>
</linearGradient>
<linearGradient id="paint1_linear_335_9756" x1="24.2188" y1="47.5924" x2="25.7812" y2="47.5924" gradientUnits="userSpaceOnUse">
<stop stop-color="#1956C1"/>
<stop offset="1" stop-color="#E2403B"/>
</linearGradient>
<linearGradient id="paint2_linear_335_9756" x1="44.9658" y1="25.8906" x2="48.4377" y2="25.8906" gradientUnits="userSpaceOnUse">
<stop stop-color="#1956C1"/>
<stop offset="1" stop-color="#E2403B"/>
</linearGradient>
<linearGradient id="paint3_linear_335_9756" x1="1.5625" y1="25.8906" x2="5.03437" y2="25.8906" gradientUnits="userSpaceOnUse">
<stop stop-color="#1956C1"/>
<stop offset="1" stop-color="#E2403B"/>
</linearGradient>
<linearGradient id="paint4_linear_335_9756" x1="38.8887" y1="10.5452" x2="41.8016" y2="10.5452" gradientUnits="userSpaceOnUse">
<stop stop-color="#1956C1"/>
<stop offset="1" stop-color="#E2403B"/>
</linearGradient>
<linearGradient id="paint5_linear_335_9756" x1="8.19824" y1="41.2356" x2="11.1111" y2="41.2356" gradientUnits="userSpaceOnUse">
<stop stop-color="#1956C1"/>
<stop offset="1" stop-color="#E2403B"/>
</linearGradient>
<linearGradient id="paint6_linear_335_9756" x1="38.8887" y1="41.2356" x2="41.8016" y2="41.2356" gradientUnits="userSpaceOnUse">
<stop stop-color="#1956C1"/>
<stop offset="1" stop-color="#E2403B"/>
</linearGradient>
<linearGradient id="paint7_linear_335_9756" x1="8.19824" y1="10.5452" x2="11.1111" y2="10.5452" gradientUnits="userSpaceOnUse">
<stop stop-color="#1956C1"/>
<stop offset="1" stop-color="#E2403B"/>
</linearGradient>
<linearGradient id="paint8_linear_335_9756" x1="9.375" y1="25.7188" x2="40.2813" y2="25.7188" gradientUnits="userSpaceOnUse">
<stop stop-color="#1956C1"/>
<stop offset="1" stop-color="#E2403B"/>
</linearGradient>
</defs>
</svg>
