<svg width="55" height="55" viewBox="0 0 55 55" fill="none" xmlns="http://www.w3.org/2000/svg">
<path fill-rule="evenodd" clip-rule="evenodd" d="M28.0835 16.167C28.0835 15.7528 28.4193 15.417 28.8335 15.417H47.0835C49.331 15.417 51.1668 17.2528 51.1668 19.5003V47.167C51.1668 47.5812 50.831 47.917 50.4168 47.917H34.7502C34.336 47.917 34.0002 47.5812 34.0002 47.167C34.0002 46.7528 34.336 46.417 34.7502 46.417H49.6668V19.5003C49.6668 18.0812 48.5026 16.917 47.0835 16.917H28.8335C28.4193 16.917 28.0835 16.5812 28.0835 16.167Z" fill="white"/>
<path fill-rule="evenodd" clip-rule="evenodd" d="M7.91683 16.917C6.49771 16.917 5.3335 18.0812 5.3335 19.5003V46.417H20.5835C20.9977 46.417 21.3335 46.7528 21.3335 47.167C21.3335 47.5812 20.9977 47.917 20.5835 47.917H4.5835C4.16928 47.917 3.8335 47.5812 3.8335 47.167V19.5003C3.8335 17.2528 5.66928 15.417 7.91683 15.417H10.0002C10.4144 15.417 10.7502 15.7528 10.7502 16.167C10.7502 16.5812 10.4144 16.917 10.0002 16.917H7.91683Z" fill="white"/>
<path fill-rule="evenodd" clip-rule="evenodd" d="M0.916748 50.167C0.916748 48.0861 2.58587 46.417 4.66675 46.417H20.9167C21.2081 46.417 21.4732 46.5858 21.5964 46.8498L22.5611 48.917H32.4391L33.4038 46.8498C33.527 46.5858 33.792 46.417 34.0834 46.417H50.3334C52.4143 46.417 54.0834 48.0861 54.0834 50.167C54.0834 52.2479 52.4143 53.917 50.3334 53.917H4.66675C2.58587 53.917 0.916748 52.2479 0.916748 50.167ZM4.66675 47.917C3.4143 47.917 2.41675 48.9145 2.41675 50.167C2.41675 51.4194 3.41429 52.417 4.66675 52.417H50.3334C51.5859 52.417 52.5834 51.4194 52.5834 50.167C52.5834 48.9145 51.5859 47.917 50.3334 47.917H34.5611L33.5964 49.9842C33.4732 50.2482 33.2081 50.417 32.9168 50.417H22.0834C21.792 50.417 21.527 50.2482 21.4038 49.9842L20.4391 47.917H4.66675Z" fill="white"/>
<path fill-rule="evenodd" clip-rule="evenodd" d="M44.1667 50.167C44.1667 49.7528 44.5025 49.417 44.9167 49.417H47.6667C48.081 49.417 48.4167 49.7528 48.4167 50.167C48.4167 50.5812 48.081 50.917 47.6667 50.917H44.9167C44.5025 50.917 44.1667 50.5812 44.1667 50.167Z" fill="white"/>
<path fill-rule="evenodd" clip-rule="evenodd" d="M19.0125 1.28529C19.259 1.12756 19.5747 1.12756 19.8211 1.28529C21.8525 2.58537 24.0315 3.63231 26.4422 4.27533C27.9806 4.6801 29.4406 4.92396 31.0748 5.08738C31.4582 5.12572 31.7502 5.44835 31.7502 5.83366V5.91699C31.7502 15.0975 27.0297 23.1646 19.8224 27.7979C19.5753 27.9567 19.2583 27.9567 19.0113 27.7979C11.8028 23.1638 7.0835 15.0961 7.0835 5.83366C7.0835 5.44835 7.37547 5.12572 7.75887 5.08738C9.40024 4.92324 10.938 4.67901 12.3828 4.27769L12.3841 4.27733C14.7212 3.63259 16.9861 2.58222 19.0125 1.28529ZM12.7836 5.72314C11.4393 6.09652 10.0399 6.33823 8.59231 6.50618C8.80948 14.7864 13.0268 21.9808 19.4168 26.2697C25.828 21.9666 30.0507 14.7415 30.2433 6.50594C28.808 6.33752 27.4666 6.09598 26.0593 5.72563L26.0569 5.725C23.6305 5.07795 21.4396 4.05379 19.4164 2.80278C17.3802 4.05633 15.1233 5.07762 12.7836 5.72314Z" fill="white"/>
<path fill-rule="evenodd" clip-rule="evenodd" d="M37.0835 20.667C35.1644 20.667 33.5835 22.2479 33.5835 24.167V29.5837C33.5835 29.9979 33.2477 30.3337 32.8335 30.3337C32.4193 30.3337 32.0835 29.9979 32.0835 29.5837V24.167C32.0835 21.4194 34.3359 19.167 37.0835 19.167C39.831 19.167 42.0835 21.4194 42.0835 24.167V29.5837C42.0835 29.9979 41.7477 30.3337 41.3335 30.3337C40.9193 30.3337 40.5835 29.9979 40.5835 29.5837V24.167C40.5835 22.2479 39.0026 20.667 37.0835 20.667Z" fill="white"/>
<path fill-rule="evenodd" clip-rule="evenodd" d="M34.9167 24.25C34.9167 23.0025 35.9192 22 37.1667 22C38.4143 22 39.4167 23.0025 39.4167 24.25V28.4167C39.4167 28.8309 39.081 29.1667 38.6668 29.1667C38.2525 29.1667 37.9168 28.8309 37.9168 28.4167V24.25C37.9168 23.8309 37.5859 23.5 37.1667 23.5C36.7476 23.5 36.4167 23.8309 36.4167 24.25V28.4167C36.4167 28.8309 36.081 29.1667 35.6667 29.1667C35.2525 29.1667 34.9167 28.8309 34.9167 28.4167V24.25Z" fill="white"/>
<path fill-rule="evenodd" clip-rule="evenodd" d="M37.1667 29C33.4975 29 30.5 31.9975 30.5 35.6667C30.5 39.3358 33.4975 42.3333 37.1667 42.3333C40.8358 42.3333 43.8333 39.3358 43.8333 35.6667C43.8333 31.9975 40.8358 29 37.1667 29ZM29 35.6667C29 31.1691 32.6691 27.5 37.1667 27.5C41.6642 27.5 45.3333 31.1691 45.3333 35.6667C45.3333 40.1642 41.6642 43.8333 37.1667 43.8333C32.6691 43.8333 29 40.1642 29 35.6667Z" fill="white"/>
<path fill-rule="evenodd" clip-rule="evenodd" d="M34.6667 35.5C34.6667 34.1925 35.7295 33 37.1667 33C38.4743 33 39.6667 34.0628 39.6667 35.5C39.6667 36.1336 39.4509 36.7103 39.071 37.1597L39.5661 39.4231C39.6146 39.6449 39.56 39.8767 39.4177 40.0536C39.2753 40.2305 39.0605 40.3333 38.8334 40.3333H35.5834C35.3564 40.3333 35.1415 40.2305 34.9992 40.0536C34.8568 39.8767 34.8022 39.6449 34.8507 39.4231L35.3374 37.1984C34.8923 36.7408 34.6667 36.1458 34.6667 35.5ZM37.1667 34.5C36.604 34.5 36.1667 34.9742 36.1667 35.5C36.1667 35.8446 36.3012 36.1049 36.5828 36.2926C36.8397 36.4639 36.9654 36.7752 36.8994 37.0769L36.5152 38.8333H37.9016L37.5174 37.0769C37.4565 36.7983 37.5588 36.5092 37.7816 36.331C38.0187 36.1413 38.1667 35.8576 38.1667 35.5C38.1667 34.9372 37.6926 34.5 37.1667 34.5Z" fill="white"/>
<path fill-rule="evenodd" clip-rule="evenodd" d="M9 31.5C9 31.0858 9.33579 30.75 9.75 30.75H17.4167C17.8309 30.75 18.1667 31.0858 18.1667 31.5C18.1667 31.9142 17.8309 32.25 17.4167 32.25H9.75C9.33579 32.25 9 31.9142 9 31.5Z" fill="white"/>
<path fill-rule="evenodd" clip-rule="evenodd" d="M9 35.333C9 34.9188 9.33579 34.583 9.75 34.583H25.0833C25.4976 34.583 25.8333 34.9188 25.8333 35.333C25.8333 35.7472 25.4976 36.083 25.0833 36.083H9.75C9.33579 36.083 9 35.7472 9 35.333Z" fill="white"/>
<path fill-rule="evenodd" clip-rule="evenodd" d="M9 39.25C9 38.8358 9.33579 38.5 9.75 38.5H25.9167C26.3309 38.5 26.6667 38.8358 26.6667 39.25C26.6667 39.6642 26.3309 40 25.9167 40H9.75C9.33579 40 9 39.6642 9 39.25Z" fill="white"/>
<path fill-rule="evenodd" clip-rule="evenodd" d="M9 43.167C9 42.7528 9.33579 42.417 9.75 42.417H26.75C27.1642 42.417 27.5 42.7528 27.5 43.167C27.5 43.5812 27.1642 43.917 26.75 43.917H9.75C9.33579 43.917 9 43.5812 9 43.167Z" fill="white"/>
<path fill-rule="evenodd" clip-rule="evenodd" d="M26.1995 8.8062C26.491 9.10049 26.4887 9.57536 26.1945 9.86685L17.4445 18.5335C17.1512 18.824 16.6782 18.8229 16.3863 18.531L12.7197 14.8643C12.4268 14.5714 12.4268 14.0965 12.7197 13.8037C13.0126 13.5108 13.4874 13.5108 13.7803 13.8037L16.9192 16.9425L25.1389 8.80112C25.4332 8.50963 25.908 8.51191 26.1995 8.8062Z" fill="white"/>
</svg>
