<svg width="50" height="51" viewBox="0 0 50 51" fill="none" xmlns="http://www.w3.org/2000/svg">
<path d="M49.2676 39.4761C49.6722 39.4761 50 39.1482 50 38.7437V37.6212C50 35.5964 48.708 33.8103 46.7846 33.1765L42.2067 31.6702V30.0853C43.8008 29.1289 44.8702 27.3841 44.8702 25.3938V22.237C44.8702 19.2221 42.4175 16.7694 39.4026 16.7694C37.6269 16.7694 36.0467 17.621 35.0473 18.9365C34.494 17.8983 33.5559 17.0886 32.3813 16.7029L27.804 15.1959V13.6109C29.398 12.6545 30.4675 10.9097 30.4675 8.91937V5.76252C30.4676 2.74767 28.0148 0.294922 25 0.294922C21.9852 0.294922 19.5324 2.74767 19.5324 5.76252V8.91927C19.5324 10.9096 20.6019 12.6544 22.1959 13.6108V15.1958L17.619 16.7027C16.4442 17.0886 15.506 17.8983 14.9527 18.9365C13.9533 17.6209 12.3731 16.7694 10.5974 16.7694C7.58252 16.7694 5.12979 19.2221 5.12979 22.237V25.3938C5.12979 27.3841 6.19922 29.1289 7.79326 30.0853V31.6702L3.21504 33.1766C1.29199 33.8103 0 35.5964 0 37.6212V38.7437C0 39.1482 0.327832 39.4761 0.732422 39.4761C1.13701 39.4761 1.46484 39.1482 1.46484 38.7437V37.6212C1.46484 36.2302 2.35244 35.0032 3.67314 34.5679L7.96133 33.1569C8.35322 34.2335 9.38682 35.0044 10.5973 35.0044C11.8076 35.0044 12.8412 34.2334 13.2331 33.1569L17.5207 34.5677C18.4605 34.8775 19.1888 35.591 19.5256 36.4952L17.6186 37.1228C15.695 37.7558 14.4026 39.5418 14.4026 41.5667V42.4179H5.60811V40.5854C5.60811 40.1809 5.28027 39.853 4.87568 39.853C4.47109 39.853 4.14326 40.1809 4.14326 40.5854V42.4179H1.46484V42.165C1.46484 41.7605 1.13701 41.4326 0.732422 41.4326C0.327832 41.4326 0 41.7605 0 42.165V43.1504C0 43.5549 0.327832 43.8828 0.732422 43.8828H14.4026V49.5625C14.4026 49.967 14.7305 50.2949 15.1351 50.2949H34.8648C35.2694 50.2949 35.5973 49.967 35.5973 49.5625V48.5842C35.5973 48.1797 35.2694 47.8518 34.8648 47.8518C34.4603 47.8518 34.1324 48.1797 34.1324 48.5842V48.8303H31.4541V44.5316C31.4541 44.1271 31.1263 43.7992 30.7217 43.7992C30.3171 43.7992 29.9893 44.1271 29.9893 44.5316V48.8303H20.0107V44.5316C20.0107 44.1271 19.6829 43.7992 19.2783 43.7992C18.8737 43.7992 18.5459 44.1271 18.5459 44.5316V48.8303H15.8675V41.5669C15.8675 40.1759 16.7552 38.9492 18.0765 38.5144L22.3642 37.1033C22.7562 38.1797 23.7896 38.9506 25 38.9506C26.2104 38.9506 27.2438 38.1798 27.6358 37.1033L31.9235 38.5144C33.2448 38.9493 34.1325 40.1759 34.1325 41.5669V45.1647C34.1325 45.5692 34.4604 45.8972 34.8649 45.8972C35.2695 45.8972 35.5974 45.5692 35.5974 45.1647V43.883H49.2676C49.6722 43.883 50 43.5551 50 43.1506V42.1652C50 41.7607 49.6722 41.4328 49.2676 41.4328C48.863 41.4328 48.5352 41.7607 48.5352 42.1652V42.4181H45.8567V40.5856C45.8567 40.1811 45.5289 39.8532 45.1243 39.8532C44.7197 39.8532 44.3919 40.1811 44.3919 40.5856V42.4181H35.5973V41.5669C35.5973 39.5419 34.3049 37.756 32.3813 37.123L30.4743 36.4954C30.8111 35.5913 31.5393 34.8778 32.4788 34.568L36.7668 33.1571C37.1587 34.2336 38.1923 35.0046 39.4026 35.0046C40.6131 35.0046 41.6467 34.2336 42.0386 33.1571L46.3264 34.568C47.6476 35.0032 48.5352 36.2302 48.5352 37.6212V38.7437C48.5352 39.1482 48.863 39.4761 49.2676 39.4761ZM39.4026 18.2342C41.6098 18.2342 43.4054 20.0298 43.4054 22.2369V25.3937C43.4054 27.6008 41.6097 29.3964 39.4026 29.3964C37.1956 29.3964 35.4 27.6008 35.4 25.3937V22.2369C35.4 20.0298 37.1956 18.2342 39.4026 18.2342ZM20.9973 8.91927V5.76252C20.9973 3.55538 22.7929 1.75977 25 1.75977C27.2071 1.75977 29.0027 3.55538 29.0027 5.76252V8.91927C29.0027 11.1264 27.207 12.922 25 12.922C22.793 12.922 20.9973 11.1264 20.9973 8.91927ZM25 14.3869C25.4619 14.3869 25.9104 14.3288 26.3393 14.2204V15.7064C26.3391 15.7133 26.3392 15.7202 26.3393 15.727C26.3387 16.465 25.7382 17.0652 25.0001 17.0652C24.262 17.0652 23.6614 16.465 23.6609 15.727C23.6609 15.7201 23.661 15.7132 23.6609 15.7064V14.2204C24.0896 14.3287 24.5381 14.3869 25 14.3869ZM18.0767 18.0942L22.3641 16.6826C22.756 17.7592 23.7896 18.5301 24.9999 18.5301C26.2103 18.5301 27.2438 17.7592 27.6357 16.6826L31.9236 18.0943C33.1479 18.4965 33.997 19.5686 34.1156 20.8432C33.9981 21.2884 33.935 21.7554 33.935 22.2369V25.3937C33.935 25.5792 33.9444 25.7626 33.9626 25.9435H30.4613C30.3355 23.0393 27.9344 20.7152 24.9998 20.7152C22.0652 20.7152 19.6641 23.0393 19.5383 25.9435H16.037C16.0552 25.7626 16.0646 25.5792 16.0646 25.3937V22.2369C16.0646 21.7554 16.0015 21.2885 15.884 20.8432C16.0028 19.5687 16.852 18.4966 18.0767 18.0942ZM25 33.3423C22.7929 33.3423 20.9973 31.5467 20.9973 29.3396V26.1828C20.9973 23.9757 22.793 22.1801 25 22.1801C27.207 22.1801 29.0027 23.9757 29.0027 26.1828V29.3396C29.0027 31.5467 27.2071 33.3423 25 33.3423ZM6.59453 25.3937V22.2369C6.59453 20.0298 8.39023 18.2342 10.5973 18.2342C12.8043 18.2342 14.5999 20.0298 14.5999 22.2369V25.3937C14.5999 27.6008 12.8043 29.3964 10.5973 29.3964C8.39023 29.3964 6.59453 27.6008 6.59453 25.3937ZM11.9364 32.2004C11.9364 32.9389 11.3357 33.5396 10.5973 33.5396C9.85879 33.5396 9.25801 32.9388 9.25801 32.2004V30.6947C9.68672 30.8031 10.1353 30.8613 10.5973 30.8613C11.0592 30.8613 11.5077 30.8031 11.9364 30.6947V32.2004ZM17.9789 33.1765L13.4014 31.6702V30.0852C14.4257 29.4706 15.2322 28.5301 15.6786 27.4083H19.5324V29.3396C19.5324 31.3299 20.6019 33.0747 22.1959 34.0311V35.6164L20.9167 36.0373C20.4355 34.6953 19.3661 33.6337 17.9789 33.1765ZM25 37.4857C24.2615 37.4857 23.6607 36.8849 23.6607 36.1464V36.1375C23.6607 36.1361 23.6607 36.1346 23.6607 36.1332V34.6408C24.0895 34.7492 24.538 34.8073 25 34.8073C25.462 34.8073 25.9104 34.7492 26.3393 34.6408V36.1332V36.1375V36.1464C26.3393 36.8849 25.7385 37.4857 25 37.4857ZM32.0208 33.1766C30.6339 33.6337 29.5645 34.6953 29.0834 36.0374L27.8041 35.6165V34.0312C29.3981 33.0748 30.4676 31.33 30.4676 29.3397V27.4083H34.3214C34.7678 28.5302 35.5743 29.4707 36.5986 30.0852V31.6702L32.0208 33.1766ZM39.4026 33.5397C38.6642 33.5397 38.0635 32.9389 38.0635 32.2005V30.6948C38.4922 30.8032 38.9407 30.8614 39.4026 30.8614C39.8646 30.8614 40.3131 30.8032 40.7419 30.6948V32.2005C40.7419 32.9389 40.1411 33.5397 39.4026 33.5397Z" fill="url(#paint0_linear_211_9953)"/>
<defs>
<linearGradient id="paint0_linear_211_9953" x1="0" y1="25.2949" x2="50" y2="25.2949" gradientUnits="userSpaceOnUse">
<stop stop-color="#1956C1"/>
<stop offset="1" stop-color="#E2403B"/>
</linearGradient>
</defs>
</svg>
