<svg width="20" height="21" viewBox="0 0 20 21" fill="none" xmlns="http://www.w3.org/2000/svg">
<path d="M0.818359 19.4996C0.818359 19.6057 0.860502 19.7074 0.935517 19.7825C1.01053 19.8575 1.11227 19.8996 1.21836 19.8996H18.7824C18.8884 19.8996 18.9902 19.8575 19.0652 19.7825C19.1402 19.7074 19.1824 19.6057 19.1824 19.4996V6.29961C19.1824 6.19352 19.1402 6.09178 19.0652 6.01677C18.9902 5.94175 18.8884 5.89961 18.7824 5.89961H14.8004V1.49961C14.8004 1.39352 14.7582 1.29178 14.6832 1.21677C14.6082 1.14175 14.5064 1.09961 14.4004 1.09961H5.60036C5.49427 1.09961 5.39253 1.14175 5.31752 1.21677C5.2425 1.29178 5.20036 1.39352 5.20036 1.49961V8.31161H1.21836C1.11227 8.31161 1.01053 8.35375 0.935517 8.42877C0.860502 8.50378 0.818359 8.60552 0.818359 8.71161V19.4996ZM8.30236 19.0996V13.8996H11.7024V19.0996H8.30236ZM18.3824 6.69961V19.0996H14.8004V6.69961H18.3824ZM6.00036 1.89961H14.0004V19.0996H12.4984V13.4996C12.4984 13.3935 12.4562 13.2918 12.3812 13.2168C12.3062 13.1418 12.2044 13.0996 12.0984 13.0996H7.89836C7.79227 13.0996 7.69053 13.1418 7.61552 13.2168C7.5405 13.2918 7.49836 13.3935 7.49836 13.4996V19.0996H6.00036V1.89961ZM1.61836 9.11161H5.20036V19.0996H1.61836V9.11161Z" fill="white"/>
<path d="M7.61777 4.18965H8.73177C8.83786 4.18965 8.9396 4.14751 9.01462 4.07249C9.08963 3.99748 9.13177 3.89574 9.13177 3.78965C9.13177 3.68356 9.08963 3.58182 9.01462 3.50681C8.9396 3.43179 8.83786 3.38965 8.73177 3.38965H7.61777C7.51169 3.38965 7.40994 3.43179 7.33493 3.50681C7.25992 3.58182 7.21777 3.68356 7.21777 3.78965C7.21777 3.89574 7.25992 3.99748 7.33493 4.07249C7.40994 4.14751 7.51169 4.18965 7.61777 4.18965Z" fill="white"/>
<path d="M11.2682 4.18965H12.3822C12.4883 4.18965 12.59 4.14751 12.665 4.07249C12.74 3.99748 12.7822 3.89574 12.7822 3.78965C12.7822 3.68356 12.74 3.58182 12.665 3.50681C12.59 3.43179 12.4883 3.38965 12.3822 3.38965H11.2682C11.1621 3.38965 11.0603 3.43179 10.9853 3.50681C10.9103 3.58182 10.8682 3.68356 10.8682 3.78965C10.8682 3.89574 10.9103 3.99748 10.9853 4.07249C11.0603 4.14751 11.1621 4.18965 11.2682 4.18965Z" fill="white"/>
<path d="M7.61777 6.59004H8.73177C8.83786 6.59004 8.9396 6.5479 9.01462 6.47288C9.08963 6.39787 9.13177 6.29613 9.13177 6.19004C9.13177 6.08395 9.08963 5.98221 9.01462 5.9072C8.9396 5.83218 8.83786 5.79004 8.73177 5.79004H7.61777C7.51169 5.79004 7.40994 5.83218 7.33493 5.9072C7.25992 5.98221 7.21777 6.08395 7.21777 6.19004C7.21777 6.29613 7.25992 6.39787 7.33493 6.47288C7.40994 6.5479 7.51169 6.59004 7.61777 6.59004Z" fill="white"/>
<path d="M11.2682 6.59004H12.3822C12.4883 6.59004 12.59 6.5479 12.665 6.47288C12.74 6.39787 12.7822 6.29613 12.7822 6.19004C12.7822 6.08395 12.74 5.98221 12.665 5.9072C12.59 5.83218 12.4883 5.79004 12.3822 5.79004H11.2682C11.1621 5.79004 11.0603 5.83218 10.9853 5.9072C10.9103 5.98221 10.8682 6.08395 10.8682 6.19004C10.8682 6.29613 10.9103 6.39787 10.9853 6.47288C11.0603 6.5479 11.1621 6.59004 11.2682 6.59004Z" fill="white"/>
<path d="M7.61777 8.99043H8.73177C8.83786 8.99043 8.9396 8.94829 9.01462 8.87327C9.08963 8.79826 9.13177 8.69652 9.13177 8.59043C9.13177 8.48434 9.08963 8.3826 9.01462 8.30759C8.9396 8.23257 8.83786 8.19043 8.73177 8.19043H7.61777C7.51169 8.19043 7.40994 8.23257 7.33493 8.30759C7.25992 8.3826 7.21777 8.48434 7.21777 8.59043C7.21777 8.69652 7.25992 8.79826 7.33493 8.87327C7.40994 8.94829 7.51169 8.99043 7.61777 8.99043Z" fill="white"/>
<path d="M11.2682 8.99043H12.3822C12.4883 8.99043 12.59 8.94829 12.665 8.87327C12.74 8.79826 12.7822 8.69652 12.7822 8.59043C12.7822 8.48434 12.74 8.3826 12.665 8.30759C12.59 8.23257 12.4883 8.19043 12.3822 8.19043H11.2682C11.1621 8.19043 11.0603 8.23257 10.9853 8.30759C10.9103 8.3826 10.8682 8.48434 10.8682 8.59043C10.8682 8.69652 10.9103 8.79826 10.9853 8.87327C11.0603 8.94829 11.1621 8.99043 11.2682 8.99043Z" fill="white"/>
<path d="M7.61777 11.3898H8.73177C8.83786 11.3898 8.9396 11.3477 9.01462 11.2727C9.08963 11.1977 9.13177 11.0959 9.13177 10.9898C9.13177 10.8838 9.08963 10.782 9.01462 10.707C8.9396 10.632 8.83786 10.5898 8.73177 10.5898H7.61777C7.51169 10.5898 7.40994 10.632 7.33493 10.707C7.25992 10.782 7.21777 10.8838 7.21777 10.9898C7.21777 11.0959 7.25992 11.1977 7.33493 11.2727C7.40994 11.3477 7.51169 11.3898 7.61777 11.3898Z" fill="white"/>
<path d="M11.2682 11.3898H12.3822C12.4883 11.3898 12.59 11.3477 12.665 11.2727C12.74 11.1977 12.7822 11.0959 12.7822 10.9898C12.7822 10.8838 12.74 10.782 12.665 10.707C12.59 10.632 12.4883 10.5898 12.3822 10.5898H11.2682C11.1621 10.5898 11.0603 10.632 10.9853 10.707C10.9103 10.782 10.8682 10.8838 10.8682 10.9898C10.8682 11.0959 10.9103 11.1977 10.9853 11.2727C11.0603 11.3477 11.1621 11.3898 11.2682 11.3898Z" fill="white"/>
<path d="M3.81361 10.2402H2.99961C2.89352 10.2402 2.79178 10.2824 2.71677 10.3574C2.64175 10.4324 2.59961 10.5341 2.59961 10.6402C2.59961 10.7463 2.64175 10.8481 2.71677 10.9231C2.79178 10.9981 2.89352 11.0402 2.99961 11.0402H3.81161C3.9177 11.0402 4.01944 10.9981 4.09445 10.9231C4.16947 10.8481 4.21161 10.7463 4.21161 10.6402C4.21161 10.5341 4.16947 10.4324 4.09445 10.3574C4.01944 10.2824 3.9177 10.2402 3.81161 10.2402H3.81361Z" fill="white"/>
<path d="M3.81361 12.5518H2.99961C2.94708 12.5518 2.89507 12.5621 2.84654 12.5822C2.79801 12.6023 2.75391 12.6318 2.71677 12.6689C2.67962 12.7061 2.65016 12.7502 2.63006 12.7987C2.60996 12.8472 2.59961 12.8992 2.59961 12.9518C2.59961 13.0043 2.60996 13.0563 2.63006 13.1048C2.65016 13.1534 2.67962 13.1975 2.71677 13.2346C2.75391 13.2717 2.79801 13.3012 2.84654 13.3213C2.89507 13.3414 2.94708 13.3518 2.99961 13.3518H3.81161C3.9177 13.3518 4.01944 13.3096 4.09445 13.2346C4.16947 13.1596 4.21161 13.0578 4.21161 12.9518C4.21161 12.8457 4.16947 12.7439 4.09445 12.6689C4.01944 12.5939 3.9177 12.5518 3.81161 12.5518H3.81361Z" fill="white"/>
<path d="M3.81361 14.8623H2.99961C2.89352 14.8623 2.79178 14.9044 2.71677 14.9795C2.64175 15.0545 2.59961 15.1562 2.59961 15.2623C2.59961 15.3684 2.64175 15.4701 2.71677 15.5451C2.79178 15.6202 2.89352 15.6623 2.99961 15.6623H3.81161C3.9177 15.6623 4.01944 15.6202 4.09445 15.5451C4.16947 15.4701 4.21161 15.3684 4.21161 15.2623C4.21161 15.1562 4.16947 15.0545 4.09445 14.9795C4.01944 14.9044 3.9177 14.8623 3.81161 14.8623H3.81361Z" fill="white"/>
<path d="M3.81361 17.1719H2.99961C2.89352 17.1719 2.79178 17.214 2.71677 17.289C2.64175 17.364 2.59961 17.4658 2.59961 17.5719C2.59961 17.678 2.64175 17.7797 2.71677 17.8547C2.79178 17.9297 2.89352 17.9719 2.99961 17.9719H3.81161C3.9177 17.9719 4.01944 17.9297 4.09445 17.8547C4.16947 17.7797 4.21161 17.678 4.21161 17.5719C4.21161 17.4658 4.16947 17.364 4.09445 17.289C4.01944 17.214 3.9177 17.1719 3.81161 17.1719H3.81361Z" fill="white"/>
<path d="M16.1861 11.0402H17.0001C17.1062 11.0402 17.208 10.9981 17.283 10.9231C17.358 10.8481 17.4001 10.7463 17.4001 10.6402C17.4001 10.5341 17.358 10.4324 17.283 10.3574C17.208 10.2824 17.1062 10.2402 17.0001 10.2402H16.1861C16.08 10.2402 15.9783 10.2824 15.9033 10.3574C15.8283 10.4324 15.7861 10.5341 15.7861 10.6402C15.7861 10.7463 15.8283 10.8481 15.9033 10.9231C15.9783 10.9981 16.08 11.0402 16.1861 11.0402Z" fill="white"/>
<path d="M16.1861 13.3518H17.0001C17.1062 13.3518 17.208 13.3096 17.283 13.2346C17.358 13.1596 17.4001 13.0578 17.4001 12.9518C17.4001 12.8457 17.358 12.7439 17.283 12.6689C17.208 12.5939 17.1062 12.5518 17.0001 12.5518H16.1861C16.08 12.5518 15.9783 12.5939 15.9033 12.6689C15.8283 12.7439 15.7861 12.8457 15.7861 12.9518C15.7861 13.0578 15.8283 13.1596 15.9033 13.2346C15.9783 13.3096 16.08 13.3518 16.1861 13.3518Z" fill="white"/>
<path d="M16.1861 8.72969H17.0001C17.1062 8.72969 17.208 8.68754 17.283 8.61253C17.358 8.53752 17.4001 8.43577 17.4001 8.32969C17.4001 8.2236 17.358 8.12186 17.283 8.04684C17.208 7.97183 17.1062 7.92969 17.0001 7.92969H16.1861C16.08 7.92969 15.9783 7.97183 15.9033 8.04684C15.8283 8.12186 15.7861 8.2236 15.7861 8.32969C15.7861 8.43577 15.8283 8.53752 15.9033 8.61253C15.9783 8.68754 16.08 8.72969 16.1861 8.72969Z" fill="white"/>
<path d="M16.1861 15.6623H17.0001C17.1062 15.6623 17.208 15.6202 17.283 15.5451C17.358 15.4701 17.4001 15.3684 17.4001 15.2623C17.4001 15.1562 17.358 15.0545 17.283 14.9795C17.208 14.9044 17.1062 14.8623 17.0001 14.8623H16.1861C16.08 14.8623 15.9783 14.9044 15.9033 14.9795C15.8283 15.0545 15.7861 15.1562 15.7861 15.2623C15.7861 15.3684 15.8283 15.4701 15.9033 15.5451C15.9783 15.6202 16.08 15.6623 16.1861 15.6623Z" fill="white"/>
<path d="M16.1861 17.9719H17.0001C17.1062 17.9719 17.208 17.9297 17.283 17.8547C17.358 17.7797 17.4001 17.678 17.4001 17.5719C17.4001 17.4658 17.358 17.364 17.283 17.289C17.208 17.214 17.1062 17.1719 17.0001 17.1719H16.1861C16.08 17.1719 15.9783 17.214 15.9033 17.289C15.8283 17.364 15.7861 17.4658 15.7861 17.5719C15.7861 17.678 15.8283 17.7797 15.9033 17.8547C15.9783 17.9297 16.08 17.9719 16.1861 17.9719Z" fill="white"/>
</svg>
