<svg width="50" height="50" viewBox="0 0 50 50" fill="none" xmlns="http://www.w3.org/2000/svg">
<path d="M32.2341 15.9005C27.3714 8.74661 20.8769 4.94441 17.4758 7.27408C17.1013 7.53782 16.7759 7.86511 16.5143 8.24112C16.5143 8.26859 8.64068 24.2027 8.64068 24.2027L4.24508 27.1807C3.57029 27.6387 2.99236 28.2253 2.5443 28.9067C2.09625 29.5882 1.78685 30.3513 1.63377 31.1524C1.4807 31.9535 1.48696 32.7768 1.65218 33.5755C1.81741 34.3742 2.13837 35.1325 2.59672 35.807L2.79453 36.0983C3.72102 37.4479 5.14223 38.3778 6.74991 38.6864C8.35759 38.995 10.0221 38.6573 11.3824 37.7466L18.4429 48.1477C19.4813 49.4279 21.4758 50.7027 23.9374 49.2027C24.3735 48.9199 24.7454 48.5489 25.0294 48.1136C25.3133 47.6782 25.5028 47.1882 25.5857 46.6752C25.6852 46.1649 25.6825 45.6399 25.5778 45.1306C25.4731 44.6213 25.2685 44.1379 24.9758 43.7081L18.7561 34.5323C18.7561 34.5323 33.4594 33.362 33.5143 33.34C33.9734 33.2439 34.4086 33.0571 34.7945 32.7906C36.5418 31.6038 37.1682 29.1147 36.5638 25.7796C36.0198 22.7081 34.4758 19.2301 32.2341 15.9005ZM4.39343 35.0158L4.19562 34.7246C3.87938 34.2591 3.65807 33.7357 3.54434 33.1845C3.43062 32.6333 3.42673 32.065 3.53288 31.5123C3.63903 30.9596 3.85315 30.4332 4.16298 29.9634C4.47281 29.4935 4.87227 29.0894 5.33848 28.7741L9.13518 26.1917L14.1462 33.5708L10.3495 36.1532C9.8838 36.4699 9.36028 36.6916 8.80885 36.8058C8.25742 36.9201 7.68888 36.9245 7.13574 36.8189C6.5826 36.7132 6.0557 36.4996 5.58516 36.1902C5.11461 35.8809 4.70965 35.4818 4.39343 35.0158ZM23.3934 44.7906C23.6937 45.2374 23.8045 45.7851 23.7015 46.3135C23.5985 46.8419 23.2901 47.3079 22.844 47.6092C22.3963 47.9098 21.8477 48.0208 21.3184 47.9178C20.7891 47.8148 20.3221 47.5063 20.0198 47.0598L12.9813 36.6917L15.811 34.7686L16.5583 34.7081L23.3934 44.7906ZM15.9649 32.8235L10.5033 24.7796L15.7121 14.1587C16.2176 17.1422 17.6956 20.6862 20.0583 24.1642C22.4209 27.6422 25.1682 30.3235 27.7506 31.895L15.9649 32.8235ZM32.1736 31.5433C29.5473 31.373 25.2725 28.4114 21.6517 23.0763C18.0308 17.7411 16.855 12.6917 17.6627 10.1807C17.8085 9.70935 18.0996 9.29617 18.4943 9.00014C18.889 8.70412 19.3671 8.54038 19.8605 8.53232C22.4649 8.53232 26.8989 11.5103 30.6242 16.9994C32.7231 20.0873 34.2506 23.318 34.6682 26.1422C35.4868 31.5433 32.1736 31.5433 32.1736 31.5433Z" fill="white"/>
<path d="M25.3672 16.1035C24.6942 15.9714 24.0016 15.9747 23.3299 16.1134C22.6581 16.2521 22.0208 16.5233 21.4551 16.9112C21.3509 16.9834 21.2619 17.0754 21.1931 17.1819C21.1244 17.2885 21.0774 17.4075 21.0547 17.5323C21.032 17.657 21.0341 17.785 21.0608 17.909C21.0876 18.0329 21.1385 18.1504 21.2106 18.2546C21.2828 18.3589 21.3748 18.4479 21.4813 18.5166C21.5879 18.5854 21.707 18.6324 21.8317 18.6551C21.9565 18.6778 22.0845 18.6757 22.2084 18.649C22.3323 18.6222 22.4498 18.5713 22.554 18.4991C22.9123 18.256 23.3149 18.0858 23.739 17.9982C24.163 17.9106 24.6001 17.9075 25.0254 17.9888C25.4507 18.0702 25.8557 18.2346 26.2175 18.4725C26.5792 18.7104 26.8906 19.0173 27.1337 19.3755C27.3769 19.7338 27.5471 20.1364 27.6347 20.5604C27.7222 20.9845 27.7254 21.4216 27.644 21.8468C27.5626 22.2721 27.3983 22.6772 27.1604 23.0389C26.9224 23.4007 26.6156 23.712 26.2573 23.9552C26.0884 24.0718 25.9613 24.2395 25.8945 24.4336C25.8277 24.6277 25.8248 24.8381 25.8862 25.034C25.9476 25.2299 26.0701 25.401 26.2358 25.5223C26.4014 25.6435 26.6015 25.7086 26.8068 25.7079C27.0027 25.7116 27.1948 25.654 27.3562 25.5431C28.2109 24.9642 28.8744 24.1446 29.2629 23.1883C29.6513 22.2319 29.7471 21.1818 29.5383 20.1709C29.3294 19.16 28.8252 18.2339 28.0895 17.5098C27.3538 16.7857 26.4198 16.2963 25.4057 16.1035H25.3672Z" fill="white"/>
<path d="M33.4208 9.21388H33.5142C33.752 9.21378 33.9814 9.12555 34.158 8.96623C34.3345 8.80691 34.4458 8.58781 34.4703 8.35124L35.212 1.14245C35.2289 1.01498 35.22 0.885422 35.186 0.761435C35.1519 0.637448 35.0933 0.521554 35.0136 0.420611C34.934 0.319667 34.8349 0.235724 34.7222 0.173748C34.6096 0.111773 34.4856 0.0730227 34.3577 0.0597916C34.2298 0.0465605 34.1006 0.0591168 33.9776 0.0967178C33.8547 0.134319 33.7405 0.1962 33.6419 0.278702C33.5432 0.361203 33.4622 0.462648 33.4034 0.577034C33.3447 0.691421 33.3095 0.816425 33.2999 0.944652L32.5637 8.15894C32.5375 8.41247 32.6131 8.66601 32.7739 8.86383C32.9346 9.06164 33.1673 9.18755 33.4208 9.21388Z" fill="white"/>
<path d="M45.8514 7.73031C45.7102 7.5175 45.4906 7.36917 45.2405 7.3177C44.9903 7.26623 44.73 7.3158 44.5162 7.45559L37.8184 11.8512C37.6445 11.966 37.5126 12.1343 37.4426 12.3306C37.3726 12.5269 37.3682 12.7406 37.4302 12.9396C37.4922 13.1386 37.6172 13.312 37.7863 13.4338C37.9554 13.5556 38.1595 13.6192 38.3679 13.6149C38.5623 13.6194 38.7535 13.5658 38.9173 13.4611L45.6151 9.06548C45.8229 8.91928 45.9644 8.6968 46.0087 8.44663C46.0529 8.19646 45.9964 7.93893 45.8514 7.73031Z" fill="white"/>
<path d="M47.9011 19.4671L40.1099 18.066C39.8585 18.0208 39.5995 18.0773 39.3898 18.2231C39.1801 18.3689 39.0369 18.5921 38.9917 18.8434C38.9466 19.0948 39.0031 19.3538 39.1489 19.5635C39.2947 19.7732 39.5178 19.9164 39.7692 19.9616L47.5549 21.3627H47.7253C47.9703 21.3698 48.2087 21.2832 48.392 21.1204C48.5752 20.9576 48.6894 20.731 48.7111 20.4869C48.7329 20.2427 48.6606 19.9995 48.509 19.8069C48.3574 19.6143 48.138 19.4868 47.8956 19.4506L47.9011 19.4671Z" fill="white"/>
</svg>
