<svg width="44" height="45" viewBox="0 0 44 45" fill="none" xmlns="http://www.w3.org/2000/svg">
<mask id="path-1-outside-1_471_86" maskUnits="userSpaceOnUse" x="1" y="3" width="42" height="39" fill="black">
<rect fill="white" x="1" y="3" width="42" height="39"/>
<path d="M34.0167 8.82L39.5967 18.81L29.0667 22.41L39.5967 25.83L33.6567 36.27L25.1967 28.44L27.6267 39.6H16.1067L18.4467 28.44L10.1667 36.45L3.95668 25.74L14.4867 22.14L4.13668 18.9L9.71668 8.91L18.5367 16.47L15.9267 5.22H27.7167L25.1967 16.47L34.0167 8.82Z"/>
</mask>
<path d="M34.0167 8.82L35.7628 7.84471L34.5637 5.69804L32.7062 7.30913L34.0167 8.82ZM39.5967 18.81L40.2437 20.7025L42.5115 19.9271L41.3428 17.8347L39.5967 18.81ZM29.0667 22.41L28.4197 20.5175L22.7419 22.4587L28.4489 24.3122L29.0667 22.41ZM39.5967 25.83L41.335 26.819L42.5487 24.6859L40.2145 23.9278L39.5967 25.83ZM33.6567 36.27L32.2982 37.7378L34.1483 39.4502L35.395 37.259L33.6567 36.27ZM25.1967 28.44L26.5552 26.9722L21.8901 22.6545L23.2425 28.8655L25.1967 28.44ZM27.6267 39.6V41.6H30.109L29.5809 39.1745L27.6267 39.6ZM16.1067 39.6L14.1492 39.1896L13.6438 41.6H16.1067V39.6ZM18.4467 28.44L20.4041 28.8504L21.7421 22.4694L17.0561 27.0025L18.4467 28.44ZM10.1667 36.45L8.43649 37.4532L9.71926 39.6655L11.5573 37.8875L10.1667 36.45ZM3.95668 25.74L3.30969 23.8475L1.00446 24.6357L2.22649 26.7432L3.95668 25.74ZM14.4867 22.14L15.1337 24.0325L20.9139 22.0563L15.0842 20.2313L14.4867 22.14ZM4.13668 18.9L2.3906 17.9247L1.19043 20.0734L3.53918 20.8087L4.13668 18.9ZM9.71668 8.91L11.0183 7.39148L9.16249 5.80083L7.9706 7.93471L9.71668 8.91ZM18.5367 16.47L17.2351 17.9885L21.8622 21.9546L20.4849 16.018L18.5367 16.47ZM15.9267 5.22V3.22H13.4096L13.9784 5.67199L15.9267 5.22ZM27.7167 5.22L29.6683 5.65716L30.2142 3.22H27.7167V5.22ZM25.1967 16.47L23.245 16.0328L21.9169 21.9622L26.5071 17.9809L25.1967 16.47ZM32.2706 9.79529L37.8506 19.7853L41.3428 17.8347L35.7628 7.84471L32.2706 9.79529ZM38.9497 16.9175L28.4197 20.5175L29.7137 24.3025L40.2437 20.7025L38.9497 16.9175ZM28.4489 24.3122L38.9789 27.7322L40.2145 23.9278L29.6845 20.5078L28.4489 24.3122ZM37.8584 24.841L31.9184 35.2809L35.395 37.259L41.335 26.819L37.8584 24.841ZM35.0152 34.8022L26.5552 26.9722L23.8382 29.9078L32.2982 37.7378L35.0152 34.8022ZM23.2425 28.8655L25.6725 40.0255L29.5809 39.1745L27.1509 28.0145L23.2425 28.8655ZM27.6267 37.6H16.1067V41.6H27.6267V37.6ZM18.0641 40.0104L20.4041 28.8504L16.4892 28.0296L14.1492 39.1896L18.0641 40.0104ZM17.0561 27.0025L8.7761 35.0125L11.5573 37.8875L19.8373 29.8775L17.0561 27.0025ZM11.8969 35.4468L5.68687 24.7368L2.22649 26.7432L8.43649 37.4532L11.8969 35.4468ZM4.60367 27.6325L15.1337 24.0325L13.8397 20.2475L3.30969 23.8475L4.60367 27.6325ZM15.0842 20.2313L4.73417 16.9913L3.53918 20.8087L13.8892 24.0487L15.0842 20.2313ZM5.88276 19.8753L11.4628 9.88529L7.9706 7.93471L2.3906 17.9247L5.88276 19.8753ZM8.4151 10.4285L17.2351 17.9885L19.8383 14.9515L11.0183 7.39148L8.4151 10.4285ZM20.4849 16.018L17.8749 4.768L13.9784 5.67199L16.5884 16.922L20.4849 16.018ZM15.9267 7.22H27.7167V3.22H15.9267V7.22ZM25.765 4.78283L23.245 16.0328L27.1483 16.9072L29.6683 5.65716L25.765 4.78283ZM26.5071 17.9809L35.3271 10.3309L32.7062 7.30913L23.8862 14.9591L26.5071 17.9809Z" fill="url(#paint0_linear_471_86)" mask="url(#path-1-outside-1_471_86)"/>
<defs>
<linearGradient id="paint0_linear_471_86" x1="-7" y1="36.5" x2="50" y2="36.5" gradientUnits="userSpaceOnUse">
<stop stop-color="#1956C1"/>
<stop offset="1" stop-color="#E2403B"/>
</linearGradient>
</defs>
</svg>
