<svg width="50" height="51" viewBox="0 0 50 51" fill="none" xmlns="http://www.w3.org/2000/svg">
<path d="M38.3335 20.5618C38.3335 13.2101 32.3519 7.22852 25.0002 7.22852C17.6486 7.22852 11.667 13.2101 11.667 20.5618C11.667 27.9134 17.6486 33.895 25.0002 33.895C32.3519 33.895 38.3335 27.9134 38.3335 20.5618ZM25.0002 32.2283C18.5669 32.2283 13.3336 26.995 13.3336 20.5618C13.3336 14.1285 18.5669 8.89517 25.0002 8.89517C31.4335 8.89517 36.6668 14.1285 36.6668 20.5618C36.6668 26.995 31.4335 32.2283 25.0002 32.2283Z" fill="url(#paint0_linear_211_9947)"/>
<path d="M49.8047 39.8147L41.1806 29.5372C41.3022 28.7856 41.4447 28.0814 41.6956 27.4764C41.9989 26.7439 42.5514 26.0031 43.1372 25.2206C44.1347 23.8839 45.2664 22.3706 45.2664 20.5615C45.2664 18.7523 44.1356 17.2381 43.1364 15.9015C42.5514 15.1182 41.9989 14.3782 41.6956 13.6457C41.3706 12.864 41.2272 11.9173 41.0764 10.9149C40.8189 9.21319 40.5531 7.45321 39.3306 6.23071C38.1081 5.00822 36.3473 4.74239 34.6448 4.48406C33.6431 4.33239 32.6965 4.18906 31.9156 3.86573C31.1831 3.5624 30.4431 3.00907 29.6598 2.42407C28.3232 1.42658 26.8098 0.294922 24.9999 0.294922C23.1899 0.294922 21.6757 1.42575 20.3399 2.42491C19.5566 3.0099 18.8174 3.5624 18.0849 3.86573C17.3032 4.1899 16.3566 4.33323 15.3549 4.48406C13.6524 4.74239 11.8916 5.00822 10.6691 6.23071C9.44663 7.45321 9.1808 9.21319 8.9233 10.9149C8.77163 11.9173 8.6283 12.864 8.30413 13.6457C8.0008 14.3782 7.44831 15.1182 6.86331 15.9006C5.86498 17.2373 4.73416 18.7515 4.73416 20.5615C4.73416 22.3714 5.86498 23.8848 6.86331 25.2214C7.44831 26.0039 8.0008 26.7439 8.30413 27.4764C8.55497 28.0814 8.69747 28.7856 8.81913 29.5364L0.195023 39.8147C-0.00497554 40.053 -0.0558086 40.383 0.0641906 40.6705C0.18419 40.958 0.453355 41.1538 0.764186 41.1796L8.82163 41.8563L10.8866 49.6746C10.9658 49.9746 11.2066 50.2071 11.5108 50.2746C11.8108 50.3429 12.1308 50.2362 12.3308 49.9971L21.2532 39.3638C22.3607 40.1396 23.5899 40.828 25.0007 40.828C26.4115 40.828 27.6407 40.1396 28.7482 39.363L37.6706 49.9962C37.8706 50.2354 38.1906 50.3421 38.4898 50.2737C38.7939 50.2062 39.0339 49.9746 39.1139 49.6738L41.1797 41.8555L49.2372 41.1788C49.5472 41.153 49.8164 40.9563 49.9364 40.6696C50.0564 40.3813 50.0055 40.0522 49.8055 39.8138L49.8047 39.8147ZM12.0874 47.6938L10.2825 40.8621C10.1925 40.5221 9.89829 40.2747 9.54663 40.2455L2.50584 39.6547L9.17913 31.7014C9.42246 32.893 9.80579 34.028 10.67 34.8922C11.8924 36.1147 13.6524 36.3805 15.3541 36.6388C16.3566 36.7905 17.3032 36.9338 18.0849 37.258C18.6799 37.5047 19.2816 37.918 19.9057 38.3772L12.0874 47.6938ZM21.3382 37.3638C20.5074 36.7438 19.6491 36.1013 18.7241 35.718C17.7541 35.3163 16.6607 35.1505 15.6041 34.9905C14.1024 34.7639 12.6841 34.5489 11.8491 33.7139C11.0141 32.8789 10.8 31.4605 10.5725 29.9581C10.4125 28.9006 10.2475 27.8089 9.84496 26.8389C9.46163 25.9139 8.81996 25.0548 8.19913 24.2239C7.27497 22.9864 6.40165 21.8173 6.40165 20.5615C6.40165 19.3056 7.27498 18.1365 8.19997 16.8981C8.8208 16.0673 9.46163 15.209 9.84579 14.2832C10.2475 13.314 10.4133 12.2198 10.5733 11.164C10.8 9.66152 11.0149 8.2432 11.8499 7.40821C12.6849 6.57321 14.1041 6.35821 15.6066 6.13155C16.6632 5.97238 17.7557 5.80655 18.7257 5.40489C19.6507 5.02072 20.5091 4.37989 21.3399 3.75906C22.5774 2.83407 23.7474 1.96074 25.0032 1.96074C26.259 1.96074 27.4282 2.83407 28.6657 3.75823C29.4965 4.37906 30.3556 5.02072 31.2815 5.40489C32.2506 5.80655 33.344 5.97238 34.3998 6.13155C35.9023 6.35821 37.3214 6.57321 38.1564 7.40821C38.9914 8.2432 39.2056 9.66152 39.4323 11.1632C39.5923 12.2207 39.7581 13.3132 40.1598 14.2832C40.5431 15.2082 41.1847 16.0681 41.8064 16.8981C42.7306 18.1356 43.6039 19.3056 43.6039 20.5615C43.6039 21.8173 42.7306 22.9856 41.8064 24.2231C41.1856 25.0539 40.5431 25.9131 40.1598 26.8389C39.7581 27.8089 39.5923 28.9022 39.4323 29.9581C39.2056 31.4605 38.9906 32.8789 38.1556 33.7139C37.3206 34.5489 35.9023 34.7639 34.4006 34.9905C33.3431 35.1505 32.2506 35.3163 31.2815 35.718C30.3565 36.1013 29.4965 36.743 28.6657 37.3647C27.4282 38.288 26.259 39.1613 25.0032 39.1613C23.7474 39.1613 22.5782 38.288 21.3407 37.3638H21.3382ZM40.4539 40.2455C40.1031 40.2747 39.8089 40.5221 39.7181 40.8621L37.9139 47.6938L30.0948 38.3763C30.719 37.9172 31.3206 37.5038 31.9165 37.2572C32.6981 36.9322 33.6448 36.7888 34.6465 36.638C36.3489 36.3797 38.1081 36.1138 39.3306 34.8913C40.1948 34.0272 40.5781 32.8914 40.8214 31.6997L47.4955 39.653L40.4539 40.2438V40.2455Z" fill="url(#paint1_linear_211_9947)"/>
<path d="M33.2927 18.6201C33.1944 18.3185 32.9336 18.0985 32.6194 18.0526L27.8711 17.3618L25.747 13.0593C25.4661 12.4893 24.5336 12.4893 24.2528 13.0593L22.1287 17.3618L17.3795 18.0526C17.0662 18.0985 16.8054 18.3176 16.707 18.6201C16.6087 18.921 16.6904 19.2526 16.9179 19.4735L20.3537 22.8234L19.542 27.5534C19.4887 27.8659 19.617 28.1817 19.8737 28.3684C20.1312 28.5559 20.4703 28.5801 20.7512 28.4317L24.9986 26.1984L29.2461 28.4317C29.5269 28.5792 29.8661 28.5559 30.1244 28.3684C30.3811 28.1817 30.5094 27.8659 30.4553 27.5534L29.6436 22.8234L33.0802 19.4735C33.3069 19.2518 33.3886 18.921 33.2911 18.6201H33.2927ZM28.1686 21.9359C27.9728 22.1268 27.8828 22.4034 27.9295 22.6734L28.5294 26.1709L25.3886 24.5201C25.267 24.4559 25.1336 24.4243 25.0011 24.4243C24.8686 24.4243 24.7345 24.4559 24.6136 24.5201L21.4728 26.1709L22.0728 22.6734C22.1187 22.4034 22.0295 22.1276 21.8328 21.9359L19.292 19.4593L22.8037 18.9485C23.0753 18.9093 23.3095 18.7385 23.4303 18.4926L25.0011 15.3118L26.572 18.4926C26.6936 18.7385 26.9278 18.9093 27.1995 18.9485L30.7103 19.4593L28.1695 21.9359H28.1686Z" fill="url(#paint2_linear_211_9947)"/>
<defs>
<linearGradient id="paint0_linear_211_9947" x1="11.667" y1="20.5618" x2="38.3335" y2="20.5618" gradientUnits="userSpaceOnUse">
<stop stop-color="#1956C1"/>
<stop offset="1" stop-color="#E2403B"/>
</linearGradient>
<linearGradient id="paint1_linear_211_9947" x1="0" y1="25.2949" x2="50.0005" y2="25.2949" gradientUnits="userSpaceOnUse">
<stop stop-color="#1956C1"/>
<stop offset="1" stop-color="#E2403B"/>
</linearGradient>
<linearGradient id="paint2_linear_211_9947" x1="16.666" y1="20.58" x2="33.3316" y2="20.58" gradientUnits="userSpaceOnUse">
<stop stop-color="#1956C1"/>
<stop offset="1" stop-color="#E2403B"/>
</linearGradient>
</defs>
</svg>
