<svg width="50" height="51" viewBox="0 0 50 51" fill="none" xmlns="http://www.w3.org/2000/svg">
<g clip-path="url(#clip0_335_9822)">
<path d="M49.9996 11.9195C49.9952 10.4559 49.6889 9.0089 49.0999 7.66901C48.5109 6.32912 47.6518 5.12515 46.5763 4.13235C45.3662 3.01036 43.9404 2.14629 42.3858 1.59269C40.8311 1.0391 39.1801 0.80756 37.5332 0.912161C31.6544 1.2532 26.9478 5.68169 26.585 11.2132C26.4082 13.9833 27.3261 16.712 29.1412 18.812C30.7541 20.6497 31.8726 22.8678 32.3913 25.2573C31.9252 25.4287 31.5257 25.744 31.2507 26.1575C30.9756 26.5709 30.8393 27.0612 30.8613 27.5573C30.8833 28.0535 31.0626 28.5297 31.3732 28.9172C31.6839 29.3047 32.1097 29.5833 32.5891 29.7127C32.4568 30.0431 32.4016 30.3992 32.4278 30.7541C32.4541 31.109 32.561 31.4532 32.7405 31.7605C32.9199 32.0677 33.1672 32.33 33.4634 32.5271C33.7597 32.7243 34.097 32.8512 34.4497 32.8982C34.6249 33.7856 35.1026 34.5846 35.8013 35.1588C36.5 35.7331 37.3764 36.0471 38.2809 36.0471C39.1853 36.0471 40.0617 35.7331 40.7604 35.1588C41.4591 34.5846 41.9369 33.7856 42.112 32.8982C42.4647 32.8512 42.8021 32.7243 43.0983 32.5271C43.3945 32.33 43.6418 32.0677 43.8213 31.7605C44.0007 31.4532 44.1077 31.109 44.1339 30.7541C44.1601 30.3992 44.105 30.0431 43.9726 29.7127C44.4485 29.5842 44.8716 29.3087 45.1817 28.9255C45.4918 28.5423 45.673 28.071 45.6994 27.5788C45.7258 27.0866 45.5962 26.5986 45.3289 26.1844C45.0617 25.7702 44.6705 25.4509 44.2111 25.2722C44.7961 22.8241 45.9503 20.5485 47.58 18.6302C49.1449 16.7442 50.0009 14.3702 49.9996 11.9195ZM38.2809 34.4845C37.7963 34.484 37.3238 34.3335 36.9281 34.0538C36.5325 33.774 36.2331 33.3787 36.071 32.922H40.4907C40.3287 33.3787 40.0293 33.774 39.6336 34.0538C39.2379 34.3335 38.7654 34.484 38.2809 34.4845ZM41.7965 31.3595H34.7652C34.558 31.3595 34.3593 31.2772 34.2128 31.1307C34.0663 30.9842 33.984 30.7855 33.984 30.5783C33.984 30.3711 34.0663 30.1724 34.2128 30.0259C34.3593 29.8793 34.558 29.797 34.7652 29.797H41.7965C42.0037 29.797 42.2024 29.8793 42.3489 30.0259C42.4954 30.1724 42.5777 30.3711 42.5777 30.5783C42.5777 30.7855 42.4954 30.9842 42.3489 31.1307C42.2024 31.2772 42.0037 31.3595 41.7965 31.3595ZM43.359 28.2345H33.2027C32.9955 28.2345 32.7968 28.1522 32.6503 28.0057C32.5038 27.8592 32.4215 27.6605 32.4215 27.4533C32.4215 27.2461 32.5038 27.0474 32.6503 26.9009C32.7968 26.7543 32.9955 26.672 33.2027 26.672H43.359C43.5662 26.672 43.7649 26.7543 43.9114 26.9009C44.0579 27.0474 44.1402 27.2461 44.1402 27.4533C44.1402 27.6605 44.0579 27.8592 43.9114 28.0057C43.7649 28.1522 43.5662 28.2345 43.359 28.2345ZM42.6561 25.1095H41.0152V23.547C41.0152 23.3398 40.9329 23.1411 40.7864 22.9946C40.6399 22.848 40.4412 22.7657 40.234 22.7657C40.0268 22.7657 39.8281 22.848 39.6816 22.9946C39.5351 23.1411 39.4527 23.3398 39.4527 23.547V25.1095H37.109V23.547C37.109 23.3398 37.0267 23.1411 36.8802 22.9946C36.7337 22.848 36.5349 22.7657 36.3277 22.7657C36.1205 22.7657 35.9218 22.848 35.7753 22.9946C35.6288 23.1411 35.5465 23.3398 35.5465 23.547V25.1095H33.9605C33.409 22.397 32.1572 19.876 30.3295 17.7972C28.7798 16.0066 27.9951 13.6789 28.1445 11.3155C28.4554 6.56938 32.5306 2.76745 37.624 2.472C39.0585 2.37919 40.4969 2.5793 41.8516 3.06014C43.2063 3.54099 44.449 4.29251 45.504 5.26895C46.4239 6.1163 47.1592 7.14429 47.6639 8.28866C48.1686 9.43304 48.4318 10.6692 48.4371 11.9199C48.4369 14.0099 47.7056 16.034 46.3699 17.6416C44.5521 19.7977 43.2784 22.3588 42.6561 25.1095Z" fill="url(#paint0_linear_335_9822)"/>
<path d="M37.4999 37.547V38.5522C37.5003 38.993 37.4139 39.4295 37.2456 39.8369C37.0772 40.2443 36.8303 40.6144 36.5188 40.9263C36.2073 41.2381 35.8373 41.4855 35.4302 41.6543C35.023 41.8231 34.5866 41.9099 34.1458 41.9099C33.705 41.9099 33.2686 41.8231 32.8614 41.6543C32.4542 41.4855 32.0843 41.2381 31.7728 40.9263C31.4613 40.6144 31.2143 40.2443 31.046 39.8369C30.8776 39.4295 30.7912 38.993 30.7917 38.5522V34.0938C30.7896 32.2296 30.0481 30.4424 28.73 29.1243C27.4118 27.8061 25.6246 27.0646 23.7605 27.0625H23.4349C23.4519 27.5839 23.4348 28.1058 23.3838 28.625H23.7605C25.2104 28.6266 26.6004 29.2033 27.6257 30.2286C28.6509 31.2538 29.2276 32.6439 29.2292 34.0938V38.5522C29.2286 39.1983 29.3554 39.8381 29.6022 40.4351C29.849 41.0321 30.2111 41.5746 30.6677 42.0316C31.1243 42.4886 31.6665 42.8512 32.2633 43.0985C32.8601 43.3459 33.4998 43.4732 34.1458 43.4732C34.7918 43.4732 35.4315 43.3459 36.0283 43.0985C36.6251 42.8512 37.1673 42.4886 37.6239 42.0316C38.0805 41.5746 38.4425 41.0321 38.6894 40.4351C38.9362 39.8381 39.0629 39.1983 39.0624 38.5522V37.547C38.5448 37.6302 38.0174 37.6302 37.4999 37.547Z" fill="url(#paint1_linear_335_9822)"/>
<path d="M26.866 41.4427C26.7941 40.8726 26.5395 40.3412 26.1404 39.9278C25.7413 39.5144 25.2191 39.2414 24.6519 39.1495L18.8204 38.0674C18.6545 38.0334 18.4988 37.961 18.3657 37.8562C18.2326 37.7513 18.1259 37.6168 18.054 37.4634C17.5837 37.694 17.0942 37.8832 16.591 38.029C16.7355 38.3623 16.9455 38.6633 17.2085 38.9139L14.0624 43.948L10.9162 38.9139C11.1793 38.6633 11.3893 38.3623 11.5338 38.029C11.0306 37.8832 10.5411 37.694 10.0708 37.4634C9.99886 37.6168 9.89211 37.7513 9.75904 37.8561C9.62597 37.961 9.47026 38.0334 9.30429 38.0674L3.4926 39.146C2.92485 39.2337 2.40073 39.5027 1.99861 39.913C1.5965 40.3233 1.33799 40.8527 1.26176 41.4221L0.00824919 49.9964C-0.00800615 50.1074 -0.000177615 50.2206 0.0312025 50.3282C0.0625827 50.4359 0.116779 50.5355 0.190106 50.6204C0.263433 50.7052 0.354171 50.7733 0.456152 50.82C0.558133 50.8666 0.668965 50.8908 0.781112 50.8908H27.3436C27.4558 50.8908 27.5666 50.8666 27.6686 50.82C27.7706 50.7733 27.8613 50.7052 27.9346 50.6204C28.0079 50.5355 28.0621 50.4359 28.0935 50.3282C28.1249 50.2206 28.1327 50.1074 28.1165 49.9964L26.866 41.4427ZM13.2811 49.3283H1.68482L2.81053 41.6273C2.84418 41.3885 2.95498 41.1672 3.12605 40.9972C3.29712 40.8272 3.51908 40.7178 3.7581 40.6857L9.51332 39.6178L13.2811 45.6463V49.3283ZM14.8436 49.3283V45.6462L18.6114 39.6178L24.3865 40.6891C24.625 40.7254 24.8451 40.8389 25.0132 41.012C25.1813 41.1852 25.288 41.4086 25.3172 41.6481L26.4399 49.3283L14.8436 49.3283Z" fill="url(#paint2_linear_335_9822)"/>
<path d="M19.8672 22.1306C19.6984 21.9909 19.5149 21.87 19.3199 21.77C19.1186 21.708 18.928 21.6159 18.7545 21.4966C17.4121 20.184 15.8812 19.62 13.7591 19.6417C11.0171 19.6806 8.96824 20.7768 7.49538 22.9929C6.63687 24.3631 6.20506 25.9575 6.25484 27.5737C6.28375 28.3069 6.36265 29.0372 6.49097 29.7597C6.49486 29.78 6.50506 29.7976 6.51048 29.8174C6.65257 31.7281 7.51366 33.5139 8.92021 34.8149C10.3268 36.1159 12.1742 36.8354 14.0902 36.8283C16.0061 36.8213 17.8482 36.0882 19.2451 34.7768C20.642 33.4654 21.4899 31.6733 21.6178 29.7616C21.7327 29.3002 22.4845 25.9361 20.7427 23.1351C20.5068 22.7553 20.2112 22.4161 19.8672 22.1306ZM14.0628 35.2658C12.5792 35.2543 11.1513 34.6991 10.0496 33.7053C8.948 32.7115 8.2491 31.3482 8.08535 29.8736C8.44874 29.4831 8.77913 29.0631 9.07314 28.6179C9.74415 27.5479 10.2572 27.1329 10.9652 27.0871C11.9568 27.023 12.9283 27.3343 13.9235 27.2492C14.9026 27.1708 15.8596 26.9164 16.7484 26.4983C17.9518 27.5137 19.0544 28.6429 20.0407 29.8703C19.8777 31.3455 19.179 32.7097 18.0772 33.7042C16.9754 34.6987 15.547 35.2543 14.0628 35.2658ZM20.3039 27.7929C19.4592 26.7914 18.5095 25.8833 17.4712 25.0842C17.2998 24.9586 17.0969 24.8833 16.8851 24.8667C16.6733 24.8502 16.4611 24.893 16.2722 24.9903C15.4988 25.3839 14.6558 25.6224 13.7908 25.6924C12.812 25.7762 11.8466 25.4647 10.8645 25.528C9.3623 25.6249 8.48073 26.648 7.82308 27.6717C7.88668 27.5727 7.82204 27.3609 7.82352 27.2483C7.82166 26.0489 8.15913 24.8735 8.79695 23.8577C9.97913 22.0787 11.563 21.2357 13.7812 21.2042C15.4685 21.1735 16.627 21.6017 17.662 22.614C18.2174 23.1565 18.9784 23.2565 19.4159 23.9602C20.082 25.1228 20.3909 26.4559 20.3039 27.7929Z" fill="url(#paint3_linear_335_9822)"/>
<path d="M44.6455 9.58263C44.8528 9.19867 44.9308 8.75812 44.8679 8.32633C44.8051 7.89454 44.6047 7.4945 44.2966 7.18556L43.3145 6.20344C43.0057 5.89501 42.6056 5.6944 42.1738 5.63141C41.7419 5.56842 41.3012 5.64641 40.9172 5.85379C40.7921 5.43588 40.5358 5.06939 40.186 4.80866C39.8363 4.54792 39.4119 4.40681 38.9757 4.40625H37.5868C37.1506 4.40681 36.7262 4.54792 36.3765 4.80866C36.0267 5.0694 35.7704 5.43589 35.6453 5.8538C35.2613 5.64642 34.8206 5.56843 34.3888 5.63141C33.9569 5.69438 33.5569 5.89496 33.2481 6.20337L32.2659 7.18554C31.9578 7.49448 31.7574 7.89452 31.6946 8.32632C31.6317 8.75812 31.7097 9.19867 31.917 9.58264C31.4989 9.70756 31.1323 9.96391 30.8714 10.3137C30.6105 10.6634 30.4693 11.088 30.4688 11.5243V12.9132C30.4693 13.3496 30.6105 13.7741 30.8714 14.1239C31.1323 14.4737 31.4989 14.73 31.917 14.855C31.7097 15.2389 31.6317 15.6795 31.6946 16.1113C31.7574 16.543 31.9578 16.9431 32.2659 17.252L33.248 18.2341C33.5568 18.5426 33.9569 18.7432 34.3887 18.8061C34.8206 18.8691 35.2613 18.7912 35.6453 18.5838C35.7703 19.0017 36.0267 19.3682 36.3764 19.629C36.7261 19.8897 37.1506 20.0308 37.5868 20.0313H38.9757C39.4119 20.0308 39.8364 19.8897 40.1861 19.629C40.5358 19.3682 40.7922 19.0017 40.9172 18.5838C41.3012 18.7911 41.7418 18.8691 42.1737 18.8062C42.6056 18.7432 43.0056 18.5426 43.3144 18.2342L44.2966 17.2521C44.6047 16.9431 44.8051 16.5431 44.8679 16.1113C44.9308 15.6795 44.8528 15.2389 44.6455 14.855C45.0635 14.73 45.4302 14.4737 45.6911 14.1239C45.952 13.7741 46.0932 13.3496 46.0938 12.9132V11.5243C46.0932 11.088 45.952 10.6634 45.6911 10.3137C45.4302 9.96391 45.0636 9.70755 44.6455 9.58263ZM44.5312 12.9132C44.5312 13.036 44.4825 13.1538 44.3957 13.2406C44.3088 13.3274 44.1911 13.3762 44.0683 13.3762H43.2401C43.1143 13.9178 42.9001 14.435 42.6062 14.9069L43.1917 15.4925C43.2786 15.5793 43.3273 15.697 43.3273 15.8198C43.3273 15.9426 43.2786 16.0604 43.1917 16.1472L42.2096 17.1293C42.1667 17.1723 42.1156 17.2064 42.0594 17.2296C42.0033 17.2529 41.9431 17.2649 41.8823 17.2649C41.8215 17.2649 41.7613 17.2529 41.7051 17.2296C41.6489 17.2064 41.5979 17.1723 41.5549 17.1293L40.9693 16.5437C40.4974 16.8377 39.9802 17.0519 39.4387 17.1777V18.0059C39.4387 18.1286 39.3899 18.2464 39.3031 18.3332C39.2162 18.42 39.0985 18.4688 38.9757 18.4688H37.5868C37.526 18.4688 37.4658 18.4569 37.4096 18.4336C37.3535 18.4103 37.3024 18.3762 37.2594 18.3332C37.2164 18.2902 37.1823 18.2392 37.1591 18.183C37.1358 18.1269 37.1238 18.0667 37.1238 18.0059V17.1777C36.5822 17.0519 36.0651 16.8377 35.5931 16.5437L35.0076 17.1293C34.9646 17.1723 34.9136 17.2064 34.8574 17.2296C34.8012 17.2529 34.741 17.2649 34.6802 17.2649C34.6194 17.2649 34.5592 17.2529 34.503 17.2296C34.4469 17.2064 34.3958 17.1723 34.3528 17.1293L33.3708 16.1472C33.284 16.0604 33.2352 15.9426 33.2352 15.8198C33.2352 15.697 33.284 15.5793 33.3708 15.4924L33.9563 14.9069C33.6624 14.4349 33.4482 13.9178 33.3224 13.3762H32.4942C32.3714 13.3762 32.2537 13.3274 32.1669 13.2406C32.08 13.1538 32.0313 13.036 32.0312 12.9132V11.5243C32.0312 11.4635 32.0432 11.4033 32.0665 11.3472C32.0898 11.291 32.1239 11.24 32.1668 11.197C32.2098 11.154 32.2609 11.1199 32.317 11.0966C32.3732 11.0733 32.4334 11.0614 32.4942 11.0614H33.3224C33.4482 10.5198 33.6623 10.0026 33.9563 9.53066L33.3708 8.94512C33.2839 8.85829 33.2352 8.74054 33.2352 8.61776C33.2352 8.49497 33.2839 8.37722 33.3708 8.29039L34.3529 7.30832C34.3959 7.26532 34.4469 7.23122 34.5031 7.20795C34.5592 7.18468 34.6194 7.1727 34.6802 7.1727C34.741 7.1727 34.8013 7.18468 34.8574 7.20795C34.9136 7.23122 34.9646 7.26532 35.0076 7.30832L35.5932 7.89386C36.0651 7.59989 36.5822 7.38569 37.1238 7.25988V6.43173C37.1238 6.30894 37.1726 6.19119 37.2594 6.10436C37.3462 6.01754 37.464 5.96876 37.5868 5.96876H38.9757C39.0985 5.96876 39.2162 6.01754 39.303 6.10436C39.3899 6.19119 39.4386 6.30894 39.4386 6.43173V7.25988C39.9802 7.38568 40.4974 7.59987 40.9693 7.89384L41.5549 7.30829C41.5979 7.26529 41.6489 7.23119 41.7051 7.20792C41.7612 7.18465 41.8214 7.17268 41.8822 7.17268C41.943 7.17268 42.0033 7.18465 42.0594 7.20792C42.1156 7.23119 42.1666 7.26529 42.2096 7.30829L43.1917 8.29039C43.2785 8.37721 43.3273 8.49496 43.3273 8.61775C43.3273 8.74053 43.2785 8.85829 43.1917 8.94511L42.6062 9.53066C42.9001 10.0026 43.1143 10.5198 43.2401 11.0614H44.0683C44.1291 11.0614 44.1893 11.0733 44.2454 11.0966C44.3016 11.1199 44.3527 11.154 44.3956 11.197C44.4386 11.2399 44.4727 11.291 44.496 11.3472C44.5193 11.4033 44.5313 11.4635 44.5312 11.5243V12.9132Z" fill="url(#paint4_linear_335_9822)"/>
<path d="M38.2813 9.09375C37.6632 9.09375 37.059 9.27703 36.5451 9.62041C36.0312 9.96379 35.6307 10.4518 35.3941 11.0229C35.1576 11.5939 35.0957 12.2222 35.2163 12.8284C35.3369 13.4346 35.6345 13.9914 36.0715 14.4285C36.5086 14.8655 37.0654 15.1631 37.6716 15.2837C38.2778 15.4043 38.9061 15.3424 39.4771 15.1059C40.0482 14.8693 40.5362 14.4688 40.8796 13.9549C41.223 13.441 41.4063 12.8368 41.4063 12.2188C41.4053 11.3902 41.0758 10.5959 40.4899 10.0101C39.9041 9.42423 39.1098 9.09469 38.2813 9.09375ZM38.2813 13.7813C37.9722 13.7813 37.6701 13.6896 37.4132 13.5179C37.1562 13.3463 36.956 13.1022 36.8377 12.8167C36.7194 12.5312 36.6885 12.217 36.7488 11.9139C36.8091 11.6108 36.9579 11.3324 37.1764 11.1139C37.3949 10.8954 37.6733 10.7466 37.9764 10.6863C38.2795 10.626 38.5937 10.6569 38.8792 10.7752C39.1647 10.8935 39.4087 11.0937 39.5804 11.3507C39.7521 11.6076 39.8438 11.9097 39.8438 12.2188C39.8438 12.6332 39.6791 13.0306 39.3861 13.3236C39.0931 13.6167 38.6957 13.7813 38.2813 13.7813Z" fill="url(#paint5_linear_335_9822)"/>
<path d="M18.6669 18.7477C18.8453 18.8516 19.0571 18.8818 19.2574 18.8318C19.4577 18.7819 19.6305 18.6558 19.7392 18.4803L21.7633 15.1104C21.8161 15.0224 21.8511 14.9249 21.8663 14.8234C21.8814 14.7219 21.8764 14.6185 21.8516 14.5189C21.8267 14.4193 21.7825 14.3257 21.7214 14.2432C21.6604 14.1607 21.5837 14.0911 21.4957 14.0383C21.4077 13.9854 21.3102 13.9505 21.2087 13.9353C21.1073 13.9202 21.0038 13.9252 20.9042 13.95C20.8047 13.9749 20.711 14.0191 20.6285 14.0801C20.5461 14.1412 20.4764 14.2179 20.4236 14.3059L18.3995 17.6758C18.2929 17.8534 18.2612 18.0661 18.3113 18.2671C18.3615 18.4681 18.4894 18.641 18.6669 18.7477Z" fill="url(#paint6_linear_335_9822)"/>
<path d="M7.60433 18.4803C7.71286 18.656 7.88574 18.7822 8.08607 18.8322C8.28641 18.8822 8.49835 18.8518 8.67664 18.7477C8.85419 18.641 8.9821 18.4681 9.03224 18.2671C9.08238 18.0661 9.05066 17.8534 8.94405 17.6758L6.91997 14.3059C6.86715 14.2179 6.79751 14.1412 6.71505 14.0801C6.63258 14.0191 6.53889 13.9749 6.43933 13.95C6.33978 13.9252 6.2363 13.9202 6.13482 13.9353C6.03333 13.9505 5.93582 13.9854 5.84785 14.0383C5.75988 14.0911 5.68318 14.1607 5.62213 14.2432C5.56107 14.3257 5.51686 14.4193 5.49201 14.5189C5.46716 14.6185 5.46216 14.7219 5.4773 14.8234C5.49244 14.9249 5.52743 15.0224 5.58025 15.1104L7.60433 18.4803Z" fill="url(#paint7_linear_335_9822)"/>
<path d="M13.6719 18.0558C13.8791 18.0558 14.0778 17.9735 14.2243 17.827C14.3708 17.6805 14.4531 17.4818 14.4531 17.2746V13.3906C14.4531 13.1834 14.3708 12.9847 14.2243 12.8382C14.0778 12.6917 13.8791 12.6094 13.6719 12.6094C13.4647 12.6094 13.266 12.6917 13.1194 12.8382C12.9729 12.9847 12.8906 13.1834 12.8906 13.3906V17.2746C12.8906 17.4818 12.9729 17.6805 13.1195 17.827C13.266 17.9735 13.4647 18.0558 13.6719 18.0558Z" fill="url(#paint8_linear_335_9822)"/>
</g>
<defs>
<linearGradient id="paint0_linear_335_9822" x1="26.5635" y1="18.4674" x2="49.9996" y2="18.4674" gradientUnits="userSpaceOnUse">
<stop stop-color="#1956C1"/>
<stop offset="1" stop-color="#E2403B"/>
</linearGradient>
<linearGradient id="paint1_linear_335_9822" x1="23.3838" y1="35.2678" x2="39.0624" y2="35.2678" gradientUnits="userSpaceOnUse">
<stop stop-color="#1956C1"/>
<stop offset="1" stop-color="#E2403B"/>
</linearGradient>
<linearGradient id="paint2_linear_335_9822" x1="0" y1="44.1771" x2="28.1247" y2="44.1771" gradientUnits="userSpaceOnUse">
<stop stop-color="#1956C1"/>
<stop offset="1" stop-color="#E2403B"/>
</linearGradient>
<linearGradient id="paint3_linear_335_9822" x1="6.25098" y1="28.2347" x2="21.8773" y2="28.2347" gradientUnits="userSpaceOnUse">
<stop stop-color="#1956C1"/>
<stop offset="1" stop-color="#E2403B"/>
</linearGradient>
<linearGradient id="paint4_linear_335_9822" x1="30.4688" y1="12.2188" x2="46.0938" y2="12.2188" gradientUnits="userSpaceOnUse">
<stop stop-color="#1956C1"/>
<stop offset="1" stop-color="#E2403B"/>
</linearGradient>
<linearGradient id="paint5_linear_335_9822" x1="35.1562" y1="12.2188" x2="41.4063" y2="12.2188" gradientUnits="userSpaceOnUse">
<stop stop-color="#1956C1"/>
<stop offset="1" stop-color="#E2403B"/>
</linearGradient>
<linearGradient id="paint6_linear_335_9822" x1="18.2881" y1="16.3911" x2="21.8748" y2="16.3911" gradientUnits="userSpaceOnUse">
<stop stop-color="#1956C1"/>
<stop offset="1" stop-color="#E2403B"/>
</linearGradient>
<linearGradient id="paint7_linear_335_9822" x1="5.46875" y1="16.3912" x2="9.05548" y2="16.3912" gradientUnits="userSpaceOnUse">
<stop stop-color="#1956C1"/>
<stop offset="1" stop-color="#E2403B"/>
</linearGradient>
<linearGradient id="paint8_linear_335_9822" x1="12.8906" y1="15.3326" x2="14.4531" y2="15.3326" gradientUnits="userSpaceOnUse">
<stop stop-color="#1956C1"/>
<stop offset="1" stop-color="#E2403B"/>
</linearGradient>
<clipPath id="clip0_335_9822">
<rect width="50" height="50" fill="white" transform="translate(0 0.890625)"/>
</clipPath>
</defs>
</svg>
