<svg width="50" height="51" viewBox="0 0 50 51" fill="none" xmlns="http://www.w3.org/2000/svg">
<path d="M14.4934 25.2719C15.4714 25.2719 16.3458 24.8213 16.9207 24.117L22.4821 26.6785C22.4492 26.8601 22.4311 27.0468 22.4311 27.2377C22.4311 28.9652 23.8366 30.3707 25.5641 30.3707C27.2915 30.3707 28.697 28.9652 28.697 27.2377C28.697 26.7148 28.5675 26.2217 28.3399 25.7879L38.4971 16.6349L38.3383 18.582C38.3032 19.012 38.6234 19.3891 39.0534 19.4242C39.0751 19.4259 39.0964 19.4268 39.1178 19.4268C39.5204 19.4268 39.8622 19.1174 39.8956 18.709L40.2239 14.6846C40.243 14.4511 40.1562 14.2214 39.9876 14.0588C39.8191 13.8963 39.5877 13.8177 39.3537 13.8453L35.3437 14.3182C34.9152 14.3688 34.6089 14.7571 34.6594 15.1856C34.7099 15.6141 35.0981 15.9206 35.5268 15.87L37.2357 15.6684L27.2938 24.6275C26.7977 24.2977 26.2031 24.105 25.5641 24.105C24.5862 24.105 23.7118 24.5556 23.1368 25.2599L17.5754 22.6985C17.6083 22.5168 17.6264 22.3301 17.6264 22.1391C17.6264 20.4117 16.2209 19.0062 14.4934 19.0062C12.766 19.0062 11.3605 20.4116 11.3605 22.1391C11.3605 22.4269 11.4003 22.7054 11.4733 22.9704L1.17401 28.8758C0.799697 29.0905 0.670303 29.5678 0.884854 29.9421C1.02929 30.1939 1.29257 30.3349 1.56337 30.3349C1.69511 30.3349 1.8287 30.3015 1.95126 30.2312L12.252 24.3247C12.8215 24.9085 13.6156 25.2719 14.4934 25.2719ZM25.5641 25.6673C26.43 25.6673 27.1345 26.3718 27.1345 27.2377C27.1345 28.1037 26.43 28.8082 25.5641 28.8082C24.6981 28.8082 23.9936 28.1037 23.9936 27.2377C23.9936 26.3718 24.6981 25.6673 25.5641 25.6673ZM14.4934 20.5686C15.3594 20.5686 16.0639 21.2731 16.0639 22.139C16.0639 23.0049 15.3594 23.7094 14.4934 23.7094C13.6275 23.7094 12.923 23.0049 12.923 22.139C12.923 21.2731 13.6275 20.5686 14.4934 20.5686ZM41.4599 37.1856C41.543 37.8691 41.3584 38.4943 40.9264 38.9939C40.4811 39.5086 39.7762 39.8689 38.9683 40.0099V40.4007C38.9683 40.8322 38.6185 41.182 38.187 41.182C37.7556 41.182 37.4058 40.8322 37.4058 40.4007V39.9972C36.1625 39.7457 35.2086 38.9083 34.9178 37.742C34.8135 37.3234 35.0682 36.8995 35.4868 36.7951C35.9058 36.6906 36.3295 36.9455 36.4339 37.3641C36.6518 38.239 37.5602 38.5292 38.2705 38.5126C38.8851 38.4979 39.4774 38.2806 39.7445 37.9718C39.8861 37.8081 39.9384 37.618 39.9088 37.374C39.8579 36.9552 39.6027 36.4422 38.0676 36.1902C35.7452 35.8088 35.2027 34.5952 35.1566 33.6442C35.093 32.3335 35.9962 31.2369 37.4057 30.9109V30.4942C37.4057 30.0627 37.7555 29.7129 38.1869 29.7129C38.6184 29.7129 38.9682 30.0627 38.9682 30.4942V30.904C39.8837 31.1046 40.7565 31.6832 41.2117 32.7671C41.3788 33.165 41.1917 33.6229 40.7938 33.7899C40.3965 33.9569 39.9381 33.77 39.7711 33.372C39.4016 32.4919 38.498 32.2654 37.7665 32.4312C37.5841 32.4726 36.6762 32.7218 36.7173 33.5684C36.7282 33.7936 36.7572 34.3916 38.3208 34.6484C40.2375 34.963 41.2937 35.8167 41.4599 37.1856ZM38.187 26.8387C33.4401 26.8387 29.5782 30.7005 29.5782 35.4474C29.5782 40.1943 33.4401 44.0562 38.187 44.0562C42.9338 44.0562 46.7957 40.1944 46.7957 35.4474C46.7958 30.7005 42.9339 26.8387 38.187 26.8387ZM38.187 42.4937C34.3017 42.4937 31.1407 39.3328 31.1407 35.4474C31.1407 31.5621 34.3017 28.4012 38.187 28.4012C42.0723 28.4012 45.2332 31.5622 45.2332 35.4474C45.2332 39.3327 42.0723 42.4937 38.187 42.4937ZM38.187 24.4155C32.1039 24.4155 27.155 29.3644 27.155 35.4474C27.155 41.5304 32.1039 46.4793 38.187 46.4793C44.27 46.4793 49.2189 41.5304 49.2189 35.4474C49.2189 29.3644 44.27 24.4155 38.187 24.4155ZM38.187 44.9169C32.9654 44.9169 28.7175 40.6689 28.7175 35.4475C28.7175 30.2261 32.9654 25.9781 38.187 25.9781C43.4085 25.9781 47.6564 30.2261 47.6564 35.4475C47.6564 40.6689 43.4085 44.9169 38.187 44.9169ZM18.7589 37.0949C20.3244 36.0207 21.3537 34.2191 21.3537 32.1812C21.3537 28.897 18.6819 26.2251 15.3977 26.2251C12.1136 26.2251 9.44169 28.897 9.44169 32.1812C9.44169 34.2191 10.471 36.0206 12.0365 37.0948C7.97792 38.3869 4.9203 41.9633 4.44501 46.4065C4.42138 46.6269 4.49247 46.8469 4.64071 47.0119C4.78896 47.1767 5.00019 47.2709 5.22177 47.2709H25.5735C25.7952 47.2709 26.0064 47.1767 26.1546 47.0118C26.3028 46.8469 26.3739 46.6269 26.3503 46.4065C25.8749 41.9635 22.8174 38.3871 18.7589 37.0949ZM11.0042 32.1813C11.0042 29.7586 12.9752 27.7877 15.3977 27.7877C17.8203 27.7877 19.7912 29.7586 19.7912 32.1813C19.7912 34.604 17.8203 36.5749 15.3977 36.5749C12.9752 36.5749 11.0042 34.6039 11.0042 32.1813ZM6.13104 45.7084C7.0079 41.3357 10.8486 38.1374 15.3976 38.1374C19.9466 38.1374 23.7873 41.3357 24.6642 45.7084H6.13104ZM18.3859 17.7516H19.0631V20.4811C19.0631 20.8 19.2568 21.0868 19.5526 21.2058C19.6473 21.2439 19.7461 21.2624 19.8441 21.2624C20.0528 21.2624 20.2574 21.1788 20.4077 21.0223L23.5498 17.7516H31.0093C32.3904 17.7516 33.514 16.628 33.514 15.2469V6.60894C33.514 5.22778 32.3903 4.10425 31.0093 4.10425H18.3859C17.0048 4.10425 15.8812 5.22788 15.8812 6.60894V15.2469C15.8811 16.628 17.0048 17.7516 18.3859 17.7516ZM17.4436 6.60894C17.4436 6.0894 17.8663 5.66675 18.3858 5.66675H31.0092C31.5287 5.66675 31.9514 6.0894 31.9514 6.60894V15.2469C31.9514 15.7665 31.5287 16.1891 31.0092 16.1891H23.2169C23.0042 16.1891 22.8008 16.2758 22.6534 16.4292L20.6254 18.5402V16.9704C20.6254 16.5389 20.2756 16.1891 19.8441 16.1891H18.3857C17.8662 16.1891 17.4435 15.7665 17.4435 15.2469L17.4436 6.60894ZM19.5641 7.82378C19.5641 7.39233 19.914 7.04253 20.3454 7.04253H29.0497C29.4811 7.04253 29.8309 7.39233 29.8309 7.82378C29.8309 8.25522 29.4811 8.60503 29.0497 8.60503H20.3454C19.914 8.60503 19.5641 8.25522 19.5641 7.82378ZM19.5641 10.9279C19.5641 10.4964 19.914 10.1466 20.3454 10.1466H29.0497C29.4811 10.1466 29.8309 10.4964 29.8309 10.9279C29.8309 11.3593 29.4811 11.7091 29.0497 11.7091H20.3454C19.914 11.7091 19.5641 11.3594 19.5641 10.9279ZM19.5641 14.032C19.5641 13.6005 19.914 13.2507 20.3454 13.2507H29.0497C29.4811 13.2507 29.8309 13.6005 29.8309 14.032C29.8309 14.4634 29.4811 14.8132 29.0497 14.8132H20.3454C19.914 14.8132 19.5641 14.4635 19.5641 14.032Z" fill="url(#paint0_linear_335_18076)"/>
<defs>
<linearGradient id="paint0_linear_335_18076" x1="0.78125" y1="25.6875" x2="49.2189" y2="25.6875" gradientUnits="userSpaceOnUse">
<stop stop-color="#1956C1"/>
<stop offset="1" stop-color="#E2403B"/>
</linearGradient>
</defs>
</svg>
