<svg width="20" height="21" viewBox="0 0 20 21" fill="none" xmlns="http://www.w3.org/2000/svg">
<path d="M17.0711 13.4289C15.9819 12.3398 14.6855 11.5335 13.2711 11.0454C14.786 10.002 15.7812 8.25578 15.7812 6.28125C15.7812 3.09348 13.1878 0.5 10 0.5C6.81223 0.5 4.21875 3.09348 4.21875 6.28125C4.21875 8.25578 5.21402 10.002 6.72898 11.0454C5.31453 11.5335 4.01813 12.3398 2.92895 13.4289C1.0402 15.3177 0 17.8289 0 20.5H1.5625C1.5625 15.8475 5.34754 12.0625 10 12.0625C14.6525 12.0625 18.4375 15.8475 18.4375 20.5H20C20 17.8289 18.9598 15.3177 17.0711 13.4289ZM10 10.5C7.67379 10.5 5.78125 8.6075 5.78125 6.28125C5.78125 3.955 7.67379 2.0625 10 2.0625C12.3262 2.0625 14.2188 3.955 14.2188 6.28125C14.2188 8.6075 12.3262 10.5 10 10.5Z" fill="white"/>
</svg>
