<svg width="50" height="51" viewBox="0 0 50 51" fill="none" xmlns="http://www.w3.org/2000/svg">
<g clip-path="url(#clip0_335_18105)">
<path fill-rule="evenodd" clip-rule="evenodd" d="M34.9684 14.9423C24.6371 24.5133 14.1458 29.3487 4.60897 32.3682C4.19623 32.4989 3.75515 32.2699 3.62446 31.8572C3.49378 31.4445 3.7228 31.0034 4.13545 30.8727C13.5004 27.9076 23.806 23.16 33.9506 13.7468C33.7498 12.4757 33.5161 9.12194 35.8991 6.20027C37.8241 3.83998 41.5014 1.70929 48.4922 1.37468C48.7783 1.36096 49.0491 1.50439 49.1987 1.7487C49.3482 1.99302 49.3526 2.29949 49.2102 2.54802C49.2102 2.54802 46.4647 7.324 45.7594 9.75929C45.094 12.0567 43.9555 13.467 42.6727 14.3202C39.8345 16.2078 36.1902 15.3148 34.9684 14.9423ZM36.2347 13.6641C37.5999 13.9868 39.9186 14.268 41.804 13.0141C42.8357 12.3278 43.7174 11.1708 44.2526 9.32292C44.7569 7.58174 46.2505 4.694 47.1465 3.0387C41.7209 3.52713 38.7231 5.21949 37.1147 7.19164C35.6604 8.97468 35.3775 10.9507 35.3942 12.2876C36.616 11.0733 38.6404 9.18615 40.7243 7.78341C41.0833 7.54164 41.5711 7.63694 41.8129 7.99606C42.0546 8.35508 41.9593 8.84292 41.6003 9.08468C39.4457 10.535 37.3588 12.5274 36.2347 13.6641ZM46.2669 46.0767H48.5297C48.9628 46.0767 49.314 46.4279 49.314 46.8611V49.2169C49.314 49.6501 48.9628 50.0013 48.5297 50.0013H1.47084C1.0377 50.0013 0.686523 49.6501 0.686523 49.2169V46.8611C0.686523 46.4279 1.0377 46.0767 1.47084 46.0767H3.73358V35.5549C3.73358 35.1217 4.08476 34.7706 4.5179 34.7706H10.7519C11.1851 34.7706 11.5362 35.1217 11.5362 35.5549V46.0767H15.3114V29.286C15.3114 28.8527 15.6625 28.5016 16.0957 28.5016H22.3297C22.7629 28.5016 23.114 28.8527 23.114 29.286V46.0767H26.8865V22.7426C26.8865 22.3095 27.2376 21.9583 27.6708 21.9583H33.9075C34.3406 21.9583 34.6918 22.3095 34.6918 22.7426V46.0767H38.4643V16.8556C38.4643 16.4224 38.8154 16.0713 39.2486 16.0713H45.4826C45.9157 16.0713 46.2669 16.4224 46.2669 16.8556V46.0767ZM5.30221 46.0767H9.9676V36.3392H5.30221V46.0767ZM16.8801 46.0767H21.5453V30.0703H16.8801V46.0767ZM28.4552 46.0767H33.1232C33.1232 42.0117 33.1232 23.5269 33.1232 23.5269H28.4552V46.0767ZM40.0329 46.0767H44.6983V17.6399H40.0329V46.0767ZM2.25515 48.4326H47.7453V47.6454H2.25515V48.4326ZM22.2511 18.342C22.6256 18.2995 22.9872 18.5329 23.0935 18.9073C23.2117 19.3238 22.9696 19.7578 22.5531 19.876L20.5209 20.4527C20.2918 20.5178 20.0454 20.4752 19.8515 20.3368C19.6575 20.1985 19.5369 19.9795 19.5237 19.7416L19.4068 17.6325C19.3829 17.2003 19.7143 16.83 20.1465 16.806C20.5425 16.784 20.8865 17.0604 20.9599 17.4393C21.7415 16.0426 22.1864 14.4385 22.1864 12.7329C22.1864 7.32586 17.7175 2.94243 12.2208 2.94243C11.6054 2.94243 11.003 2.99723 10.4183 3.10233C9.99221 3.1789 9.58417 2.89517 9.5076 2.46919C9.43103 2.04311 9.71476 1.63508 10.1407 1.55851C10.8155 1.43723 11.5107 1.3738 12.2208 1.3738C18.5903 1.3738 23.7551 6.46723 23.7551 12.7329C23.7551 14.772 23.2084 16.6865 22.2511 18.342ZM2.21094 7.08851C1.82113 7.14772 1.44035 6.90508 1.33623 6.51537C1.22446 6.09713 1.47329 5.66694 1.89152 5.55517L3.93231 5.00988C4.1625 4.94841 4.40809 4.99478 4.59995 5.13615C4.79172 5.27743 4.90897 5.49821 4.91848 5.73625L5.0028 7.84704C5.02005 8.27959 4.6829 8.64468 4.25035 8.66204C3.8727 8.67713 3.54633 8.42194 3.45819 8.0689C2.69113 9.45557 2.25515 11.0446 2.25515 12.7329C2.25515 18.1401 6.72417 22.5234 12.2208 22.5234C12.8361 22.5234 13.4386 22.4686 14.0234 22.3635C14.4494 22.2869 14.8575 22.5707 14.9341 22.9967C15.0106 23.4227 14.7268 23.8309 14.3008 23.9074C13.626 24.0286 12.9309 24.092 12.2208 24.092C5.85133 24.092 0.686523 18.9986 0.686523 12.7329C0.686523 10.6793 1.24103 8.75204 2.21094 7.08851ZM12.2208 21.2084C7.5528 21.2084 3.74535 17.401 3.74535 12.7329C3.74535 8.06488 7.5528 4.25743 12.2208 4.25743C16.8889 4.25743 20.6963 8.06488 20.6963 12.7329C20.6963 17.401 16.8889 21.2084 12.2208 21.2084ZM12.2208 19.6398C16.0249 19.6398 19.1277 16.537 19.1277 12.7329C19.1277 8.9288 16.0249 5.82606 12.2208 5.82606C8.41672 5.82606 5.31397 8.9288 5.31397 12.7329C5.31397 16.537 8.41672 19.6398 12.2208 19.6398ZM11.4365 8.2638V7.86753C11.4365 7.43459 11.7879 7.08321 12.2208 7.08321C12.6537 7.08321 13.0052 7.43459 13.0052 7.86753V8.25488C13.9245 8.46047 14.772 9.05135 15.2098 10.0943C15.3772 10.4935 15.1892 10.9535 14.7901 11.1211C14.3908 11.2885 13.9308 11.1005 13.7633 10.7014C13.3672 9.75753 12.3085 9.56851 11.5491 9.86723C11.1188 10.0365 10.7699 10.3805 10.795 10.8856L10.7951 10.8874C10.8135 11.2785 11.0703 11.4995 11.3725 11.647C11.6748 11.7947 12.0246 11.8768 12.3546 11.9306L12.3559 11.9308C13.7405 12.1587 15.2547 12.7938 15.4527 14.4397C15.6467 16.0422 14.3621 16.974 13.0052 17.2264V17.601C13.0052 18.0338 12.6537 18.3853 12.2208 18.3853C11.7879 18.3853 11.4365 18.0338 11.4365 17.601V17.215C10.2872 16.9756 9.29829 16.2169 8.99358 14.9928C8.88907 14.5728 9.14515 14.1469 9.56525 14.0423C9.98535 13.9378 10.4112 14.1939 10.5157 14.614C10.714 15.4102 11.5229 15.7469 12.3015 15.7276H12.3033C12.7251 15.7181 13.1949 15.6145 13.5406 15.3761C13.7762 15.2136 13.9369 14.9706 13.8954 14.6281L13.8953 14.6272C13.8415 14.1795 13.534 13.9358 13.1797 13.7748C12.8425 13.6216 12.4596 13.5376 12.1024 13.4788C10.7458 13.2578 9.30417 12.5702 9.22819 10.9616C9.1677 9.7287 9.92397 8.82086 10.9749 8.40743C11.1237 8.3489 11.2782 8.30096 11.4365 8.2638Z" fill="url(#paint0_linear_335_18105)"/>
</g>
<defs>
<linearGradient id="paint0_linear_335_18105" x1="0.686523" y1="25.6875" x2="49.314" y2="25.6875" gradientUnits="userSpaceOnUse">
<stop stop-color="#1956C1"/>
<stop offset="1" stop-color="#E2403B"/>
</linearGradient>
<clipPath id="clip0_335_18105">
<rect width="50" height="50" fill="white" transform="translate(0 0.6875)"/>
</clipPath>
</defs>
</svg>
