<svg width="31" height="31" viewBox="0 0 31 31" fill="none" xmlns="http://www.w3.org/2000/svg">
<g clip-path="url(#clip0_219_9739)">
<path d="M27.9277 4.27344H2.92775C1.54893 4.27344 0.427734 5.39463 0.427734 6.77346V24.2735C0.427734 25.6522 1.54893 26.7734 2.92775 26.7734H27.9278C29.3065 26.7734 30.4277 25.6522 30.4277 24.2734V6.77346C30.4277 5.39463 29.3065 4.27344 27.9277 4.27344ZM2.92775 5.52342H27.9278C28.0199 5.52342 28.101 5.55699 28.1875 5.57598C26.0231 7.55686 18.8463 14.1224 16.3348 16.3852C16.1382 16.5622 15.8215 16.7734 15.4278 16.7734C15.0341 16.7734 14.7173 16.5622 14.5202 16.3846C12.0089 14.1222 4.8317 7.55627 2.66766 5.57609C2.75426 5.55711 2.83559 5.52342 2.92775 5.52342ZM1.67771 24.2734V6.77346C1.67771 6.651 1.71463 6.5399 1.74768 6.42799C3.40424 7.94416 8.41189 12.5253 11.6589 15.478C8.42244 18.2581 3.4135 23.007 1.74375 24.5992C1.71428 24.4929 1.67771 24.389 1.67771 24.2734ZM27.9277 25.5235H2.92775C2.82791 25.5235 2.73914 25.4887 2.64592 25.4664C4.37133 23.8215 9.41215 19.0453 12.5917 16.3252C13.0062 16.7012 13.3849 17.0441 13.6833 17.313C14.1985 17.7781 14.8015 18.0235 15.4277 18.0235C16.054 18.0235 16.657 17.7781 17.1715 17.3136C17.4701 17.0445 17.849 16.7014 18.2637 16.3252C21.4435 19.045 26.4836 23.8209 28.2096 25.4664C28.1163 25.4887 28.0277 25.5235 27.9277 25.5235ZM29.1778 24.2734C29.1778 24.3889 29.1412 24.4929 29.1118 24.5992C27.4414 23.0062 22.433 18.2578 19.1966 15.478C22.4437 12.5253 27.4506 7.94463 29.1078 6.42787C29.1408 6.53978 29.1778 6.65094 29.1778 6.7734V24.2734Z" fill="white"/>
</g>
<defs>
<clipPath id="clip0_219_9739">
<rect width="30" height="30" fill="white" transform="translate(0.427734 0.523438)"/>
</clipPath>
</defs>
</svg>
